<?xml version="1.0" encoding="utf-8"?>
<!-- Generator: Adobe Illustrator 28.3.0, SVG Export Plug-In . SVG Version: 6.00 Build 0)  -->
<svg version="1.1" id="Layer_2_00000003077993038082178990000002714487107429469085_"
	 xmlns="http://www.w3.org/2000/svg" xmlns:xlink="http://www.w3.org/1999/xlink" x="0px" y="0px" viewBox="0 0 297.7 43.5"
	 style="enable-background:new 0 0 297.7 43.5;" xml:space="preserve">
<style type="text/css">
	.st0{fill:#E15E23;}
</style>
<g id="Layer_1-2">
	<path class="st0" d="M6,4.6H5.1l-2.3,6.5v3.1h0.7v-2.7h4.2v2.7h0.7v-3.1L6,4.6z M3.5,10.9l1.9-5.4h0.1l1.9,5.4H3.5L3.5,10.9z
		 M26.9,12.1v-0.8h-0.7v0.8c0,0.8-0.7,1.5-1.5,1.5h-1.1c-0.8,0-1.5-0.7-1.5-1.5V6.7c0-0.8,0.6-1.5,1.5-1.5h1.1
		c0.8,0,1.5,0.7,1.5,1.5v0.8h0.7V6.7c0-1.2-0.9-2.1-2.1-2.1h-1.1c-1.2,0-2.1,0.9-2.1,2.1v5.4c0,1.2,1,2.1,2.1,2.1h1.1
		C26,14.2,26.9,13.3,26.9,12.1L26.9,12.1z M37.5,7.6V6.7c0-1.2-0.9-2.1-2.1-2.1h-3.2v9.6h0.7V9.7h1.9l2.1,4.6h0.7l-2.1-4.6
		C36.6,9.7,37.5,8.7,37.5,7.6L37.5,7.6z M32.8,9V5.3h2.6c0.8,0,1.5,0.7,1.5,1.5v0.8c0,0.8-0.6,1.5-1.5,1.5L32.8,9L32.8,9z M48,7.7
		V4.6h-0.7v2.8L45.2,10h0l-2.1-2.5V4.6h-0.7v3.2l2.4,2.9v3.5h0.7v-3.5C45.5,10.7,48,7.7,48,7.7z M65.1,9.8V9.1h-3.4V5.3h4V4.6H61
		v9.6h0.7V9.8L65.1,9.8L65.1,9.8z M75.9,12.1V6.7c0-1.2-1-2.1-2.2-2.1h-1.2c-1.2,0-2.2,0.9-2.2,2.1v5.4c0,1.2,1,2.1,2.2,2.1h1.2
		C74.9,14.2,75.9,13.3,75.9,12.1z M72.5,13.6c-0.9,0-1.6-0.7-1.6-1.5V6.7c0-0.8,0.7-1.5,1.6-1.5h1.2c0.9,0,1.6,0.7,1.6,1.5v5.4
		c0,0.8-0.7,1.5-1.6,1.5H72.5z M86.8,7.6V6.7c0-1.2-0.9-2.1-2.1-2.1h-3.2v9.6h0.7V9.7H84l2.1,4.6h0.7l-2.1-4.6
		C85.9,9.7,86.8,8.7,86.8,7.6L86.8,7.6z M82.1,9V5.3h2.6c0.8,0,1.4,0.7,1.4,1.5v0.8c0,0.8-0.6,1.5-1.4,1.5L82.1,9L82.1,9z
		 M104.8,4.6v4.3h-4.1V4.6H100v9.6h0.7V9.6h4.1v4.7h0.7V4.6H104.8z M111.8,13.6V9.4h3.7V8.8h-3.7V5.3h4.2V4.6h-4.9v9.6h4.9v-0.7
		C116,13.6,111.8,13.6,111.8,13.6z M121.8,13.6v-9h-0.7v9.6h4.9v-0.7L121.8,13.6L121.8,13.6z M134.1,9.7c1.2,0,2.1-0.9,2.1-2.1V6.7
		c0-1.2-0.9-2.1-2.1-2.1h-3.2v9.6h0.7V9.7L134.1,9.7L134.1,9.7z M131.6,9V5.3h2.6c0.8,0,1.4,0.7,1.4,1.5v0.8c0,0.8-0.6,1.5-1.4,1.5
		L131.6,9L131.6,9z M153.3,9.8V9.1h-3.4V5.3h3.9V4.6h-4.6v9.6h0.7V9.8L153.3,9.8L153.3,9.8z M164,7.6V6.7c0-1.2-0.9-2.1-2.1-2.1
		h-3.2v9.6h0.7V9.7h1.9l2.1,4.6h0.7l-2.1-4.6C163.1,9.7,164,8.7,164,7.6L164,7.6z M159.3,9V5.3h2.6c0.8,0,1.4,0.7,1.4,1.5v0.8
		c0,0.8-0.6,1.5-1.4,1.5L159.3,9L159.3,9z M174.8,12.1V6.7c0-1.2-1-2.1-2.2-2.1h-1.2c-1.2,0-2.2,0.9-2.2,2.1v5.4
		c0,1.2,1,2.1,2.2,2.1h1.2C173.8,14.2,174.8,13.3,174.8,12.1L174.8,12.1z M171.4,13.6c-0.9,0-1.6-0.7-1.6-1.5V6.7
		c0-0.8,0.7-1.5,1.6-1.5h1.2c0.9,0,1.6,0.7,1.6,1.5v5.4c0,0.8-0.7,1.5-1.6,1.5H171.4z M185.4,4.6l-2,4.8l-2-4.8h-1v9.6h0.7V5.4
		l2.2,5h0.4l2.1-5v8.9h0.7V4.6H185.4L185.4,4.6z M204.4,5.3V4.6h-5.4v0.7h2.3v9h0.7v-9C202.1,5.3,204.4,5.3,204.4,5.3z M214.2,4.6
		v4.3h-4.1V4.6h-0.7v9.6h0.7V9.6h4.1v4.7h0.7V4.6H214.2z M221.2,13.6V9.4h3.7V8.8h-3.7V5.3h4.2V4.6h-4.9v9.6h4.9v-0.7
		C225.4,13.6,221.2,13.6,221.2,13.6z M241.8,9.7c1.2,0,2.1-0.9,2.1-2.1V6.7c0-1.2-0.9-2.1-2.1-2.1h-3.2v9.6h0.7V9.7L241.8,9.7
		L241.8,9.7z M239.2,9V5.3h2.6c0.8,0,1.4,0.7,1.4,1.5v0.8c0,0.8-0.6,1.5-1.4,1.5L239.2,9L239.2,9z M249.7,13.6v-9H249v9.6h4.9v-0.7
		L249.7,13.6L249.7,13.6z M261.7,4.6h-0.9l-2.3,6.5v3.1h0.7v-2.7h4.2v2.7h0.7v-3.1L261.7,4.6z M259.3,10.9l1.9-5.4h0.2l1.9,5.4
		H259.3z M274.2,4.6v9h-0.3l-3.1-9h-1.4v9.6h0.7v-9h0.3l3.1,9h1.4V4.6H274.2z M281.2,13.6V9.4h3.7V8.8h-3.7V5.3h4.2V4.6h-4.9v9.6
		h4.9v-0.7C285.4,13.6,281.2,13.6,281.2,13.6z M295.3,5.3V4.6h-5.4v0.7h2.3v9h0.7v-9H295.3z M7.8,29.9v-0.7H2.4v0.7h2.3v9h0.7v-9
		C5.4,29.9,7.8,29.9,7.8,29.9z M17.9,36.7v-5.4c0-1.2-1-2.1-2.2-2.1h-1.2c-1.2,0-2.2,1-2.2,2.1v5.4c0,1.2,1,2.2,2.2,2.2h1.2
		C16.9,38.9,17.9,37.9,17.9,36.7z M14.5,38.2c-0.9,0-1.6-0.7-1.6-1.5v-5.4c0-0.8,0.7-1.5,1.6-1.5h1.2c0.9,0,1.6,0.6,1.6,1.5v5.4
		c0,0.8-0.7,1.5-1.6,1.5H14.5z M65.6,29.9v-0.7h-5.4v0.7h2.3v9h0.7v-9L65.6,29.9L65.6,29.9z M75.4,29.2v4.3h-4.1v-4.3h-0.7v9.7h0.7
		v-4.7h4.1v4.7H76v-9.6C76,29.2,75.4,29.2,75.4,29.2z M82.4,38.2v-4.1H86v-0.7h-3.7v-3.5h4.2v-0.7h-4.9v9.6h4.9v-0.7L82.4,38.2
		L82.4,38.2z M133.6,34.4v-0.7h-3.4v-3.8h3.9v-0.7h-4.6v9.7h0.7v-4.5L133.6,34.4L133.6,34.4z M141.4,29.2h-0.9l-2.3,6.5v3.1h0.7
		v-2.7h4.2v2.7h0.7v-3.1L141.4,29.2L141.4,29.2z M138.9,35.6l1.9-5.4h0.1l1.9,5.4H138.9L138.9,35.6z M154.1,36.8
		c0-2.7-4.6-3.8-4.6-5.6c0-0.8,0.6-1.3,1.5-1.3h0.6c0.9,0,1.5,0.7,1.5,1.5v0.4h0.7v-0.4c0-1.2-1-2.2-2.2-2.2H151
		c-1.3,0-2.2,0.8-2.2,1.9c0,2.4,4.6,3.4,4.6,5.6c0,0.8-0.6,1.4-1.5,1.4h-0.9c-0.8,0-1.5-0.7-1.5-1.5V36h-0.7v0.6
		c0,1.2,1,2.2,2.2,2.2h0.9C153.1,38.9,154.1,38,154.1,36.8z M164.1,29.2v4.3H160v-4.3h-0.7v9.7h0.7v-4.7h4.1v4.7h0.7v-9.6
		C164.8,29.2,164.1,29.2,164.1,29.2z M172.9,38.2v-8.3h2.3v-0.7h-5.4v0.7h2.3v8.3h-2.3v0.7h5.4v-0.7H172.9z M185.8,36.7v-5.4
		c0-1.2-1-2.1-2.2-2.1h-1.2c-1.2,0-2.2,1-2.2,2.1v5.4c0,1.2,1,2.2,2.2,2.2h1.2C184.8,38.9,185.8,37.9,185.8,36.7z M182.4,38.2
		c-0.9,0-1.6-0.7-1.6-1.5v-5.4c0-0.8,0.7-1.5,1.6-1.5h1.2c0.9,0,1.6,0.6,1.6,1.5v5.4c0,0.8-0.7,1.5-1.6,1.5H182.4z M196.1,29.2v9
		h-0.3l-3.1-9h-1.4v9.6h0.7v-9h0.3l3.1,9h1.4v-9.6C196.8,29.2,196.1,29.2,196.1,29.2z M246.7,29.2H246v3l-1,5.6h0l-1.4-5.6H243
		l-1.4,5.6h0l-1-5.5v-3h-0.7v3.1l1.2,6.5h0.8l1.4-5.4l1.4,5.4h0.9l1.2-6.5L246.7,29.2L246.7,29.2z M257.6,36.7v-5.4
		c0-1.2-1-2.1-2.3-2.1h-1.2c-1.2,0-2.2,1-2.2,2.1v5.4c0,1.2,1,2.2,2.2,2.2h1.2C256.6,38.9,257.6,37.9,257.6,36.7z M254.2,38.2
		c-0.9,0-1.6-0.7-1.6-1.5v-5.4c0-0.8,0.7-1.5,1.6-1.5h1.2c0.9,0,1.6,0.6,1.6,1.5v5.4c0,0.8-0.7,1.5-1.6,1.5H254.2z M268.5,32.2v-0.8
		c0-1.2-0.9-2.1-2.1-2.1h-3.2v9.7h0.7v-4.6h1.9l2.1,4.6h0.7l-2.1-4.6C267.6,34.3,268.5,33.4,268.5,32.2z M263.8,33.7v-3.7h2.6
		c0.8,0,1.5,0.6,1.5,1.5v0.8c0,0.8-0.6,1.5-1.5,1.5L263.8,33.7L263.8,33.7z M274.4,38.2v-9h-0.7v9.6h4.9v-0.7L274.4,38.2L274.4,38.2
		z M288.8,36.7v-5.4c0-1.2-1-2.1-2.1-2.1h-3.2v9.7h3.2C287.9,38.9,288.8,37.9,288.8,36.7z M284.1,38.2v-8.3h2.6
		c0.8,0,1.4,0.6,1.4,1.5v5.4c0,0.8-0.6,1.5-1.4,1.5C286.7,38.2,284.1,38.2,284.1,38.2z M294.9,37.9h-1v1h1V37.9z"/>
</g>
</svg>
