<?xml version="1.0" encoding="UTF-8"?>
<svg id="Layer_2" data-name="Layer 2" xmlns="http://www.w3.org/2000/svg" viewBox="0 0 319.76 68.8">
  <defs>
    <style>
      .cls-1 {
        fill: #e56a17;
        stroke-width: 0px;
      }
    </style>
  </defs>
  <g id="Isolation_Mode" data-name="Isolation Mode">
    <g>
      <g>
        <g>
          <g>
            <path class="cls-1" d="M57.35,42.64v.17h-6.41v-.17c1.05,0,1.34-1.16.22-4l-.82-2.01h-5.75c-.29.7-.59,1.46-.88,2.12l-.22.54c-.75,1.89-.92,3.35.06,3.35v.17h-3.36v-.17c1.07,0,2.22-1.28,3.36-3.9,1.75-4.22,3.46-8.44,5.24-12.64h.17l5.21,12.54s1.41,4,3.19,4ZM50.26,36.46l-2.79-6.81-2.82,6.81h5.61Z"/>
            <path class="cls-1" d="M57.43,42.89h-6.58v-.34h.09c.3,0,.52-.1.66-.31.26-.37.37-1.3-.52-3.58l-.8-1.96h-5.63c-.08.2-.16.4-.25.6-.2.5-.42,1.01-.62,1.48l-.22.54c-.6,1.51-.77,2.59-.47,3.02.1.14.25.21.45.21h.09v.34h-3.53v-.34h.09c1.05,0,2.18-1.33,3.29-3.85.56-1.35,1.12-2.7,1.67-4.06,1.16-2.82,2.36-5.73,3.57-8.59l.02-.05h.28l5.23,12.6h0s0,.02.01.03c.24.65,1.54,3.92,3.1,3.92h.09v.34ZM51.05,42.72h6.19c-1.57-.13-2.81-3.1-3.15-4.03v-.02s-5.19-12.49-5.19-12.49h-.05c-.46,1.08-.91,2.17-1.36,3.25l3.76,9.17c.74,1.89.91,3.15.5,3.74-.15.23-.39.35-.69.38ZM40.29,42.72h3.15c-.22-.02-.39-.12-.5-.28-.42-.61.01-2.05.45-3.16-1.04,2.21-2.08,3.36-3.1,3.44ZM44.78,36.37h5.35l-2.66-6.5-2.69,6.5Z"/>
          </g>
          <g>
            <path class="cls-1" d="M68.32,31.77h-.17c-.37-3.11-.91-5.31-4.42-5.5v12.06c0,3.35.46,4.31,1.53,4.31v.17h-6.08v-.17c1.07,0,1.53-.96,1.53-4.31v-12.06c-3.51.19-4.05,2.39-4.42,5.5h-.17l.63-5.69h6.82s.15,0,.15,0c1.36,0,2.6.03,3.95,0l.63,5.68Z"/>
            <path class="cls-1" d="M65.35,42.89h-6.25v-.34h.09c.91,0,1.44-.69,1.44-4.22v-11.97c-3.37.22-3.89,2.39-4.25,5.42v.08h-.35l.65-5.86h7.05c.46,0,.9.01,1.34.01.88,0,1.71.01,2.61,0h.08s.65,5.85.65,5.85h-.34v-.08c-.37-3.03-.89-5.2-4.26-5.42v11.97c0,3.53.53,4.22,1.44,4.22h.09v.34ZM59.31,42.72h5.83c-1.1-.08-1.49-1.26-1.49-4.39v-12.15h.09c3.41.19,4.07,2.23,4.44,5.13l-.57-5.13c-.87.02-1.68.01-2.54,0-.44,0-.88,0-1.34,0h-6.89s-.57,5.13-.57,5.13c.38-2.9,1.03-4.94,4.44-5.13h.09s0,12.14,0,12.14c0,3.13-.39,4.31-1.49,4.39Z"/>
          </g>
          <g>
            <path class="cls-1" d="M84.25,42.64v.17h-6.41v-.17c1.05,0,1.34-1.16.22-4l-.82-2.01h-5.75c-.29.7-.59,1.46-.88,2.12l-.22.54c-.75,1.89-.92,3.35.06,3.35v.17h-3.36v-.17c1.07,0,2.22-1.28,3.36-3.9,1.75-4.22,3.46-8.44,5.24-12.64h.17l5.21,12.54s1.41,4,3.19,4ZM77.17,36.46l-2.79-6.81-2.82,6.81h5.61Z"/>
            <path class="cls-1" d="M84.34,42.89h-6.58v-.34h.09c.3,0,.52-.1.66-.31.26-.37.37-1.3-.52-3.58l-.8-1.96h-5.63c-.08.2-.16.4-.25.6-.2.5-.41,1.01-.61,1.47l-.22.54c-.6,1.51-.77,2.59-.47,3.02.1.14.25.21.45.21h.09v.34h-3.53v-.34h.09c1.05,0,2.18-1.33,3.29-3.85.56-1.34,1.11-2.69,1.66-4.03,1.16-2.82,2.37-5.75,3.58-8.61l.02-.05h.28l5.23,12.6h0s0,.02.01.03c.24.65,1.54,3.92,3.1,3.92h.09v.34ZM77.95,42.72h6.19c-1.57-.13-2.81-3.1-3.15-4.03v-.02s-5.19-12.49-5.19-12.49h-.05c-.46,1.08-.91,2.17-1.36,3.25l3.76,9.17c.74,1.89.91,3.15.5,3.74-.15.23-.39.35-.69.38ZM67.2,42.72h3.15c-.22-.02-.39-.12-.5-.28-.42-.61.01-2.05.45-3.16-1.04,2.21-2.08,3.36-3.1,3.44ZM71.69,36.37h5.35l-2.66-6.5-2.69,6.5Z"/>
          </g>
          <g>
            <path class="cls-1" d="M96.82,27.35s0,0,0,0l.03.02c.09.04.21,0,.21-.13h.17l.1,1.03.34,3.42v.03s.3,3.15.3,3.15h-.17l-.29-3.02c-.43-3.2-2.12-5.71-5.65-5.83-4.91.04-5.8,4.29-5.8,8.42,0,3.84.88,8.42,5.57,8.42,3.69,0,5.87-1.91,7.13-4.95l.47-1.13,2.97-7.17v-.03s.55-1.3.55-1.3l.84-2.03h.17l5.2,12.54s0-.03,0-.05c1.29,2.97,2.1,4.05,3.18,4.05v.17h-6.41v-.17c1.05,0,1.34-1.15.22-4l-.76-1.85h-5.88l-.42,1.03c-1.3,3.12-3.41,5.05-7.28,5.05-4.74,0-8.59-3.84-8.59-8.58,0-4.86,4.01-8.74,8.86-8.58,1.52,0,3.52.67,4.92,1.49ZM105.14,36.79l-2.86-6.97-2.89,6.97h5.75Z"/>
            <path class="cls-1" d="M91.62,43.12c-4.78,0-8.67-3.89-8.67-8.67,0-2.37.94-4.58,2.64-6.23,1.7-1.65,3.94-2.51,6.31-2.44,1.62,0,3.62.73,4.91,1.47h.02s.07.05.07.05c.01,0,.04,0,.06-.01.01,0,.02-.02.02-.04v-.09h.33l.44,4.52v.05s.31,3.23.31,3.23h-.34l-.3-3.09c-.48-3.6-2.46-5.64-5.57-5.75-5.12.04-5.71,4.78-5.71,8.33,0,5.53,1.84,8.33,5.48,8.33,3.38,0,5.69-1.6,7.06-4.89l3.43-8.27v-.03s.57-1.33.57-1.33l.86-2.08h.28l5.12,12.35v-.03s.11.23.11.23c1.3,2.99,2.08,4,3.1,4h.09v.34h-6.58v-.34h.09c.3,0,.52-.1.66-.31.25-.37.37-1.3-.52-3.58l-.73-1.79h-5.77l-.4.97c-1.45,3.48-3.78,5.1-7.36,5.1ZM91.62,25.94c-2.22,0-4.31.84-5.91,2.4-1.67,1.62-2.59,3.78-2.59,6.11,0,4.49,3.51,8.18,7.93,8.48-3.37-.28-5.08-3.13-5.08-8.48,0-3.61.6-8.41,5.8-8.5-.05,0-.1,0-.15,0ZM105.85,42.88h6.17c-1.01-.07-1.81-1.09-3.03-3.86v.05s-5.29-12.73-5.29-12.73h-.06l-.81,1.97-.55,1.27h0s0,0,0,0l2.98,7.28h0l.78,1.9c.74,1.89.91,3.14.5,3.74-.15.23-.39.35-.69.38ZM97.33,40.5c-1.09,1.29-2.48,2.06-4.21,2.34,1.74-.27,3.12-1.03,4.21-2.34ZM99.52,36.7h5.49l-2.73-6.66-2.76,6.66ZM91.96,25.95c3.14.15,5.14,2.24,5.62,5.9l.03.36-.05-.48v-.05s-.42-4.35-.42-4.35h-.02s-.04.08-.08.1c-.06.04-.14.05-.22.03h-.01s-.05-.04-.05-.04c-1.25-.72-3.21-1.45-4.8-1.47Z"/>
          </g>
          <g>
            <path class="cls-1" d="M127.25,30.56v7.76c0,3.35.46,4.31,1.53,4.31v.17h-6.08v-.17c1.07,0,1.53-.96,1.53-4.31v-11.89l-5.24,10.67-4.78-10.64v11.86c0,3.35.46,4.31,1.53,4.31v.17h-3.23v-.17c1.07,0,1.53-.96,1.53-4.31v-7.76c0-3.35-.46-4.3-1.53-4.3v-.17h4.55l3.47,7.53,3.69-7.53h4.55v.17c-1.07,0-1.53.95-1.53,4.3Z"/>
            <path class="cls-1" d="M115.83,42.89h-3.4v-.34h.09c.91,0,1.44-.69,1.44-4.22v-7.76c0-3.53-.53-4.22-1.44-4.22h-.09v-.34h4.69l3.42,7.42,3.64-7.42h4.69v.34h-.09c-.91,0-1.44.69-1.44,4.22v7.76c0,3.53.53,4.22,1.44,4.22h.09v.34h-6.25v-.34h.09c.91,0,1.44-.69,1.44-4.22v-11.53l-5.15,10.5-4.69-10.44v11.46c0,3.53.53,4.22,1.44,4.22h.09v.34ZM112.64,42.72h2.98c-1.05-.08-1.46-1.16-1.49-4-.03,2.84-.44,3.92-1.49,4ZM122.83,42.72h5.83c-1.1-.08-1.49-1.26-1.49-4.39v-7.76c0-3.13.39-4.31,1.49-4.39h-4.34v12.15c0,3.13-.39,4.31-1.49,4.39ZM114.18,26.18l4.82,10.72,1.52-3.11-3.51-7.62h-2.83ZM112.64,26.18c1.03.07,1.44,1.12,1.49,3.84v-3.84h-1.49Z"/>
          </g>
          <g>
            <path class="cls-1" d="M146.35,42.64v.17h-6.41v-.17c1.05,0,1.34-1.16.22-4l-.82-2.01h-5.75c-.29.7-.59,1.46-.88,2.12l-.22.54c-.75,1.89-.92,3.35.06,3.35v.17h-3.36v-.17c1.07,0,2.22-1.28,3.36-3.9,1.75-4.22,3.46-8.44,5.24-12.64h.17l5.21,12.54s1.41,4,3.19,4ZM139.27,36.46l-2.79-6.81-2.82,6.81h5.61Z"/>
            <path class="cls-1" d="M146.43,42.89h-6.58v-.34h.09c.3,0,.52-.1.66-.31.26-.37.37-1.3-.52-3.58l-.8-1.96h-5.63c-.08.2-.16.4-.25.6-.2.5-.42,1.01-.62,1.48l-.22.54c-.6,1.51-.77,2.59-.47,3.02.1.14.25.21.45.21h.09v.34h-3.53v-.34h.09c1.05,0,2.18-1.33,3.29-3.85.56-1.35,1.12-2.7,1.67-4.06,1.16-2.82,2.36-5.73,3.57-8.59l.02-.05h.28l5.23,12.6h0s0,.02.01.03c.24.65,1.54,3.92,3.1,3.92h.09v.34ZM140.05,42.72h6.19c-1.57-.13-2.81-3.1-3.15-4.03v-.02s-5.19-12.49-5.19-12.49h-.05c-.46,1.08-.91,2.17-1.36,3.25l3.76,9.17c.74,1.89.91,3.15.5,3.74-.15.23-.39.35-.69.38ZM129.3,42.72h3.15c-.22-.02-.39-.12-.5-.28-.42-.61.01-2.05.45-3.16-1.04,2.21-2.08,3.36-3.1,3.44ZM133.79,36.37h5.35l-2.66-6.5-2.69,6.5Z"/>
          </g>
        </g>
        <g>
          <g>
            <path class="cls-1" d="M162.23,31.59h-.17c-.39-3.3-.97-5.58-4.99-5.58h-1.8v8.2h.07c2.77,0,3.29-.98,3.29-2.06h.17v4.29h-.17c0-1.09-.52-2.06-3.32-2.06h-.04v3.84c0,3.39.46,4.36,1.55,4.36v.17h-6.15v-.17c1.09,0,1.54-.97,1.54-4.36v-7.85c0-3.39-.46-4.35-1.54-4.35v-.17h10.92v.04l.64,5.7Z"/>
            <path class="cls-1" d="M156.96,42.89h-6.43v-.45h.14c.89,0,1.4-.69,1.4-4.22v-7.85c0-3.52-.51-4.21-1.4-4.21h-.14v-.45h11.2v.18l.65,5.85h-.45v-.12c-.4-3.29-.95-5.45-4.87-5.45h-1.65v7.92c2.71-.02,3.08-.98,3.08-1.92v-.14h.45v4.57h-.45v-.14c0-.94-.37-1.89-3.08-1.92v3.7c0,3.53.52,4.22,1.41,4.22h.14v.45ZM151.25,42.6h4.99c-.81-.36-1.11-1.64-1.11-4.39v-12.23s-3.88,0-3.88,0c.8.36,1.1,1.64,1.1,4.38v7.85c0,2.74-.3,4.02-1.1,4.39ZM156.39,34.29c1.27.15,2,.59,2.27,1.38v-2.76c-.26.79-1,1.23-2.27,1.38ZM158.48,25.98c2.1.37,2.93,1.63,3.36,3.42l-.38-3.42h-2.98Z"/>
          </g>
          <g>
            <path class="cls-1" d="M176.43,42.58v.17h-6.48v-.17c1.06,0,1.35-1.17.22-4.05l-.83-2.03h-5.81c-.29.71-.6,1.48-.89,2.15l-.22.55c-.76,1.92-.93,3.39.06,3.39v.17h-3.4v-.17c1.08,0,2.24-1.29,3.4-3.94,1.77-4.27,3.5-8.54,5.3-12.79h.17l5.27,12.69s1.43,4.04,3.22,4.04ZM169.27,36.33l-2.82-6.88-2.85,6.88h5.67Z"/>
            <path class="cls-1" d="M176.57,42.89h-6.76v-.45h.14c.29,0,.49-.09.63-.29.25-.37.36-1.29-.53-3.57l-.8-1.94h-5.62l-.24.58c-.21.51-.42,1.02-.62,1.49l-.22.54c-.59,1.49-.77,2.59-.48,3,.09.13.22.19.41.19h.14v.45h-3.68v-.45h.14c1.04,0,2.17-1.33,3.27-3.86.56-1.35,1.11-2.7,1.67-4.05,1.18-2.87,2.4-5.83,3.63-8.74l.04-.09h.36l5.26,12.67h0s.05.13.05.13c.25.66,1.55,3.93,3.08,3.93h.14v.45ZM170.48,42.6h5.4c-1.41-.57-2.47-3.14-2.79-4h0s-5.23-12.6-5.23-12.6c-.45,1.07-.9,2.14-1.35,3.21l3.79,9.25c.75,1.93.92,3.22.5,3.83-.09.13-.2.23-.33.3ZM159.66,42.6h2.37c-.08-.05-.15-.12-.21-.2-.33-.49-.16-1.46.14-2.39-.77,1.43-1.54,2.3-2.31,2.59ZM163.81,36.19h5.25l-2.61-6.37-2.64,6.37Z"/>
          </g>
          <g>
            <path class="cls-1" d="M183.22,42.98c-1.54,0-3.86-.41-5.29-1.13h0c-.1-.06-.24-.07-.24.12v.04h-.17l-.21-3.94-.03-.55h0l-.06-1.26h.17l.06,1.15h0c.11,1.97,1.55,5.39,5.77,5.39,2.71,0,4.66-1.92,3.85-3.98-1.54-3.92-10.01-3.54-10.27-8.87-.11-2.28,2.02-4.35,6.42-4.35,1.58,0,3.08.44,4.37,1.21l-.05-.04c.1.08.26.04.26-.1h.17l.26,3.42.1,1.07v.06s.05.76.05.76h-.17l-.04-.55c-.25-2.47-.99-5.66-4.95-5.66-2.61,0-4.35,1.61-4.26,3.33.22,4.52,9.62,3.09,10.33,8.74.33,2.59-2,5.13-6.07,5.13Z"/>
            <path class="cls-1" d="M183.22,43.12h0c-1.44,0-3.68-.37-5.15-1.05v.05l-.22-.15s-.01,0-.02-.01c0,0,0,0,0,0v.18h-.44l-.26-4.77h0l-.06-1.26h.45l.07,1.29c.1,1.82,1.4,5.26,5.63,5.26,1.48,0,2.81-.6,3.47-1.57.46-.67.54-1.46.25-2.22-.66-1.67-2.63-2.54-4.71-3.46-2.67-1.17-5.42-2.39-5.57-5.45-.05-.99.3-1.91,1.02-2.66,1.13-1.19,3.1-1.84,5.55-1.84,1.55,0,3.07.42,4.41,1.21h0s0,0,0,0c.01,0,.03,0,.03,0v-.14h.44s.37,4.63.37,4.63v.09s.06.88.06.88h-.45l-.05-.68c-.26-2.57-1.04-5.53-4.81-5.53-1.37,0-2.59.46-3.36,1.27-.53.55-.8,1.23-.76,1.91.1,2.06,2.26,2.85,4.54,3.69,2.54.93,5.41,1.99,5.8,5.03.15,1.17-.23,2.33-1.05,3.27-1.15,1.3-2.98,2.02-5.16,2.02ZM181.63,25.85c-1.63.22-2.93.79-3.75,1.65-.66.69-.98,1.54-.94,2.45.14,2.89,2.82,4.07,5.4,5.21,2.14.94,4.15,1.83,4.86,3.61.33.85.24,1.73-.28,2.48-.43.63-1.13,1.12-1.96,1.41,1.32-.27,2.43-.87,3.2-1.75.77-.88,1.12-1.96.99-3.05-.37-2.87-3.03-3.85-5.61-4.8-2.37-.87-4.61-1.7-4.72-3.94-.04-.76.26-1.51.84-2.12.5-.53,1.19-.92,1.97-1.14ZM177.79,41.63l.2.1c.87.44,2.08.76,3.22.94-2.29-.72-3.36-2.63-3.74-4.18l.17,3.24s.03-.02.04-.03c.03-.02.07-.03.1-.03v-.04ZM185.4,26.04c1.62.7,2.33,2.21,2.67,3.82l-.23-2.96s-.04.03-.06.04c-.08.04-.18.04-.26,0h0c-.66-.39-1.38-.69-2.12-.89Z"/>
          </g>
          <g>
            <path class="cls-1" d="M205.49,30.37v8.33c.04,3,.51,3.88,1.54,3.88v.17h-6.15v-.17c1.67,0,1.55-3.29,1.55-4.33v-3.87h-6.1v3.84c0,3.39.46,4.36,1.55,4.36v.17h-6.15v-.17c1.08,0,1.54-.97,1.54-4.36v-7.85c0-3.39-.46-4.35-1.54-4.35v-.17h6.15v.17c-1.09,0-1.55.96-1.55,4.35v3.84h6.1v-3.84c0-3.39-.46-4.35-1.54-4.35v-.17h6.15v.17c-1.09,0-1.55.96-1.55,4.35Z"/>
            <path class="cls-1" d="M198.03,42.89h-6.43v-.45h.14c.89,0,1.4-.69,1.4-4.22v-7.85c0-3.52-.51-4.21-1.4-4.21h-.14v-.45h6.43v.45h-.14c-.89,0-1.41.69-1.41,4.21v3.7h5.82v-3.7c0-3.52-.51-4.21-1.4-4.21h-.14v-.45h6.43v.45h-.14c-.89,0-1.41.69-1.41,4.21v8.33c.05,3.12.55,3.74,1.4,3.74h.14v.45h-6.43v-.45h.14c.27,0,.49-.09.68-.28.75-.75.74-2.82.73-3.71v-3.93h-5.82v3.7c0,3.53.52,4.22,1.41,4.22h.14v.45ZM192.32,42.6h4.99c-.81-.36-1.11-1.64-1.11-4.39v-7.85c0-2.74.3-4.02,1.11-4.38h-4.98c.8.36,1.1,1.64,1.1,4.38v7.85c0,2.74-.3,4.02-1.1,4.39ZM201.41,42.6h5.03c-.76-.34-1.06-1.49-1.09-3.9v-8.34c0-2.74.3-4.02,1.11-4.38h-4.98c.8.36,1.1,1.64,1.1,4.38v8.08c0,1,.02,3.07-.81,3.91-.11.11-.23.19-.35.25Z"/>
          </g>
          <g>
            <path class="cls-1" d="M214.11,30.37v7.85c0,3.39.46,4.36,1.55,4.36v.17h-6.15v-.17c1.08,0,1.54-.97,1.54-4.36v-7.85c0-3.39-.46-4.35-1.54-4.35v-.17h6.15v.17c-1.09,0-1.55.96-1.55,4.35Z"/>
            <path class="cls-1" d="M215.8,42.89h-6.43v-.45h.14c.89,0,1.4-.69,1.4-4.22v-7.85c0-3.52-.51-4.21-1.4-4.21h-.14v-.45h6.43v.45h-.14c-.89,0-1.41.69-1.41,4.21v7.85c0,3.53.52,4.22,1.41,4.22h.14v.45ZM210.09,42.6h4.99c-.81-.36-1.11-1.64-1.11-4.39v-7.85c0-2.74.3-4.02,1.11-4.38h-4.98c.8.36,1.1,1.64,1.1,4.38v7.85c0,2.74-.3,4.02-1.1,4.39Z"/>
          </g>
          <g>
            <path class="cls-1" d="M234.22,34.29c0,4.79-3.89,8.68-8.68,8.68s-8.69-3.89-8.69-8.68,3.89-8.69,8.69-8.69,8.68,3.89,8.68,8.69ZM231.17,34.29c0-3.89-.89-8.51-5.63-8.51s-5.63,4.62-5.63,8.51.89,8.51,5.63,8.51,5.63-4.62,5.63-8.51Z"/>
            <path class="cls-1" d="M225.54,43.12c-4.87,0-8.83-3.96-8.83-8.82s3.96-8.83,8.83-8.83,8.82,3.96,8.82,8.83-3.96,8.82-8.82,8.82ZM225.54,25.92c-3.64,0-5.49,2.82-5.49,8.37s1.85,8.37,5.49,8.37,5.49-2.82,5.49-8.37-1.85-8.37-5.49-8.37ZM227.71,26.03c2.39.97,3.6,3.74,3.6,8.27s-1.2,7.28-3.57,8.26c3.65-.97,6.34-4.31,6.34-8.26s-2.71-7.3-6.37-8.27ZM223.36,26.03c-3.66.96-6.37,4.3-6.37,8.27s2.7,7.28,6.34,8.25c-2.37-.98-3.57-3.74-3.57-8.25s1.21-7.3,3.6-8.27Z"/>
          </g>
          <g>
            <path class="cls-1" d="M247.39,30.37v7.85c0,3.39.46,4.36,1.54,4.36v.17h-4.43l-7.37-16.52v12c0,3.39.46,4.36,1.54,4.36v.17h-3.26v-.17c1.09,0,1.54-.97,1.54-4.36v-7.85c0-3.39-.46-4.35-1.54-4.35v-.17h4.6l7.2,16.13v-11.61c0-3.39-.46-4.35-1.54-4.35v-.17h3.26v.17c-1.09,0-1.54.96-1.54,4.35Z"/>
            <path class="cls-1" d="M238.82,42.89h-3.54v-.45h.14c.89,0,1.4-.69,1.4-4.22v-7.85c0-3.52-.51-4.21-1.4-4.21h-.14v-.45h1.72v-.14l.06.14h3.05l.04.08,6.93,15.52v-10.95c0-3.52-.51-4.21-1.4-4.21h-.14v-.45h3.54v.45h-.14c-.89,0-1.4.69-1.4,4.21v7.85c0,3.53.51,4.22,1.4,4.22h.14v.45h-4.66l-.04-.08-7.1-15.92v11.34c0,3.53.51,4.22,1.4,4.22h.14v.45ZM236,42.6h2.1c-.61-.28-.93-1.08-1.05-2.66-.12,1.58-.44,2.38-1.05,2.66ZM247.36,42.6h1c-.53-.24-.85-.89-1-2.1v2.1ZM244.6,42.6h2.75l-7.42-16.62h-2.74l.08.18,7.33,16.44ZM246.25,25.98c.61.28.93,1.08,1.05,2.66.12-1.58.44-2.38,1.05-2.66h-2.1ZM236,25.98c.53.24.85.89.99,2.1v-2.1h-.99Z"/>
          </g>
          <g>
            <path class="cls-1" d="M279.48,25.84v.17c-1.09,0-2.15,1.33-3.32,4.02l-5.01,12.71h-.17l-4.05-10.25.06.16-3.98,10.09h-.17l-5.02-12.73c-1.29-2.93-2.1-4-3.18-4v-.17h6.48v.17c-1.02,0-1.37,1.07-.41,3.69l3.6,9.34,2.6-6.6-.96-2.43c-1.28-2.93-2.1-4-3.18-4v-.17h6.48v.17c-1.02,0-1.37,1.07-.41,3.69l3.6,9.34c1.2-3.03,2.39-6.07,3.59-9.1l.35-.88c.61-1.74.63-3.05-.3-3.05v-.17h3.4Z"/>
            <path class="cls-1" d="M271.24,42.89h-.36l-3.89-9.84-3.88,9.84h-.36l-5.06-12.82c-1.27-2.89-2.07-3.92-3.05-3.92h-.14v-.45h6.76v.45h-.14c-.29,0-.5.1-.64.29-.24.35-.38,1.19.36,3.21l3.47,9,2.45-6.21-.94-2.37c-1.26-2.89-2.06-3.92-3.05-3.92h-.14v-.45h6.76v.45h-.14c-.29,0-.5.1-.64.29-.24.35-.38,1.19.36,3.21l3.47,9c.79-2.01,1.59-4.02,2.38-6.03l1.42-3.61c.45-1.28.55-2.25.27-2.65-.1-.14-.24-.2-.43-.2h-.14v-.45h3.68v.45h-.14c-1,0-2.04,1.29-3.19,3.94l-5.05,12.8ZM255.24,25.98c.85.34,1.61,1.49,2.7,3.98l4.98,12.62,1.31-3.32-3.66-9.51c-.63-1.72-.74-2.88-.33-3.47.09-.13.21-.23.34-.3h-5.35ZM267.05,32.44l4,10.13,1.31-3.32-3.66-9.51c-.63-1.72-.74-2.88-.33-3.47.09-.13.21-.23.34-.3h-5.35c.86.34,1.61,1.49,2.7,3.98l.98,2.48h0s0,0,0,0ZM276.51,25.98c.09.05.16.12.22.21.39.54.17,1.65-.08,2.46.78-1.51,1.51-2.38,2.25-2.67h-2.39Z"/>
          </g>
          <g>
            <path class="cls-1" d="M284.47,42.56h1.8c4.02,0,4.6-2.28,4.99-5.58h.17l-.64,5.7v.04h-10.92v-.17c1.09,0,1.55-.96,1.55-4.35v-7.86c0-3.39-.46-4.35-1.55-4.35v-.17h10.92v.04l.64,5.7h-.17c-.39-3.3-.97-5.58-4.99-5.58h-1.8v16.56ZM303.06,42.69v.04h-10.92v-.17c1.09,0,1.55-.96,1.55-4.35v-3.94h-4.36c-1.46,0-3.24.22-3.24,2.07h-.17v-4.29h.17c0,1.02.49,2.05,2.82,2.05h8.05c2.77,0,3.29-.98,3.29-2.06h.17v4.29h-.17c0-1.09-.52-2.06-3.32-2.06h-.19v8.3h1.8c4.02,0,4.6-2.28,4.99-5.58h.17l-.64,5.7ZM292.14,25.83h10.92v.04l.64,5.7h-.17c-.39-3.3-.97-5.58-4.99-5.58h-1.8v7.97h-3.05v-3.62c0-3.39-.46-4.35-1.55-4.35v-.17Z"/>
            <path class="cls-1" d="M303.2,42.87h-11.2v-.45h.14c.89,0,1.41-.69,1.41-4.21v-3.8h-4.22c-1.44,0-3.09.22-3.09,1.93v.14h-.45v-4.57h.45v.14c0,.82.28,1.91,2.68,1.91h4.64v-3.6c0-3.52-.52-4.21-1.41-4.21h-.14v-.45h11.2v.18l.65,5.84h-.45v-.12c-.4-3.29-.95-5.45-4.87-5.45h-1.66v7.82h.08c2.78,0,3.15-.97,3.15-1.92v-.14h.45v4.57h-.45v-.14c0-.95-.38-1.92-3.18-1.92h-.05v8.02h1.66c3.91,0,4.46-2.16,4.85-5.45v-.12h.46l-.65,6.03ZM299.96,42.59h2.97l.38-3.39c-.43,1.77-1.26,3.02-3.35,3.39ZM292.72,42.59h3.88v-8.35h-2.77v3.97c0,2.74-.3,4.02-1.11,4.38ZM286.05,32.8v2.8c.31-.95,1.23-1.29,2.07-1.41-1.12-.14-1.82-.6-2.07-1.39ZM298.01,34.18c1.27.15,2.01.59,2.27,1.38v-2.76c-.26.79-1,1.23-2.27,1.38ZM293.82,33.82h2.77v-7.86h-3.88c.81.36,1.11,1.64,1.11,4.38v3.48ZM299.95,25.97c2.09.37,2.92,1.62,3.35,3.39l-.38-3.39h-2.97ZM290.93,42.87h-11.2v-.45h.14c.89,0,1.41-.69,1.41-4.21v-7.86c0-3.52-.52-4.21-1.41-4.21h-.14v-.45h11.2v.18l.65,5.84h-.45v-.12c-.4-3.29-.95-5.45-4.87-5.45h-1.66v16.28h1.66c3.91,0,4.46-2.16,4.85-5.45v-.12h.47l-.65,5.86v.16ZM287.69,42.59h2.97l.38-3.4c-.43,1.78-1.26,3.03-3.35,3.4ZM280.45,42.59h3.88v-16.62h-3.88c.81.36,1.11,1.64,1.11,4.38v7.86c0,2.74-.3,4.02-1.11,4.38ZM287.69,25.97c2.09.37,2.92,1.62,3.35,3.39l-.38-3.39h-2.97Z"/>
          </g>
          <g>
            <path class="cls-1" d="M319.22,42.58v.17h-6.15v-.17c1.09,0,1.11-1.15-.1-4.16l-1.34-3.34-1.83,4.34c.1,2.43.58,3.15,1.52,3.15v.17h-6.15v-.17c1.09,0,1.55-.97,1.55-4.36v-7.85c0-3.39-.46-4.35-1.55-4.35v-.17h6.15v.17c-1.09,0-1.55.96-1.55,4.35v7.85c0,.3,0,.57.01.83l4-9.5c.58-1.46.94-3.54-.08-3.54v-.17h3.44v.17c-1.08,0-2.04.79-3.41,4.03-.65,1.56-1.31,3.13-1.97,4.69,1.08-.59,2.59-.29,3.19.82l1.14,2.93s1.26,4.09,3.11,4.09Z"/>
            <path class="cls-1" d="M319.36,42.89h-6.43v-.45h.14c.26,0,.44-.07.54-.23.31-.45.05-1.68-.78-3.74l-1.22-3.02-1.68,4c.11,2.49.61,2.99,1.38,2.99h.14v.45h-6.43v-.45h.14c.89,0,1.41-.69,1.41-4.22v-7.85c0-3.52-.52-4.21-1.41-4.21h-.14v-.45h6.43v.45h-.14c-.89,0-1.41.69-1.41,4.21v7.85c0,.06,0,.11,0,.16l3.74-8.89c.46-1.14.75-2.64.4-3.16-.08-.12-.19-.18-.34-.18h-.14v-.45h3.72v.45h-.14c-.97,0-1.89.67-3.28,3.95-.6,1.43-1.21,2.87-1.81,4.3l-.02.06c1.15-.43,2.49,0,3.05,1.03l1.15,2.95c.14.43,1.35,4,2.98,4h.14v.45ZM313.59,42.6h5.07c-1.49-.6-2.48-3.44-2.68-4.06l-1.14-2.94c-.53-.97-1.93-1.32-3-.75l-.13.07,1.38,3.44c.9,2.24,1.13,3.44.75,4-.07.1-.16.18-.26.24ZM305.75,42.6h4.99c-.65-.3-.97-1.19-1.07-2.92h0s-.02-.63-.02-.63c0-.26-.01-.54-.01-.84v-7.85c0-2.74.3-4.02,1.11-4.38h-4.99c.81.36,1.11,1.64,1.11,4.38v7.85c0,2.74-.3,4.02-1.11,4.39ZM314.1,25.98c.07.05.13.11.19.19.32.47.23,1.47-.04,2.44.84-1.68,1.54-2.39,2.23-2.63h-2.37Z"/>
          </g>
        </g>
      </g>
      <path class="cls-1" d="M10.73,34.29c0-5.2,4.16-9.32,9.32-9.32s9.32,4.16,9.32,9.32-4.16,9.32-9.32,9.32-9.32-4.16-9.32-9.32ZM20.05,42.09c4.32,0,7.8-3.48,7.8-7.8s-3.48-7.8-7.8-7.8-7.8,3.48-7.8,7.8,3.48,7.8,7.8,7.8ZM17.09,29.73h3.36c1.8,0,3.24,1.4,3.24,3.2,0,1.24-.72,2.32-1.8,2.84l1.68,2.72h-1.8l-1.4-2.36h-1.76v2.36h-1.52v-8.76ZM20.45,34.61c.96,0,1.72-.76,1.72-1.68s-.76-1.68-1.72-1.68h-1.84v3.36h1.84Z"/>
      <g>
        <rect class="cls-1" x="309.35" y="-2.34" width="5.17" height="9.84" transform="translate(314.52 -309.35) rotate(90)"/>
        <rect class="cls-1" x="294.41" y="-1.59" width="5.17" height="8.35" transform="translate(294.41 299.58) rotate(-90)"/>
        <rect class="cls-1" x="301.68" y="1.92" width="5.17" height="1.33" transform="translate(301.68 306.85) rotate(-90)"/>
        <rect class="cls-1" x="316.76" y="2.18" width="5.17" height=".81" transform="translate(316.76 321.93) rotate(-90)"/>
        <rect class="cls-1" x="288.72" y="2.18" width="5.17" height=".81" transform="translate(288.72 293.89) rotate(-90)"/>
        <rect class="cls-1" x="237.67" y="-3.1" width="5.17" height="11.38" transform="translate(237.67 242.84) rotate(-90)"/>
        <rect class="cls-1" x="113.44" y="-.26" width="5.17" height="5.69" transform="translate(118.61 -113.44) rotate(90)"/>
        <rect class="cls-1" x="93.2" y=".61" width="5.17" height="3.95" transform="translate(98.36 -93.2) rotate(90)"/>
        <rect class="cls-1" x="100.09" y="2.03" width="5.17" height="1.11" transform="translate(105.26 -100.09) rotate(90)"/>
        <rect class="cls-1" x="54.71" y="2.03" width="5.17" height="1.11" transform="translate(54.71 59.88) rotate(-90)"/>
        <rect class="cls-1" x="102.46" y="2.03" width="5.17" height="1.11" transform="translate(107.63 -102.46) rotate(90)"/>
        <rect class="cls-1" x="118.95" y=".9" width="5.17" height="3.38" transform="translate(124.12 -118.95) rotate(90)"/>
        <rect class="cls-1" x="124.46" y="1.59" width="5.17" height="1.98" transform="translate(129.63 -124.46) rotate(90)"/>
        <rect class="cls-1" x="97.34" y="2.03" width="5.17" height="1.11" transform="translate(102.51 -97.34) rotate(90)"/>
        <rect class="cls-1" x="32.66" y="-1.68" width="5.17" height="8.53" transform="translate(32.66 37.83) rotate(-90)"/>
        <rect class="cls-1" x="38.17" y="2.03" width="5.17" height="1.11" transform="translate(38.17 43.34) rotate(-90)"/>
        <rect class="cls-1" x="60.23" y="2.24" width="5.17" height=".68" transform="translate(60.23 65.4) rotate(-90)"/>
        <rect class="cls-1" x="107.98" y="2.24" width="5.17" height=".68" transform="translate(113.15 -107.98) rotate(90)"/>
        <rect class="cls-1" x="21.63" y=".32" width="5.17" height="4.53" transform="translate(21.63 26.8) rotate(-90)"/>
        <rect class="cls-1" x="49.2" y="1.25" width="5.17" height="2.66" transform="translate(49.2 54.37) rotate(-90)"/>
        <rect class="cls-1" x="43.69" y="2.03" width="5.17" height="1.11" transform="translate(43.69 48.86) rotate(-90)"/>
        <rect class="cls-1" x="79.5" y="2.17" width="5.17" height=".84" transform="translate(84.67 -79.5) rotate(90)"/>
        <rect class="cls-1" x="83.1" y="2.17" width="5.17" height=".84" transform="translate(88.27 -83.1) rotate(90)"/>
        <rect class="cls-1" x="62.52" y="2.17" width="5.17" height=".84" transform="translate(67.69 -62.52) rotate(90)"/>
        <rect class="cls-1" x="87.61" y=".45" width="5.17" height="4.27" transform="translate(92.78 -87.61) rotate(90)"/>
        <rect class="cls-1" x="16.12" y="1.1" width="5.17" height="2.96" transform="translate(21.29 -16.12) rotate(90)"/>
        <rect class="cls-1" x="5.36" y=".07" width="5.17" height="5.02" transform="translate(10.53 -5.36) rotate(90)"/>
        <rect class="cls-1" x="211.82" y="-1.28" width="5.17" height="7.74" transform="translate(216.99 -211.82) rotate(90)"/>
        <rect class="cls-1" x="74.18" y="2.17" width="5.17" height=".83" transform="translate(79.35 -74.18) rotate(90)"/>
        <rect class="cls-1" x="222.24" y="2.17" width="5.17" height=".83" transform="translate(227.41 -222.24) rotate(90)"/>
        <rect class="cls-1" x="219.69" y="2.17" width="5.17" height=".83" transform="translate(224.86 -219.69) rotate(90)"/>
        <rect class="cls-1" x="65.74" y="1.32" width="5.17" height="2.53" transform="translate(70.91 -65.74) rotate(90)"/>
        <rect class="cls-1" x="71.25" y="1.84" width="5.17" height="1.49" transform="translate(76.42 -71.25) rotate(90)"/>
        <rect class="cls-1" x="76.77" y="2.17" width="5.17" height=".83" transform="translate(81.94 -76.77) rotate(90)"/>
        <rect class="cls-1" x="140.18" y="-.62" width="5.17" height="6.41" transform="translate(145.34 -140.18) rotate(90)"/>
        <rect class="cls-1" x="134.66" y="2.17" width="5.17" height=".83" transform="translate(139.83 -134.66) rotate(90)"/>
        <rect class="cls-1" x="145.69" y="2.33" width="5.17" height=".51" transform="translate(150.86 -145.69) rotate(90)"/>
        <rect class="cls-1" x="132.55" y="2.33" width="5.17" height=".51" transform="translate(137.72 -132.55) rotate(90)"/>
        <rect class="cls-1" x="129.15" y=".89" width="5.17" height="3.4" transform="translate(134.32 -129.15) rotate(90)"/>
        <rect class="cls-1" x="1.31" y="2.17" width="5.17" height=".83" transform="translate(6.48 -1.31) rotate(90)"/>
        <rect class="cls-1" x="197.02" y="2.27" width="5.17" height=".63" transform="translate(202.18 -197.02) rotate(90)"/>
        <rect class="cls-1" x="218.05" y="2.27" width="5.17" height=".63" transform="translate(223.22 -218.05) rotate(90)"/>
        <rect class="cls-1" x="10.6" y="2.27" width="5.17" height=".63" transform="translate(15.77 -10.6) rotate(90)"/>
        <rect class="cls-1" x="150.37" y=".54" width="5.17" height="4.1" transform="translate(150.37 155.54) rotate(-90)"/>
        <rect class="cls-1" x="-1.76" y="1.76" width="5.17" height="1.65" transform="translate(3.41 1.76) rotate(90)"/>
        <rect class="cls-1" x="250.6" y="1.76" width="5.17" height="1.65" transform="translate(255.77 -250.6) rotate(90)"/>
        <rect class="cls-1" x="203.13" y="-1.68" width="5.17" height="8.53" transform="translate(203.13 208.3) rotate(-90)"/>
        <rect class="cls-1" x="247.35" y="2.03" width="5.17" height="1.11" transform="translate(247.35 252.52) rotate(-90)"/>
        <rect class="cls-1" x="261.63" y="2.24" width="5.17" height=".68" transform="translate(261.63 266.8) rotate(-90)"/>
        <rect class="cls-1" x="253.6" y="2.24" width="5.17" height=".68" transform="translate(253.6 258.77) rotate(-90)"/>
        <rect class="cls-1" x="263.87" y="1.25" width="5.17" height="2.66" transform="translate(263.87 269.04) rotate(-90)"/>
        <rect class="cls-1" x="256.82" y="2.03" width="5.17" height="1.11" transform="translate(256.82 261.99) rotate(-90)"/>
        <rect class="cls-1" x="226.46" y="-.09" width="5.17" height="5.35" transform="translate(231.63 -226.46) rotate(90)"/>
        <rect class="cls-1" x="190.27" y="-.09" width="5.17" height="5.35" transform="translate(195.44 -190.27) rotate(90)"/>
        <rect class="cls-1" x="174.85" y=".73" width="5.17" height="3.71" transform="translate(180.01 -174.85) rotate(90)"/>
        <rect class="cls-1" x="278.33" y=".58" width="5.17" height="4.01" transform="translate(278.33 283.5) rotate(-90)"/>
        <rect class="cls-1" x="283.2" y="1.41" width="5.17" height="2.35" transform="translate(283.2 288.37) rotate(-90)"/>
        <rect class="cls-1" x="159.05" y="2.17" width="5.17" height=".83" transform="translate(164.22 -159.05) rotate(90)"/>
        <rect class="cls-1" x="164.56" y="2.17" width="5.17" height=".83" transform="translate(169.73 -164.56) rotate(90)"/>
        <rect class="cls-1" x="170.07" y="2.17" width="5.17" height=".83" transform="translate(175.24 -170.07) rotate(90)"/>
        <rect class="cls-1" x="155.88" y="1.32" width="5.17" height="2.53" transform="translate(161.05 -155.88) rotate(90)"/>
        <rect class="cls-1" x="161.39" y="1.84" width="5.17" height="1.49" transform="translate(166.56 -161.39) rotate(90)"/>
        <rect class="cls-1" x="166.91" y="2.17" width="5.17" height=".83" transform="translate(172.08 -166.91) rotate(90)"/>
        <rect class="cls-1" x="272.82" y=".89" width="5.17" height="3.4" transform="translate(272.82 277.98) rotate(-90)"/>
        <rect class="cls-1" x="267.3" y="1.59" width="5.17" height="2" transform="translate(267.3 272.47) rotate(-90)"/>
        <rect class="cls-1" x="259.33" y="2.17" width="5.17" height=".83" transform="translate(259.33 264.5) rotate(-90)"/>
        <rect class="cls-1" x="245.09" y="2.19" width="5.17" height=".79" transform="translate(250.26 -245.09) rotate(90)"/>
        <rect class="cls-1" x="180.41" y="2.19" width="5.17" height=".79" transform="translate(185.58 -180.41) rotate(90)"/>
        <rect class="cls-1" x="185.93" y="2.19" width="5.17" height=".79" transform="translate(191.1 -185.93) rotate(90)"/>
      </g>
      <g>
        <rect class="cls-1" x="309.35" y="61.29" width="5.17" height="9.84" transform="translate(378.15 -245.72) rotate(90)"/>
        <rect class="cls-1" x="294.41" y="62.04" width="5.17" height="8.35" transform="translate(230.78 363.21) rotate(-90)"/>
        <rect class="cls-1" x="301.68" y="65.55" width="5.17" height="1.33" transform="translate(238.05 370.48) rotate(-90)"/>
        <rect class="cls-1" x="316.76" y="65.81" width="5.17" height=".81" transform="translate(253.13 385.56) rotate(-90)"/>
        <rect class="cls-1" x="288.72" y="65.81" width="5.17" height=".81" transform="translate(225.09 357.52) rotate(-90)"/>
        <rect class="cls-1" x="237.67" y="60.53" width="5.17" height="11.38" transform="translate(174.04 306.47) rotate(-90)"/>
        <rect class="cls-1" x="113.44" y="63.37" width="5.17" height="5.69" transform="translate(182.24 -49.81) rotate(90)"/>
        <rect class="cls-1" x="93.2" y="64.24" width="5.17" height="3.95" transform="translate(161.99 -29.56) rotate(90)"/>
        <rect class="cls-1" x="100.09" y="65.66" width="5.17" height="1.11" transform="translate(168.89 -36.46) rotate(90)"/>
        <rect class="cls-1" x="54.71" y="65.66" width="5.17" height="1.11" transform="translate(-8.92 123.51) rotate(-90)"/>
        <rect class="cls-1" x="102.46" y="65.66" width="5.17" height="1.11" transform="translate(171.26 -38.83) rotate(90)"/>
        <rect class="cls-1" x="118.95" y="64.53" width="5.17" height="3.38" transform="translate(187.75 -55.32) rotate(90)"/>
        <rect class="cls-1" x="124.46" y="65.22" width="5.17" height="1.98" transform="translate(193.26 -60.83) rotate(90)"/>
        <rect class="cls-1" x="97.34" y="65.66" width="5.17" height="1.11" transform="translate(166.14 -33.71) rotate(90)"/>
        <rect class="cls-1" x="32.66" y="61.95" width="5.17" height="8.53" transform="translate(-30.97 101.46) rotate(-90)"/>
        <rect class="cls-1" x="38.17" y="65.66" width="5.17" height="1.11" transform="translate(-25.46 106.97) rotate(-90)"/>
        <rect class="cls-1" x="60.23" y="65.87" width="5.17" height=".68" transform="translate(-3.4 129.03) rotate(-90)"/>
        <rect class="cls-1" x="107.98" y="65.87" width="5.17" height=".68" transform="translate(176.78 -44.35) rotate(90)"/>
        <rect class="cls-1" x="21.63" y="63.95" width="5.17" height="4.53" transform="translate(-42 90.43) rotate(-90)"/>
        <rect class="cls-1" x="49.2" y="64.88" width="5.17" height="2.66" transform="translate(-14.43 118) rotate(-90)"/>
        <rect class="cls-1" x="43.69" y="65.66" width="5.17" height="1.11" transform="translate(-19.94 112.49) rotate(-90)"/>
        <rect class="cls-1" x="79.5" y="65.8" width="5.17" height=".84" transform="translate(148.3 -15.87) rotate(90)"/>
        <rect class="cls-1" x="83.1" y="65.8" width="5.17" height=".84" transform="translate(151.9 -19.47) rotate(90)"/>
        <rect class="cls-1" x="62.52" y="65.8" width="5.17" height=".84" transform="translate(131.32 1.11) rotate(90)"/>
        <rect class="cls-1" x="87.61" y="64.08" width="5.17" height="4.27" transform="translate(156.41 -23.98) rotate(90)"/>
        <rect class="cls-1" x="16.12" y="64.73" width="5.17" height="2.96" transform="translate(84.92 47.51) rotate(90)"/>
        <rect class="cls-1" x="5.36" y="63.7" width="5.17" height="5.02" transform="translate(74.16 58.27) rotate(90)"/>
        <rect class="cls-1" x="211.82" y="62.35" width="5.17" height="7.74" transform="translate(280.62 -148.19) rotate(90)"/>
        <rect class="cls-1" x="74.18" y="65.8" width="5.17" height=".83" transform="translate(142.98 -10.55) rotate(90)"/>
        <rect class="cls-1" x="222.24" y="65.8" width="5.17" height=".83" transform="translate(291.04 -158.61) rotate(90)"/>
        <rect class="cls-1" x="219.69" y="65.8" width="5.17" height=".83" transform="translate(288.49 -156.06) rotate(90)"/>
        <rect class="cls-1" x="65.74" y="64.95" width="5.17" height="2.53" transform="translate(134.54 -2.11) rotate(90)"/>
        <rect class="cls-1" x="71.25" y="65.47" width="5.17" height="1.49" transform="translate(140.05 -7.62) rotate(90)"/>
        <rect class="cls-1" x="76.77" y="65.8" width="5.17" height=".83" transform="translate(145.57 -13.14) rotate(90)"/>
        <rect class="cls-1" x="140.18" y="63.01" width="5.17" height="6.41" transform="translate(208.98 -76.55) rotate(90)"/>
        <rect class="cls-1" x="134.66" y="65.8" width="5.17" height=".83" transform="translate(203.46 -71.03) rotate(90)"/>
        <rect class="cls-1" x="145.69" y="65.96" width="5.17" height=".51" transform="translate(214.49 -82.06) rotate(90)"/>
        <rect class="cls-1" x="132.55" y="65.96" width="5.17" height=".51" transform="translate(201.35 -68.92) rotate(90)"/>
        <rect class="cls-1" x="129.15" y="64.52" width="5.17" height="3.4" transform="translate(197.95 -65.52) rotate(90)"/>
        <rect class="cls-1" x="1.31" y="65.8" width="5.17" height=".83" transform="translate(70.11 62.32) rotate(90)"/>
        <rect class="cls-1" x="197.02" y="65.9" width="5.17" height=".63" transform="translate(265.81 -133.38) rotate(90)"/>
        <rect class="cls-1" x="218.05" y="65.9" width="5.17" height=".63" transform="translate(286.85 -154.42) rotate(90)"/>
        <rect class="cls-1" x="10.6" y="65.9" width="5.17" height=".63" transform="translate(79.4 53.03) rotate(90)"/>
        <rect class="cls-1" x="150.37" y="64.17" width="5.17" height="4.1" transform="translate(86.74 219.17) rotate(-90)"/>
        <rect class="cls-1" x="-1.76" y="65.39" width="5.17" height="1.65" transform="translate(67.04 65.39) rotate(90)"/>
        <rect class="cls-1" x="250.6" y="65.39" width="5.17" height="1.65" transform="translate(319.4 -186.97) rotate(90)"/>
        <rect class="cls-1" x="203.13" y="61.95" width="5.17" height="8.53" transform="translate(139.5 271.93) rotate(-90)"/>
        <rect class="cls-1" x="247.35" y="65.66" width="5.17" height="1.11" transform="translate(183.72 316.15) rotate(-90)"/>
        <rect class="cls-1" x="261.63" y="65.87" width="5.17" height=".68" transform="translate(198 330.43) rotate(-90)"/>
        <rect class="cls-1" x="253.6" y="65.87" width="5.17" height=".68" transform="translate(189.97 322.4) rotate(-90)"/>
        <rect class="cls-1" x="263.87" y="64.88" width="5.17" height="2.66" transform="translate(200.24 332.67) rotate(-90)"/>
        <rect class="cls-1" x="256.82" y="65.66" width="5.17" height="1.11" transform="translate(193.19 325.62) rotate(-90)"/>
        <rect class="cls-1" x="226.46" y="63.54" width="5.17" height="5.35" transform="translate(295.26 -162.83) rotate(90)"/>
        <rect class="cls-1" x="190.27" y="63.54" width="5.17" height="5.35" transform="translate(259.07 -126.64) rotate(90)"/>
        <rect class="cls-1" x="174.85" y="64.36" width="5.17" height="3.71" transform="translate(243.64 -111.22) rotate(90)"/>
        <rect class="cls-1" x="278.33" y="64.21" width="5.17" height="4.01" transform="translate(214.7 347.13) rotate(-90)"/>
        <rect class="cls-1" x="283.2" y="65.04" width="5.17" height="2.35" transform="translate(219.57 352) rotate(-90)"/>
        <rect class="cls-1" x="159.05" y="65.8" width="5.17" height=".83" transform="translate(227.85 -95.42) rotate(90)"/>
        <rect class="cls-1" x="164.56" y="65.8" width="5.17" height=".83" transform="translate(233.36 -100.93) rotate(90)"/>
        <rect class="cls-1" x="170.07" y="65.8" width="5.17" height=".83" transform="translate(238.87 -106.44) rotate(90)"/>
        <rect class="cls-1" x="155.88" y="64.95" width="5.17" height="2.53" transform="translate(224.68 -92.25) rotate(90)"/>
        <rect class="cls-1" x="161.39" y="65.47" width="5.17" height="1.49" transform="translate(230.19 -97.76) rotate(90)"/>
        <rect class="cls-1" x="166.91" y="65.8" width="5.17" height=".83" transform="translate(235.71 -103.28) rotate(90)"/>
        <rect class="cls-1" x="272.82" y="64.52" width="5.17" height="3.4" transform="translate(209.19 341.61) rotate(-90)"/>
        <rect class="cls-1" x="267.3" y="65.22" width="5.17" height="2" transform="translate(203.67 336.1) rotate(-90)"/>
        <rect class="cls-1" x="259.33" y="65.8" width="5.17" height=".83" transform="translate(195.7 328.13) rotate(-90)"/>
        <rect class="cls-1" x="245.09" y="65.82" width="5.17" height=".79" transform="translate(313.89 -181.46) rotate(90)"/>
        <rect class="cls-1" x="180.41" y="65.82" width="5.17" height=".79" transform="translate(249.21 -116.78) rotate(90)"/>
        <rect class="cls-1" x="185.93" y="65.82" width="5.17" height=".79" transform="translate(254.73 -122.3) rotate(90)"/>
      </g>
    </g>
  </g>
</svg>