<?xml version="1.0" encoding="UTF-8"?>
<svg id="Layer_2" data-name="Layer 2" xmlns="http://www.w3.org/2000/svg" viewBox="0 0 25.99 15.58">
  <defs>
    <style>
      .cls-1 {
        fill: none;
        stroke: #e15e23;
        stroke-miterlimit: 10;
        stroke-width: .1px;
      }

      .cls-2 {
        fill: #e15e23;
        stroke-width: 0px;
      }
    </style>
  </defs>
  <g id="Isolation_Mode" data-name="Isolation Mode">
    <g>
      <rect class="cls-2" x=".13" y="12.88" width="25.86" height="2.7"/>
      <g>
        <path class="cls-1" d="M10.41,2.08c-.13-.14-.31-.33-.45-.47-.04-.04-.09-.07-.14-.11,0,0,0,0,0,0h0s0,0,0,0h0c.34.3.37.33.58.56M9.79,1.48h0s0,0,0,.01c.05.03.1.07.13.11l-.21-.18.06.07h0M10.58,2.36s0,0-.01,0c-.02-.05-.04-.11-.07-.16v.02s.07.1.09.15M9.77,1.48s-.02-.02-.02-.02t.01,0h0s0,0,0,0h0s0,0,0,0h0s0,0,0,0l-.06-.07.24.21c.15.15.34.35.48.5-.32-.35-.33-.36-.61-.59h0s0,0,0,0h0s0,0,0,0h0s0,0,0,0c-.02-.01-.04-.03-.05-.04"/>
        <path class="cls-1" d="M1.98,1.89s0-.01.01-.02l.06.1s-.01,0-.02,0l-.05-.09M8.75,1.09c.43.26.47.29.82.54,0,0,.02,0,.05.02.08-.12.08-.12.07-.21h0s0,0,0,0c0,0,0,0-.01,0-.24-.13-.56-.25-.93-.34h0s0,0,0,0h0s0,0,0,0h0s0,0,0,0M8.22,1.31s.06,0,.07.01c.2-.11.25-.14.39-.24h0s0,0,0,0h0s0,0,0,0h0c-.38-.09-.82-.17-1.28-.21h0s0,0,0,0h0s0,0,0,0c.38.19.47.24.84.44M6.55,1.15s.07,0,.08,0q.63-.29.66-.3h0s0,0,0,0c0,0,0,0,0,0-.47-.04-.97-.07-1.47-.06h0s0,0,0,0h0s0,0,0,0h0c.32.15.41.19.75.36M4.77,1.18s.06-.02.09,0c.41-.19.47-.21.86-.38h0s0,0,0,0h0s0,0,0,0h0c-.5,0-1.01.04-1.49.1h0s0,0,0,0h0s0,0,0,0q.2.1.57.28M3.11,1.4s.06-.02.07-.02c.42-.23.49-.27.93-.48h0s0,0,0,0h0s0,0,0,0c-.48.06-.89.15-1.23.25h0s0,0,0,0h0s0,0,0,0h0c.1.12.1.13.25.24M8.73,1.07h0s0,0,0,0h0s0,0,0,0c.37.09.69.21.93.34,0,0,0,0,0,0h0s0,0,0,0h0c-.4-.29-.42-.3-.77-.51h0s-.01,0-.04-.02c-.03.08-.03.09-.13.18h0M7.37.84h0s0,0,0,0c.46.05.9.12,1.28.21h0s0,0,0,0h0s0,0,0,0c-.4-.22-.45-.25-.81-.41h0s-.02,0-.05,0c-.16.09-.18.1-.42.21h0M5.81.77h0s0,0,0,0h0s0,0,0,0c.5,0,.99.02,1.46.06h0s0,0,0,0h0s0,0,0,0c-.38-.18-.42-.2-.74-.33h0s-.03,0-.06,0c-.28.11-.39.15-.67.27h0M4.22.87h0s0,0,0,0c.48-.06.98-.09,1.48-.1h0s0,0,0,0h0s0,0,0,0h0q-.32-.15-.58-.26h0s-.05,0-.06,0c-.34.13-.45.17-.85.35h0M2.89,1.13h0s0,0,0,0h0s0,0,0,0c.34-.1.75-.19,1.23-.25,0,0,0,0,0,0,0,0,0,0,0,0h0s0,0,0,0h0c-.19-.11-.23-.12-.33-.2h0s-.04.01-.05.01c-.37.18-.47.22-.85.45h0M7.84.62s.01.01.02.02c.37.17.45.21.81.41h0s0,0,0,0h0s0,0,0,0h0s0,0,0,0h0s0,0,0,0h0s0,0,0,0h0s0,0,0,0h0s0,0,0,0h0s0,0,0,0c.11-.1.11-.1.13-.18,0,0-.02-.01-.03-.02-.42-.22-.43-.23-.78-.37h0s0,0,0,0h0s0,0,0,0h0s0,0,0,0h0s0,0,0,0h0s0,0,0,0h0s0,0,0,0h0s0,0,0,0c-.05.06-.05.06-.17.14,0,0,0,0,0,0M6.55.48s0,0,0,.01c.32.13.4.17.74.33h0s0,0,0,0h0s0,0,0,0h0s.02,0,.03,0h0s0,0,0,0h0s0,0,0,0c.21-.1.27-.13.43-.21,0,0-.01,0-.02-.02-.37-.16-.42-.18-.73-.29h0s0,0,0,0h-.01s0,0-.02,0h0s0,0,0,0h0q-.12.04-.44.17s0,0,0,0M5.16.49s0,0,0,.01c.21.09.33.14.58.26h0s0,0,0,0h0s0,0,0,0h0s0,0,0,0h0s0,0,0,0h0s0,0,0,0h0s0,0,0,0h0s0,0,0,0h0s0,0,0,0c.35-.14.37-.15.67-.27,0,0,0,0,0-.01,0,0,0,0,0,0-.31-.12-.34-.13-.59-.22h0s0,0,0,0h0s0,0,0,0h0s0,0,0,0h0s0,0,0,0h0s0,0,0,0h0s0,0,0,0h0s0,0,0,0h0c-.26.08-.34.11-.67.23,0,0,0,0,0,0M3.83.65s0,0-.02.02c.12.09.14.1.34.2h0s0,0,0,0h0s0,0,0,0h0s.02,0,.03,0h0s0,0,0,0h0s0,0,0,0c.4-.18.47-.2.85-.35,0,0,0,0,0,0,0,0,0,0,0,0-.19-.08-.26-.11-.37-.16h0s0,0,0,0h0s0,0,0,0h0s0,0,0,0c0,0-.01,0-.02,0h0s0,0,0,0h0c-.33.12-.43.15-.82.32,0,0,0,0,0,0M8.81.85h0s.01,0,.04.02c-.03-.07-.03-.07-.1-.11l-.13-.07c-.16-.08-.36-.15-.59-.21h0s0,0,0,0h0s0,0,0,0h0c.4.18.43.19.77.37M7.76.6h0s.02,0,.05,0c.12-.08.13-.08.17-.14h0s0,0,0,0h0s0,0,0,0h0c-.28-.07-.59-.12-.93-.16h0s0,0,0,0h0s0,0,0,0c.17.06.39.14.55.21.05.02.12.07.17.07M6.47.47h0s.03,0,.06,0q.35-.13.44-.17h0s0,0,0,0c0,0,0,0,0,0-.34-.03-.7-.05-1.07-.05h0s0,0,0,0h0s0,0,0,0h0c.13.05.31.11.44.16.04.02.1.05.14.06M5.08.49h0s.04-.01.06,0c.33-.12.38-.14.67-.23h0s0,0,0,0h0s0,0,0,0h0c-.37,0-.74.02-1.09.07,0,0,0,0,0,0h0s0,0,0,0h0c.27.12.37.16.37.16M3.78.66h0s.04-.01.05-.01c.37-.16.44-.19.81-.31h0s0,0,0,0h0s-.03,0-.04,0c-.34.05-.63.11-.87.18h0s0,0,0,0h0s0,0,0,0h0c0,.06,0,.07.06.14M8.01.47h0s0,0,0,0h0s0,0,0,0c.23.06.42.13.58.21-.15-.07-.34-.16-.49-.22l-.17-.07c.07.04.07.04.07.07h0M7.02.3h0s0,0,0,0c.34.04.65.09.93.16h0s0,0,0,0h0s0,0,0,0h0c-.29-.11-.46-.17-.75-.25-.05.03-.06.03-.18.09h0M5.89.24h0s0,0,0,0h0s0,0,0,0c.36,0,.72.02,1.06.05h0s0,0,0,0h0s0,0,0,0c-.4-.13-.44-.13-.62-.17-.16.04-.21.05-.45.12h0M4.73.31h0s0,0,0,0c.35-.04.72-.06,1.08-.07h0s0,0,0,0h0s0,0,0,0h0q-.26-.08-.43-.11c-.26.06-.33.08-.67.18h0M3.75.5h0s0,0,0,0h0s0,0,0,0c.24-.07.53-.13.87-.18.01,0,.03,0,.04,0,0,0,0,0,0,0h0s0,0,0,0h0c-.11-.06-.11-.06-.12-.09-.03,0-.04,0-.04,0-.38.11-.4.12-.76.26h0M7.23.21s.02,0,.02,0c.36.11.39.11.71.24h0s0,0,0,0h0s0,0,0,0c0,0,0,0,0,0h0s0,0,0,0h0s0,0,0,0h0s0,0,0,0h0s0,0,0,0c-.01-.05-.01-.05-.07-.07-.11-.03-.25-.08-.35-.11-.11-.03-.25-.06-.36-.09,0,0,.01,0,.02.01,0,0,0,0,0,0,0,0,0,0,0,0M6.38.11s0,0,0,0c.25.06.3.08.58.17h0s0,0,0,0h0s.01,0,.02,0h0s0,0,0,0h0c.11-.05.14-.06.19-.09,0,0-.02,0-.02,0-.33-.08-.34-.08-.57-.11h-.02s0,0,0,0h0s-.06,0-.19.03c0,0,0,0,0,0M5.46.11s0,0,0,0c.14.04.19.05.38.12h0s0,0,0,0h0s0,0,0,0h0s0,0,0,0h0s0,0,0,0h0s0,0,0,0h0s0,0,0,0h0s0,0,0,0c.23-.07.27-.08.45-.12,0,0,0,0,0,0-.21-.04-.25-.05-.39-.06h-.01s0,0,0,0h0s0,0,0,0h0c-.16.01-.21.02-.45.06h0M4.58.22s0,0-.02,0c.02.04.02.04.12.08h0s0,0,0,0h0s0,0,0,0h0s.01,0,.02,0h0s0,0,0,0h0c.22-.07.45-.11.68-.19-.1-.02-.12-.03-.14-.03h-.08c-.51.09-.6.13-.6.13M7.17.2s.02,0,.04,0c0,0,0,0,0-.01,0,0,0,0-.01,0h-.04q-.23-.05-.34-.07c-.06,0-.14-.02-.19-.03.13.02.31.05.44.08.03,0,.08.03.11.03M6.33.11s.04,0,.04,0c.12-.02.14-.03.19-.03h-.04s-.07-.01-.07-.01c-.16-.01-.33-.02-.51-.02h0s0,0,0,0h0c.08,0,.2.02.28.04.03,0,.07.02.1.02M5.41.12s.03,0,.04,0c.26-.05.27-.05.45-.06h0s0,0,0,0h0c-.15,0-.3,0-.45.02-.05,0-.12.01-.18.02.05,0,.09.03.14.03M4.55.22s.04,0,.04,0c.34-.08.35-.08.58-.12h-.02c-.28.05-.29.05-.58.11,0,0-.01,0-.02.01M5.94.05h0s0,0,0,0h0c.14,0,.29,0,.43.02h-.12q-.15-.01-.26-.02h-.03s-.01,0-.01,0h0M5.9.05h0s0,0,0,0h0-.01s-.12,0-.17,0c-.06,0-.13,0-.19,0,.12,0,.24-.01.36-.01M5.91.05h.03-.04,0M3.42.62s0,0,.01,0c.08-.03.16-.06.26-.09h0s0,0,0,0h0s0,0,0,0h0s.06-.05.09-.06h.01s-.07.03-.09.06h0s0,0,0,0h0s0,0,0,0h0s0,0,0,0h0s0,0,0,0h0s0,0,0,0h0s0,0,0,0h0s0,0,0,0h0c.34-.13.41-.16.76-.26l.04-.02c.25-.06.31-.07.59-.11q.21-.02.31-.03t.28-.02.26,0,.26,0c.18.01.18.01.27.02.19.02.2.02.3.04.22.03.22.04.34.06.25.06.27.06.41.1.31.09.34.1.54.18.39.16.42.18.66.31.08.06.09.06.1.11.39.24.48.29.8.53h0s0,0,0,0h0s0,0,0,0c.02.02.04.04.06.06h0s0,0,0,0h0s0,0,0,0h0s0,0,0,0h0c0,.09,0,.1-.07.21.16.13.37.31.53.45,0,0-.01,0-.02,0-.15-.13-.34-.29-.49-.41-.01,0-.03,0-.04-.01-.06.05-.14.11-.2.16,0,0-.02,0-.02,0,.06-.05.14-.12.2-.17q-.43-.32-.84-.57h0s0,0,0,0h0s0,0,0,0h0s0,0,0,0h0s0,0,0,0h0s0,0,0,0h0s0,0,0,0h0s0,0,0,0h0s0,0,0,0c-.14.1-.17.12-.39.24.18.12.41.27.59.38,0,0-.02,0-.03,0-.16-.11-.39-.25-.55-.35-.03,0-.13.02-.45.19-.01,0-.02,0-.03,0,.12-.06.28-.14.4-.2q-.42-.26-.85-.47h0s0,0,0,0h0s0,0,0,0h-.01s-.03,0-.03,0h0s0,0,0,0h0c-.22.1-.44.2-.66.3.17.1.39.23.56.32-.01,0-.02,0-.03,0-.16-.09-.38-.2-.54-.29q-.14.02-.61.24s-.02,0-.03,0c.16-.08.38-.18.55-.25q-.35-.2-.75-.39h0s0,0,0,0h0s0,0,0,0h0s0,0,0,0h0s0,0,0,0h0s0,0,0,0h0s0,0,0,0h0s0,0,0,0h0s0,0,0,0h0c-.33.14-.45.19-.86.38.14.08.33.19.48.27-.01,0-.02,0-.03,0-.14-.07-.32-.16-.46-.23q-.19.05-.7.32s-.02,0-.03,0c.19-.1.44-.23.64-.32q-.22-.14-.57-.31h0s0,0,0,0h0s0,0,0,0h0s0,0,0,0h-.02s0,0,0,0h0c-.4.19-.51.24-.94.48.09.07.21.16.3.22-.01,0-.02,0-.03,0-.09-.06-.22-.13-.31-.19-.18.07-.52.3-.65.39,0,0-.02,0-.03,0,.18-.12.42-.28.6-.39-.08-.09-.17-.17-.24-.27h0s0,0,0,0h0s0,0,0,0h0s0,0,0,0h0s0,0,0,0h0s0,0,0,0h0s0,0,0,0h0s0,0,0,0c-.18.12-.42.27-.59.4,0,0,0-.01.01-.02.17-.12.4-.27.57-.39h0s0,0,0,0h0s0,0,0,0h0c-.11.03-.22.07-.31.11,0,0,0,0,.01-.01.09-.04.2-.08.31-.11h0s0,0,0,0h0s0,0,0,0h0s-.02-.1-.02-.15c0,0,.01,0,.02-.01,0,.04,0,.11.02.15h0s0,0,0,0h0s0,0,0,0h0s0,0,0,0h0s0,0,0,0c0,0,0,0,0,0h0s0,0,0,0h0s0,0,0,0h0s0,0,0,0h0s0,0,0,0c.38-.22.45-.26.86-.45q-.05-.12-.04-.16h0s0,0,0,0h0s0,0,0,0h0s0,0,0,0h0s0,0,0,0h0s0,0,0,0h0s0,0,0,0h0s0,0,0,0c-.37.17-.4.18-.63.3,0,0,.01,0,.02-.01.38-.2.39-.2.61-.3h0s0,0,0,0h0s0,0,0,0h0c-.09.03-.18.06-.26.09"/>
        <path class="cls-1" d="M2.36,9.12s-.01,0-.02,0v-.09s.02.01.02.02v.06M1.48,9.7h0s0,0,0,0h0s0,0,0,0c-.06-.15-.01-.3.12-.44,0,0,0,0,0,0h0s0,0,0,0h0c-.3-.16-.32-.18-.52-.31h0s0,0,0,0c0,.02,0,.02,0,.02,0,0,0,0,0,0,.18.39.18.4.41.73h0M1.51,9.74h0s0,0,0,0h0s0,0,0,0h0s-.11-.1-.15-.15l.14.17.13.14c-.05-.05-.08-.1-.11-.15M1.05,8.89s.02.02.02.03c.23.15.26.17.53.31h0s0,0,0,0h0s0,0,0,0h0s0,0,.01,0h0s0,0,0,0h0c-.08-.38-.08-.39-.07-.75,0,0-.02-.02-.02-.04-.3-.17-.37-.21-.61-.36h0s0,0,0,0h0s0,0,0,0h0s0,0,0,0c0,0,0,0-.01,0h0c.07.69.15.8.16.81M1.48,9.71h0s0,0,0,0h0s0,0,0,0h0s0,0,0,0h0s0,0,0,0h0s0,0,0,0h0s0,0,0,0h0s0,0,0,0h0s0,0,0,0c-.05-.08-.13-.18-.17-.26-.09-.17-.17-.34-.26-.51-.2-.16-.22-.17-.32-.31h0s0,0,0,0h0s0,0,0,0h0s0,0,0,0h0s0,0,0,0h0s0,0,0,0h0s0,0,0,0h0s0,0,0,0h0s.13.23.13.23l.07.11c.12.18.28.41.41.58.04.05.1.11.15.15M1.04,8.91h0s0,0,0,0c0-.01,0-.01,0-.02,0,0,0,0,0,0,0,0,0,0,0,0-.12-.41-.13-.42-.16-.8h0s0,0,0,0t0,0c-.17.17-.22.34-.17.52h0s0,0,0,0h0s0,0,0,0h0c.14.17.14.17.32.31M.72,8.63h0s0,0,0,0h0s0,0,0,0h0s.01.03.02.04l.1.17-.11-.21M.69,8.56h0s0,0,0,0h0s0,0,0,0c0,0,0,0,0,0-.06-.18,0-.35.17-.52,0,0,0,0,0,0h0s0-.01,0-.01h0c-.25-.19-.27-.2-.42-.35,0,.02,0,.02,0,.03,0,0,0,0,0,0,.09.45.1.46.26.85h0M.71,8.61h0s0,0,0,0h0s0,0,0,0h0s0,0,0,0l-.03-.05.06.12s-.02-.03-.02-.05M.42,7.62s.01.03.01.04c.17.17.2.2.43.36h0s0,0,0,0h0s0,0,0,0h0s0,0,.02,0h0c.02-.44.02-.45.11-.86,0,0-.01-.02-.01-.04-.26-.18-.33-.23-.52-.4h0s0,0,0,0h0s0,0,0,0h0s0,0,0,0c0,0,0,0-.01,0h0c-.08.74-.03.88-.02.9M.69,8.57h0s0,0,0,0h0s0,0,0,0h0s0,0,0,0h0s0,0,0,0h0s0,0,0,0h0s0,0,0,0h0s0,0,0,0h0q-.13-.31-.28-.89c-.13-.17-.14-.2-.18-.33.07.24.17.57.26.81l.17.39.03.05M.4,7.64s0-.03,0-.03c0,0,0,0,0,0-.03-.42-.04-.48.01-.9h0s0,0,0,0c0,0,0,0,0-.01-.18.18-.26.36-.22.55v.06c.08.19.09.2.2.34M.41,6.68s0,0,0-.01h0s0-.01,0-.01H.41c-.19-.21-.2-.22-.29-.39,0,.02,0,.03,0,.03,0,0,0,0,0,0h0s0,0,0,0c0,.45,0,.49.07.85l.02.08h0c-.04-.17.03-.36.22-.54M.12,6.2s0,0,0,0H.12s0,.02,0,.03c.12.21.13.22.3.39h0s0,0,0,0h0s0,0,0,0h0s0-.01.02,0h0c.11-.47.12-.49.3-.92h0s0,0,0,0c0,0,0,0,0,0,0-.01,0-.02,0-.03-.24-.23-.26-.24-.39-.43h0s0,0,0,0h0s0,0,0,0h0s0,0,0,0c0,0,0,0-.01,0h0s0,0,0,0h0s0,0,0,0c-.15.49-.15.51-.2.95,0,0,0,0,0,0M.1,6.28H.1s0,0,0,0H.1s0-.02,0-.03c-.02-.07-.04-.17-.05-.25.03.63.04.67.12,1.11q-.05-.32-.07-.82M.1,6.22s0-.03,0-.03c0,0,0,0,0,0h0s0,0,0,0c.06-.49.06-.51.2-.95h0s0,0,0,0c0,0,0,0,0-.01-.16.15-.25.3-.26.46v.22s0,.06,0,.06c0,.08.03.18.05.25M.31,5.2s0,0,0-.01h0s0-.01,0-.01h0c-.11-.21-.12-.23-.14-.39,0,.02,0,.03-.01.03,0,0,0,0,0,0-.03.13-.06.31-.08.45l-.03.39c0-.16.09-.31.26-.46M.19,4.73s0,.03,0,.04c.04.21.04.21.14.39h0s0,0,0,0h0s0,0,0,0h0s0-.01.01-.01c0,0,0,0,0,0h0s0,0,0,0h0c.04-.1.1-.24.15-.34.1-.21.25-.39.33-.61-.16-.2-.17-.22-.24-.38h0s0,0,0,0h0s0,0,0,0h0s0,0,0,0c0,0,0,0,0,0h0s0,0,0,0h0c-.31.6-.37.82-.38.9M.17,4.81s0-.03,0-.04v-.12s-.04.27-.04.27l-.05.32c.02-.13.06-.3.08-.43M.18,4.75s0-.03.01-.03c0,0,0,0,0,0,.15-.47.16-.49.37-.89h0s0,0,0,0c0,0,0,0,0,0-.13.11-.21.22-.25.34-.04.14-.1.33-.13.48,0,.04-.01.08-.01.12M.57,3.79s0,0,0-.01h0s0-.01,0-.01h0c-.03-.17-.03-.19.02-.34h0s0,0,0,0t-.01.02h0c-.06.16-.15.36-.2.52l-.05.15c.04-.12.12-.23.25-.34M.63,3.38s-.01.02-.02.03c-.04.16-.05.18-.02.34h0s0,0,0,0h0s0,0,0,0h0s0,0,.01,0t0,0h0s0,0,0,0h0c.06-.09.14-.22.2-.31.14-.19.3-.35.42-.54-.08-.17-.08-.18-.08-.31h0s0,0,0,0h0s0,0,0,0h0s0,0,0,0c0,0,0,0,0,0h0s0,0,0,0h0s0,0,0,0c-.2.27-.39.52-.52.79M.62,3.39s0-.01,0-.02c0,0,0,0,0,0,.23-.42.24-.43.51-.79h0s0,0,0,0c0,0,0,0,0,0-.08.07-.14.13-.18.2l-.2.33-.15.28s0,0,0,0M1.52,9.75c.02.05.06.1.11.15l-.14-.16c-.36-.44-.38-.47-.57-.77-.29-.51-.3-.53-.43-.85-.2-.56-.21-.58-.29-.92-.1-.54-.13-.68-.14-1.31.03-.63.03-.64.08-.99.13-.6.13-.61.24-.94.22-.55.23-.57.39-.87l.21-.35c.04-.07.1-.13.18-.2h0s0-.02,0-.02h0s.04-.1.04-.1c0,0,0,0,0,0l-.03.1h0s0,0,0,0h0s0,0,0,0h0s0,0,0,0c0,0,0,0,0,0h0s0,0,0,0l.22-.25s0,0,.01,0l-.24.26h0s0,0,0,0h0c.14-.1.33-.2.56-.3,0,0,0,0,0,.01-.24.1-.43.2-.57.31h0s0,.02,0,.02h0c0,.14,0,.17.08.31h0s0,0,0,0h0s.01,0,.32-.3c0,0,0,.01,0,.02l-.27.27c.03.05.05.12.09.17,0,0,0,.02,0,.02-.03-.04-.08-.1-.11-.14h0s0,0,0,0h0s-.18.1-.65.84h0s0,0,0,0h0c.16-.12.38-.24.66-.35,0,0,0,.01,0,.02-.28.11-.5.24-.66.36h0s0,.02,0,.02h0c.08.17.09.2.24.37t.35-.42s0,.02,0,.02c-.09.11-.21.26-.29.38,0,.01,0,.03,0,.04.06.06.14.14.2.2,0,0,0,.02,0,.03-.06-.06-.15-.14-.21-.2-.22.2-.45.76-.53.94h0s0,0,0,0h0c.17-.13.41-.27.72-.39,0,0,0,.01,0,.02-.3.12-.54.26-.71.4h0s0,.02,0,.02H.35c.15.2.18.24.39.43,0,0,.02-.02.03-.03,0,0,.01,0,.02,0h0c.08-.15.19-.35.28-.49,0,0,0,.02,0,.03-.08.14-.19.33-.27.48h0s0,0,0,0c.09.09.22.2.32.28,0,0,0,.02,0,.03-.1-.07-.23-.17-.33-.25,0,0-.02.02-.03.03h-.02c-.16.4-.2.49-.3.92h0s0,0,0,0h0c.17-.14.41-.27.73-.4,0,0,0,.01,0,.02-.31.13-.55.27-.72.41h0s0,.02,0,.02h0c.23.19.25.22.52.4t.26-.56s0,.02,0,.03c-.07.15-.15.36-.2.52.02.05.02.05.45.3,0,0,0,.02,0,.03-.13-.08-.31-.19-.45-.27-.04.04-.14.21-.16.88h0s0,0,0,0h0c.16-.13.39-.26.69-.39,0,0,0,.01,0,.02-.3.12-.53.26-.68.39h0s0,.02,0,.02h0c.28.18.31.2.61.36h0s0,0,0,0h0s.03-.01.04-.02c.03-.17.07-.39.11-.55,0,0,0,.02.01.02-.04.16-.09.37-.11.53t.55.31s0,.02.01.02c-.16-.08-.38-.19-.54-.28h0s0,0,0,0h0s-.03.01-.04.02c0,.34,0,.41.07.75h0s0,0,0,0h0c.14-.12.34-.24.6-.34,0,0,0,.01,0,.02-.26.11-.46.23-.59.35h0s0,.02,0,.02h0s.23.11.23.11c0,0,0,0,0,0l-.21-.1h0s0,0,0,0h0s0,0,0,0h0s0,0,0,0h-.01s0,0,0,0h0s.09.24.09.24c0,0,0,0,0,0l-.09-.25h0s0,0,0,0h0c-.14.13-.18.28-.13.43h0s0,0,0,0h0s0,0,0,0h0s.14.09.14.09c0,0,0,0,0,0l-.13-.09h0s0,0,0,0h0s0,0,0,0h0s0,0,0,0h0s0,0,0,0h0s0,0,0,0h0s0,0,0,0h0s0,0,0,0h0s.19.23.19.23c0,0,0,0,0,0l-.2-.24h0s0,0,0,0h0s0,0,0,0h0"/>
        <path class="cls-1" d="M5.95,11.54c.09.04.22.09.31.12h0s0,0,0,0h0s0,0,0,0c0,0,0,0,0,0h0s0,0,0,0h0s0,0,0,0c-.1-.03-.23-.07-.32-.12,0,0,0,0,0,0M5.97,11.54c.15.02.34.06.49.07h0s0,0,0,0h0s0,0,0,0h0,0s0,0,0,0h0s0,0,0,0h0c-.15-.02-.35-.04-.5-.07,0,0,0,0,0,0M5.97,11.53c.18,0,.42.02.59.01h0s0,0,0,0h0s0,0,0,0h0s0,0,0,0c0,0,0,0,0,0h0c-.18,0-.42,0-.6-.01,0,0,0,0,0,0M5.97,11.53c.18-.01.43-.03.61-.05h0s0,0,0,0h0s0,0,0,0h0s0,0,0,0h0s0,0,0,0h0s0,0,0,0h0s0,0,0,0h0s0,0,0,0h0c-.18.02-.43.04-.61.05,0,0,0,0,0,0M5.95,11.54s0,0,0,0c0,0,0,0-.01,0,.03.04.07.1.1.14h0s0,0,0,0h0s0,0,0,0h0c.07,0,.13,0,.19-.02.02,0,.03,0,.05,0,0,0,0,0,0,0h0s0,0,0,0h0c-.1-.03-.22-.1-.32-.12M5.97,11.54s0,0-.01,0c.1.04.23.09.33.12h0s0,0,0,0c0,0,0,0,0,0,.07-.01.13-.03.18-.05h0s0,0,0,0h0s0,0,0,0h0c-.15-.02-.35-.09-.5-.07M5.97,11.53s0,0,0,0c.15.02.36.06.51.07h0s0,0,0,0h0s.08-.04.1-.06c0,0,0,0,0,0h-.01c-.18,0-.42,0-.6-.01M5.97,11.53s0,0,0,0c.18,0,.43.01.61.01h0s0,0,0,0c0,0,0,0,.01,0,.02-.02.02-.05.01-.07h0s0,0,0,0h0s0,0,0,0h0c-.19.02-.43.04-.62.05M5.97,11.52s0,0,0,0c.19-.01.44-.03.62-.06h0s0,0,0,0h0s0,0,0,0h0s-.03-.04-.06-.06c-.19.05-.38.09-.58.11M6.3,11.66h0s0,0,0,0c-.02,0-.03,0-.05,0-.06,0-.13.01-.2.02h0s0,0,0,0h0s0,0,0,0h0c.12.04.17.06.36.05-.01-.03-.01-.03-.1-.08h0M6.51,11.61h0s0,0,0,0h0c-.05.02-.11.03-.19.05,0,0,0,0,0,0h0s0,0,0,0h0c.26.02.28.02.54,0t.02,0-.37-.05h0M6.63,11.54h0s0,0-.01,0c-.02.02-.06.04-.11.06h0s0,0,0,0h0s0,0,0,0h0c.34,0,.36,0,.66-.06,0,0,0,0,0,0,0,0,0,0,.02,0-.23,0-.27,0-.56,0h0M6.65,11.47h0s0,0,0,0h0s0,0,0,0c.01.02,0,.05-.01.07,0,0,0,0,0,0h0s0,0,0,0c.37-.05.39-.05.68-.13,0,0,0,0,0,0,0,0,0,0,0,0,0,0,0,0,0,0-.3.03-.34.03-.67.07h0M6.57,11.41s.05.04.07.06h0s0,0,0,0h0s0,0,0,0h0c.34-.09.36-.09.61-.2,0,0-.01,0-.02,0,0,0,0,0,0,0,0,0,0,0,0,0-.14.03-.32.06-.45.09-.08.02-.15.04-.23.06M6.89,11.67s-.02,0-.03,0c-.31.02-.33.02-.55,0h0s0,0,0,0h0s0,0,0,0h0s0,0,0,0h0c.09.05.1.05.1.08,0,0,.01,0,.01,0,.09,0,.22-.01.31-.02h0c.08-.01.19-.03.27-.04-.04,0-.08-.01-.11,0M7.23,11.55s-.03,0-.03,0c-.36.05-.38.06-.66.06h0s0,0,0,0h0s0,0,0,0h0s0,0,0,0h0s0,0,0,0h0s0,0,0,0h0q.35.05.4.05c.34-.05.36-.05.67-.13h0s0,0,0,0h0s0,0,0,0h0s0,0,0,0h0s0,0,0,0h0s0,0,0,0h0s0,0,0,0h0s0,0,0,0h0c-.13.01-.25,0-.38.02M7.38,11.4s-.03,0-.04,0c-.36.09-.38.1-.69.13h0s0,0,0,0h0s0,0,0,0h0s0,0,0,0h0c.51,0,.55,0,.6,0,.37-.09.39-.09.7-.2h0s0,0,0,0h0s0,0,0,0c0,0,0,0,0,0h0c-.19.03-.39.02-.58.07M7.31,11.24s-.03.01-.04.01c-.3.13-.32.14-.61.21h0s0,0,0,0h0s0,0,0,0h0s0,0,0,0h0s0,0,0,0h0s0,0,0,0h0c.61-.06.65-.06.71-.08.35-.13.37-.13.63-.28h0s0,0,0,0h0s0,0,0,0h0s0,0,0,0h0s0,0,0,0h0s0,0,0,0h0s0,0,0,0h0s0,0,0,0h0c-.07.01-.17.04-.25.05-.15.03-.3.03-.45.09M6.43,11.75s-.01,0-.03,0c-.01,0-.03,0-.04,0h.07c.09-.01.2-.03.29-.04-.09,0-.21,0-.29.02M6.93,11.66s0,0-.02,0c.09,0,.1.01.11,0l.16-.03c.17-.03.31-.07.43-.12h0s0,0,0,0h0s0,0,0,0h0c-.37.09-.39.1-.67.13M7.26,11.54s0,0,0,0c0,0,0,0-.02,0,.19,0,.24,0,.38-.02h0s0,0,0,0h0s0,0,0,0h0c.15-.06.26-.12.33-.19,0,0,0,0,0,0h0s0,0,0,0h0c-.37.13-.39.14-.7.2M7.4,11.39s0,0,.01,0c0,0,0,0-.01,0,.26-.03.34-.04.57-.07h0s0,0,0,0c0,0,0,0,.01,0,.06-.07.08-.14.05-.21h0s0,0,0,0h0s0,0,0,0h0c-.31.17-.33.18-.63.28M7.65,11c-.1.07-.23.17-.33.23,0,0,.01,0,.02,0,0,0,0,0,0,0,0,0,0,0,0,0,.37-.07.46-.09.69-.14h0s0,0,0,0h0s0,0,0,0h0c-.03-.06-.1-.13-.2-.18-.06.03-.12.06-.18.1M7.64,11.52h0s0,0,0,0h0s0,0,0,0c-.12.04-.26.08-.42.11.28-.07.3-.07.53-.14-.03,0-.07.02-.1.02h0M8.01,11.32h0s0,0-.01,0c-.07.07-.18.13-.33.19h0s0,0,0,0h0s0,0,0,0h0c.37-.12.4-.13.72-.27h0s0,0,.02-.01c-.15.04-.18.05-.4.09h0M8.08,11.09h0s0,0,0,0h0s0,0,0,0c.03.07,0,.14-.06.21,0,0,0,0,0,0h0s0,0,0,0h0c.36-.16.38-.17.66-.34h0s0,0,0,0c0,0,0,0,.01-.01-.26.07-.3.07-.61.14h0M7.85,10.9c.1.06.17.12.2.18h0s0,0,0,0h0s0,0,0,0h0c.28-.2.3-.21.49-.41h0s-.01,0-.02,0t0-.01c-.16.05-.37.11-.53.15-.06.03-.11.06-.17.09M8.43,11.22s-.03.01-.03.01c-.39.17-.4.17-.72.27h0s0,0,0,0h0s0,0,0,0h0s0,0,0,0h0s0,0,0,0h0s0,0,0,0h0s0,0,0,0h0s0,0,0,0h0s.07-.01.1-.02c.11-.04.27-.09.38-.13.12-.05.27-.11.38-.17-.03.01-.06.02-.09.04M8.73,10.94s-.03.01-.03.02c-.34.2-.35.21-.66.35h0s0,0,0,0h0s0,0,0,0c0,0,0,0-.01,0h0s0,0,0,0c.18-.03.33-.06.44-.1.37-.19.4-.21.7-.4h0s0,0,0,0h0s0,0,0,0h0s0,0,0,0h0s0,0,0,0c-.04.02-.1.04-.14.06-.1.03-.21.04-.31.1M8.62,10.64s-.03.02-.03.02c-.24.24-.25.25-.5.41h0s0,0,0,0h0s0,0,0,0h0s0,0,0,0h0s0,0,0,0h0s0,0,0,0h0s0,0,0,0h0s0,0,0,0c.54-.12.58-.13.65-.16.31-.23.33-.25.55-.47h0s0,0,0,0h0s0,0,0,0h0s0,0,0,0h0s0,0,0,0h0s0,0,0,0h0s0,0,0,0h0s0,0,0,0h0s0,0,0,0h0c-.07.02-.16.05-.23.07-.07.02-.17.05-.24.08-.06.02-.14.02-.19.06M8.47,11.2h0s0,0-.02.01l.08-.04c.15-.08.34-.18.49-.27.07-.04.12-.08.17-.12,0,0,0,0,0,0h0s0,0,0,0h0c-.37.23-.38.24-.7.4M8.75,10.92h0s0,0,0,0c0,0,0,0-.01.01.26-.08.27-.08.45-.15h0s0,0,0,0c0,0,0,0,.01,0,.11-.11.14-.22.1-.33h0s0,0,0,0h0s0,0,0,0h0c-.27.27-.28.28-.55.47M8.86,10.21q-.14.28-.25.41h0s.02,0,.01.01c0,0,0,0,0,0,.29-.09.39-.12.66-.21h0s0,0,0,0h0s0,0,0,0h0c-.04-.11-.15-.21-.32-.31-.04.03-.08.07-.12.1M9.21,10.77h0s0,0-.01.01c-.04.04-.1.08-.16.12l.06-.03.27-.18s-.1.06-.14.08h0M9.34,10.41h0s0,0,0,0h0s0,0,0,0c.04.11,0,.23-.1.34,0,0,0,0,0,0h0s0,0,0,0h0c.34-.26.36-.28.61-.53,0,0,0,0,0,0,0,0,0,0,.01-.02-.24.11-.24.11-.51.21h0M8.99,10.09c.17.1.28.2.32.3h0s0,0,0,0h0s0,0,0,0h0c.22-.29.24-.32.37-.59-.02,0-.03,0-.02-.02q-.34.13-.59.21s-.07.06-.11.1M5.9,11.77h.05s-.01,0-.01,0h-.04s0,0,0,0M8.84,10.22c.09-.08.19-.16.28-.25.35-.12.39-.14.57-.21.03-.03.08-.14.15-.47,0,0,0,0,.01,0-.03.13-.07.3-.12.43.02,0,.1,0,.42-.15,0,0,0,0,0,0-.12.05-.29.12-.41.17-.16.19-.25.43-.41.62h0s0,0,0,0h0s0,0,0,0h0s0,0,0,0h0s0,0,0,0h0s0,0,0,0h0s0,0,0,0h0s0,0,0,0c.24-.09.31-.11.51-.21.12-.11.27-.32.35-.44,0,0,0,0,0,0-.09.12-.21.28-.31.4.07-.03.15-.08.21-.12,0,0,0,0,0,0-.06.05-.15.1-.22.14q-.48.43-.64.56h0s0,0,0,0h0s-.01,0-.01,0h0s0,0,0,0h0s.1-.05.15-.08l-.28.19c-.29.17-.54.32-.96.49-.38.14-.75.27-1.39.36q-.2.02-.31.03h-.08s.03,0,.04,0c-.21-.01-.24-.01-.35-.05h0s0,0,0,0h0s0,0,0,0h0s0,0,0,0h0s0,0,0,0h0s0,0,0,0c-.04.05-.04.05-.13.07,0,0,0,0,0,0,.09-.03.1-.03.12-.07h0s0,0,0,0h0s0,0,0,0h0s-.07,0-.11,0c0,0,0,0,0,0,.03,0,.07,0,.1,0h0s0,0,0,0h0s0,0,0,0h0s-.07-.1-.09-.14h0s.05.1.09.14h0s0,0,0,0h0s0,0,0,0h0s0,0,0,0h0s0,0,0,0h0s0,0,0,0h0s-.07-.09-.09-.14c0,0,0,0,.01,0,.02,0,.03-.01.02-.02.29-.04.57-.1.85-.19.13-.03.31-.06.44-.09.12-.05.27-.16.37-.23.14-.07.28-.14.41-.22.16-.04.36-.1.52-.15.14-.1.17-.29.28-.42"/>
        <path class="cls-1" d="M5.96,11.52c.1-.05.25-.11.35-.17h0s0,0,0,0h0s0,0,0,0h0s0,0,0,0h0s0,0,0,0h0s0,0,0,0h0s0,0,0,0h0c-.1.05-.24.13-.34.17,0,0,0,0,0,0M5.94,11.52c.04-.06.1-.13.13-.2h0s0,0,0,0h0s0,0,0,0h0s0,0,0,0c0,0,0,0,0,0h0c-.04.06-.09.14-.13.2h0M5.92,11.52c-.03-.06-.07-.14-.1-.2h0s0,0,0,0h0s0,0,0,0h0s0,0,0,0h0s0,0,0,0h0s0,0,0,0h0s0,0,0,0h0s0,0,0,0h0s0,0,0,0h0c.03.06.07.14.11.2h0M5.91,11.52c-.1-.05-.23-.12-.33-.17h0s0,0,0,0h0s0,0,0,0h0s0,0,0,0c0,0,0,0,0,0h0s0,0,0,0h0c.1.05.23.13.34.17,0,0,0,0,0,0M5.96,11.52s0,0,.01,0c.16-.04.36-.08.52-.13h0s0,0,0,0c0,0,0,0,0,0-.05-.02-.11-.04-.17-.05h0s0,0,0,0h0s0,0,0,0h0c-.11.05-.25.13-.36.17M5.94,11.52s0,0,.01,0c.1-.05.25-.12.35-.18h0s0,0,0,0h0s0,0,0,0h0c-.07-.01-.14-.02-.22-.03,0,0,0,0,0,0h0s0,0,0,0h0c-.04.06-.09.14-.14.2M5.92,11.52s.01,0,.01,0c.04-.06.09-.14.13-.2h0s0,0,0,0c0,0,0,0,0,0-.08,0-.16,0-.25,0h0s0,0,0,0h0s0,0,0,0h0c.03.06.07.14.1.2M5.91,11.52s0,0,0,0c0,0,0,0,.01,0-.03-.06-.08-.14-.11-.2h0s0,0,0,0h0s0,0,0,0h0c-.06,0-.12,0-.18.01-.02,0-.04,0-.06,0,0,0,0,0,0,0h0s0,0,0,0h0c.1.06.22.16.33.18M5.9,11.52s0,0,.01,0c-.1-.05-.24-.12-.34-.18h0s0,0,0,0c0,0,0,0,0,0-.07.01-.13.03-.18.05h0s0,0,0,0h0s0,0,0,0h0c.15.04.35.15.51.13M6.35,11.33h0s0,0,0,0h0s0,0,0,0c.07.01.13.03.18.05,0,0,0,0,0,0h0s0,0,0,0h0c.24-.12.26-.13.4-.27-.02,0-.02,0-.02,0,0,0,0,0,0,0-.27.1-.34.12-.57.22h0M6.09,11.29h0s0,0,0,0c.08,0,.16.01.23.03h0s0,0,0,0h0s0,0,0,0h0c.12-.14.13-.15.17-.3-.02.01-.02,0-.02,0-.23.15-.24.15-.38.27h0M5.82,11.29h0s0,0,0,0h0s0,0,0,0c.08,0,.17,0,.25,0,0,0,0,0,0,0h0s0,0,0,0h0c-.01-.15-.01-.16-.09-.3-.01.01-.02,0-.03,0-.11.17-.12.17-.15.3h0M5.55,11.32h0s0,0,0,0c.02,0,.04,0,.06,0,.06,0,.12-.01.18-.02h0s0,0,0,0h0s0,0,0,0h0c-.15-.14-.16-.15-.35-.28,0,.01-.01,0-.02,0,.02.17.02.18.12.3h0M5.34,11.37h0s0,0,0,0h0s0,0,0,0c.05-.02.11-.04.18-.05,0,0,0,0,0,0h0s0,0,0,0h0c-.25-.11-.28-.12-.55-.23,0,0,0,0,0,0,0,0,0,0-.02,0,.16.16.17.17.38.27h0M6.53,11s-.01.02-.02.02c-.05.17-.06.18-.17.3h0s0,0,0,0h0s0,0,0,0h0s0,0,0,0h0s0,0,0,0h0s0,0,0,0h0s0,0,0,0c.2-.08.41-.14.6-.24.13-.18.14-.2.19-.38h0s0,0,0,0h0s0,0,0,0h0s0,0,0,0h0s0,0,0,0h0s0,0,0,0h0s0,0,0,0h0s0,0,0,0c-.52.25-.59.3-.59.3M5.99,10.96s0,.02,0,.02c.08.17.09.18.09.31h0s0,0,0,0h0s0,0,0,0h0s0,0,0,0c0,0,0,0,0,0h0s0,0,0,0c.04-.03.08-.07.12-.1.09-.07.2-.12.29-.2,0-.19,0-.2-.08-.38h0s0,0,0,0h0s0,0,0,0h0s0,0,0,0c0,0,0,0-.01,0h0s0,0,0,0c-.24.19-.25.2-.4.35h0M5.44,10.99s.01.01.01.02c.22.15.23.16.35.28h0s0,0,0,0h0s0,0,0,0h0s0,0,0,0h0s0,0,0,0h0s0,0,0,0h0s0,0,0,0h0s0,0,0,0h0c.04-.15.04-.15.15-.3,0,0,0-.01,0-.02-.14-.18-.15-.19-.34-.36h0s0,0,0,0h0s0,0,0,0h0s0,0,0,0h0s0,0,0,0c0,0,0,0,0,0h0s0,0,0,0h0s0,0,0,0h0s0,0,0,0h0c-.12.21-.12.22-.16.38,0,0,0,0,0,0M4.94,11.07s.02.01.03.02c.27.11.34.13.56.23h0s0,0,0,0h0s0,0,0,0h0s0,0,0,0h0s0,0,0,0h0s-.06-.07-.07-.1c-.01-.03-.03-.08-.04-.11,0-.03,0-.06,0-.09,0,0-.01-.01-.02-.02-.25-.15-.27-.16-.56-.31h0s0,0,0,0h0s0,0,0,0h0s0,0,0,0c0,0,0,0-.01,0h0s0,0,0,0h0s0,0,0,0c.02.13.05.35.13.39M6.97,11.08s.01,0,.02,0c0,0,0,0,0,0,0,0,0,0,0,0,.3-.1.36-.12.7-.23h0s0,0,0,0t0,0c-.14-.06-.33-.11-.53-.15h0s0,0,0,0h0s0,0,0,0h0c-.06.21-.07.23-.19.38M6.51,10.99s.02,0,.02,0c.24-.13.29-.16.59-.3h0s0,0,0,0h0s0,0,0,0h0c-.21-.04-.44-.07-.68-.09,0,0,0,0,0,0h0s0,0,0,0h0c.07.21.08.23.08.38M5.96,10.95s.02,0,.03,0c.17-.18.18-.18.4-.35h0s0,0,0,0c0,0,0,0,0,0-.25-.02-.5-.02-.76,0h0s0,0,0,0h0s0,0,0,0h0c.21.2.22.21.33.36M5.4,10.98s.01-.01.03,0c.04-.19.04-.2.16-.38h0s0,0,0,0h0s0,0,0,0h0c-.2,0-.39.02-.58.05-.06,0-.11.02-.16.02,0,0,0,0,0,0h0s0,0,0,0h0c.28.14.35.18.56.31M4.91,11.07s0,0,0,0c0,0,0,0,.02,0-.11-.18-.11-.19-.13-.39h0s0,0,0,0c0,0,0,0,0,0-.22.04-.41.09-.56.15h0s0,0,0,0h0s0,0,0,0h0c.31.11.4.15.67.25M7.19,10.67h0s0,0,0,0h0s0,0,0,0h0c.21.04.39.09.54.16,0,0,0,0,0,0h0s0,0,0,0h0c.14-.22.15-.24.21-.46h0s-.03,0-.03-.01c-.32.13-.41.17-.73.31h0M6.44,10.57h0s0,0,0,.01c.25.02.48.05.69.09,0,0,0,0,0,0h0s0,0,0,0h0s0,0,0,0h0c0-.23,0-.25-.05-.46h0s-.03,0-.04,0c-.34.2-.36.21-.61.38h0M5.62,10.56h0s0,0,0,0h0s0,0,0,0c.26,0,.51,0,.76,0,0,0,0,0,0,0h0s0,0,0,0h0c-.13-.23-.14-.24-.32-.44h0s-.03.01-.05,0c-.25.23-.26.24-.41.43h0M4.82,10.64h0s0,0,0,0c.05,0,.11-.02.16-.02.19-.03.38-.04.58-.05h0s0,0,0,0h0s0,0,0,0c-.26-.2-.28-.22-.55-.39h0s-.02.02-.05,0c-.12.25-.13.26-.16.47h0M4.2,10.79h0s0,0,0,0h0s0,0,0,0c.15-.06.34-.11.57-.15,0,0,0,0,0,0h0s0,0,0,0h0c-.33-.16-.36-.18-.69-.32h0s0,.02-.04.01c.04.25.04.26.16.46h0M7.12,10.16s-.01.02-.02.03c.06.25.07.27.05.46h0s0,0,0,0h0s0,0,0,0h0s0,0,0,0h0s0,0,0,0c0,0,0,0,0,0h0s0,0,0,0h0s0,0,0,0h0s0,0,0,0h0c.24-.11.49-.2.73-.31.01,0,.02-.02.03-.03.02-.27.03-.29-.02-.54h0s0,0,0,0h0s0,0,0,0h0s0,0,0,0h0s0,0,0,0h0s0,0,0,0h0s0,0,0,0h0s0,0,0,0h0s0,0,0,0h0c-.34.16-.43.21-.76.38h0M6.09,10.09s0,.02,0,.03c.2.24.21.26.32.44h0s0,0,0,0h0s0,0,0,0h0s.01,0,.02,0h0c.24-.16.29-.2.61-.38,0,0,0-.02.01-.03-.12-.27-.13-.28-.3-.52h0s0,0,0,0h0s0,0,0,0h0s0,0,0,0c0,0-.01,0-.02,0h0s0,0,0,0h0s0,0,0,0c-.35.24-.37.25-.63.46,0,0,0,0,0,0M5.01,10.13s.01.02.01.03c.29.19.34.23.55.4h0s0,0,0,0h0s0,0,0,0h0s0,0,0,0h0s0,0,0,0h0s0,0,0,0h0s0,0,0,0h0s0,0,0,0h0s0,0,0,0h0c.18-.22.18-.23.41-.44,0,0,0-.02,0-.03-.25-.25-.27-.26-.54-.48h0s0,0,0,0h0s0,0,0,0h0s0,0,0,0h0s0,0,0,0h0s0,0,0,0h0s0,0,0,0h0s0,0,0,0h0s0,0,0,0h0c-.25.27-.26.28-.42.52,0,0,0,0,0,0M4.05,10.28s.02.01.02.03c.33.15.42.19.7.33h0s0,0,0,0h0s0,0,0,0h0s0,0,.02,0h0s0,0,0,0h0s0,0,0,0c.04-.23.04-.24.16-.47,0,0-.01-.01-.01-.03-.35-.21-.36-.21-.73-.4h0s0,0,0,0h0s0,0,0,0h0s0,0,0,0c0,0-.01,0-.02,0h0s0,0,0,0h0c-.11.29-.11.3-.12.55,0,0,0,0,0,0M7.96,10.32h0s.03,0,.03,0c.36-.14.4-.16.79-.3h0s0,0,0,0c0,0,0,0,0,0-.23-.1-.51-.18-.84-.25h0s0,0,0,0h0s0,0,0,0h0c.05.29.05.31.02.54M7.07,10.14h0s.03,0,.04,0c.32-.17.38-.2.76-.38h0s0,0,0,0h0s0,0,0,0h0c-.33-.07-.7-.12-1.09-.15,0,0,0,0,0,0h0s0,0,0,0h0c.19.28.2.3.29.52M6.03,10.07h0s.03-.01.05,0c.25-.2.3-.24.62-.46h0s0,0,0,0c0,0,0,0,0,0-.39-.03-.8-.03-1.21-.02h0s0,0,0,0h0s0,0,0,0h0c.28.23.33.27.54.48M4.95,10.12h0s.02-.02.05,0c.18-.26.19-.27.42-.52h0s0,0,0,0h0s0,0,0,0h0c-.33,0-.66.04-.97.08-.07,0-.15.02-.22.03,0,0,0,0,0,0h0s0,0,0,0h0c.33.18.45.24.73.4M4,10.28h0s0-.02.04-.01c.02-.27.02-.29.12-.55h0s0,0,0,0c0,0,0,0,0,0-.36.06-.67.14-.91.23h0s0,0,0,0h0s0,0,0,0h0c.33.14.46.2.76.33M7.96,9.74h0s0,0,0,0h0s0,0,0,0c.33.07.61.15.84.25,0,0,0,0,0,0h0s0,0,0,0h0c.05-.31.05-.33.03-.61-.04.01-.05,0-.05-.01-.35.15-.47.2-.83.37h0M6.79,9.58h0s0,.01,0,.01c.39.03.76.08,1.09.14h0s0,0,0,0h0s0,0,0,0h0c-.1-.31-.11-.33-.26-.6-.02,0-.04.02-.07,0-.35.2-.45.25-.78.46h0M5.49,9.55h0s0,0,0,0h0s0,0,0,0c.41-.01.82,0,1.21.02,0,0,0,0,0,0h0s0,0,0,0h0c-.24-.29-.26-.31-.52-.56-.03.02-.06,0-.07,0-.3.24-.38.29-.64.54h0M4.2,9.67h0s0,0,0,.01c.07-.01.14-.02.22-.03.32-.04.64-.07.97-.08h0s0,0,0,0h0s0,0,0,0h0c-.32-.23-.38-.27-.72-.49-.03.02-.06.01-.07,0-.25.31-.27.33-.42.6h0M3.2,9.92h0s0,0,0,0h0s0,0,0,0c.25-.09.55-.17.92-.23,0,0,0,0,0,0h0s0,0,0,0h0c-.4-.2-.42-.21-.81-.4-.01.03-.04.02-.05.01-.08.33-.08.34-.07.62h0M3.02,9.88s-.01-.01-.02-.02l.15.06h0s0,0,0,0h0s0,0,0,0h0s0,0,0,0h0s0,0,0,0h0s0,0,0,0h0s0,0,0,0h0s0,0,0,0h0s0,0,0,0h0c0-.26,0-.33.07-.62t-.56-.29s.01,0,.02,0c.16.08.37.18.52.25t.25-.44s.02,0,.03,0c-.07.13-.15.31-.21.44t.83.44h0s0,0,0,0h0s0,0,0,0h0s0,0,0,0h.02s0,0,0,0h0s0,0,0,0c.15-.27.18-.31.42-.6-.01-.04-.02-.05-.57-.35,0,0,.01,0,.02,0,0,0,0,0,0,0,.16.09.38.21.54.31.02,0,.05-.01.07,0,.12-.12.28-.28.4-.39.01,0,.02,0,.03,0-.13.12-.29.28-.41.41.04.11.21.16.31.22.13.08.3.21.43.3h0s0,0,0,0h0s0,0,0,0h0s0,0,0,0h0s0,0,0,0h0s0,0,0,0h0s0,0,0,0h0s0,0,0,0h0c.26-.24.31-.28.64-.54,0-.01,0-.02,0-.04-.14-.12-.32-.27-.46-.38,0,0,.02,0,.03,0,.13.11.31.25.44.36.02,0,.05,0,.07,0,.15-.1.36-.24.51-.34,0,0,.02,0,.03,0-.16.11-.37.25-.52.36,0,.01,0,.02,0,.04.28.27.32.32.52.56h0s0,0,0,0h0s0,0,0,0h.01s.02,0,.02,0h0s0,0,0,0h0c.34-.21.4-.24.79-.46,0,0,0-.02.01-.03-.09-.13-.21-.3-.3-.42,0,0,.02,0,.03,0,.09.12.21.28.29.4.03,0,.15-.04.62-.28,0,0,.02,0,.03,0-.17.09-.4.21-.58.3,0,0,0,.02-.01.03.15.28.18.35.26.6h0s0,0,0,0h0s0,0,0,0h0s0,0,0,0h0s0,0,0,0h0s0,0,0,0h0s0,0,0,0h0s0,0,0,0h0s0,0,0,0h0c.38-.17.43-.2.84-.37.03-.05-.03-.27-.1-.47,0,0,.01,0,.02,0,.04.13.09.3.11.43.02,0,.14-.02.59-.21,0,0,.01,0,.02,0-.17.07-.39.16-.55.23-.13.21,0,.43-.05.65h0s0,0,0,0h0s0,0,0,0c0,.01,0,.03,0,.04-.03.02-.05.04-.07.03h0s0,0,0,0h0s0,0,0,0h0c-.32.12-.44.16-.79.29-.14.13-.14.33-.24.48h0s0,0,0,0h0s0,0,0,0h0s-.03.05-.08.05h0s0,0,0,0h0s0,0,0,0h0s0,0,0,0c-.31.1-.4.12-.7.23-.15.09-.28.21-.44.29h0s0,0,0,0h0s0,0,0,0h0s0,0,0,0c-.04.02-.06.02-.09.03h0s0,0,0,0h0s0,0,0,0h0s0,0,0,0c-.15.04-.35.09-.51.12-.01,0-.04,0-.05,0,0,0-.01,0-.02,0-.15-.04-.35-.08-.5-.13h0s0,0,0,0h0s0,0,0,0h0s0,0,0,0h0s0,0,0,0h0s0,0,0,0h0s0,0,0,0h0s0,0,0,0h.01s-.01,0-.02,0h0s0,0,0,0h0s0,0,0,0c-.01,0-.02,0-.03-.01h0s0,0,0,0h0s0,0,0,0c0,0-.02,0-.02,0h.02s0,0,0,0h0s0,0,0,0h0s0,0,0,0h0s0,0,0,0h0s0,0,0,0h0s0,0,0,0h0s0,0,0,0h0s0,0,0,0c-.19-.1-.24-.13-.38-.28-.02-.01-.05-.03-.7-.26h0s0,0,0,0h0s0,0,0,0h0s0,0,0,0h0s0,0,0,0h0s0,0,0,0h0s0,0,0,0h0s.03.04.03.04c0,0-.01,0-.02-.01l-.02-.03h0s0,0,0,0h0s0,0,0,0h0s-.01,0-.02,0c0,0,0,0-.01,0,0,0,.01,0,.02,0h0s0,0,0,0h0s0,0,0,0h0s-.07-.02-.07-.02c0,0-.01,0-.02-.01l.08.03h0s0,0,0,0h0s0,0,0,0h0s0,0,0,0h0s0,0,0,0h0s0,0,0,0h0s0,0,0,0c-.1-.19-.12-.24-.16-.47-.03-.03-.03-.03-.78-.35h0s0,0,0,0h0s0,0,0,0h0s0,0,0,0h0s0,0,0,0c0,0,0,0,0,0h0s0,0,0,0h0s0,0,0,0h0s0,0,0,0h0s.02.1.02.1c0,0-.01-.01-.02-.02l-.02-.09h0s0,0,0,0h0s0,0,0,0h0s-.03.01-.05.02c0,0,0,0-.01-.01.02,0,.03-.01.05-.02h0s0,0,0,0h0s0,0,0,0h0s-.13-.06-.13-.06"/>
        <path class="cls-1" d="M1.99,1.56h0s0,0,0,0c0,0,0,0,0,0-.02.02-.04.03-.06.05l-.21.2c.08-.07.18-.17.26-.24M2.01,1.54s0,0,0,0h0s0,0,0,0h0s.04-.04.04-.04l-.11.1s.03-.03.05-.04M2.04,1.52h0s0,0,0,0h0s0,0,0,0h0s0,0,0,0h0,0s0,0,0,0h0c.33-.27.36-.29.77-.55.03-.03.07-.06.11-.09l-.2.12c-.43.3-.44.31-.66.49l-.04.04M3.42.62s-.09.04-.13.06h.02s.08-.05.12-.06c0,0,0,0-.01,0M1.99,1.57c-.08.08-.2.18-.28.27l.24-.24c.41-.35.44-.37.79-.61l.21-.13s-.08.06-.11.09h0s0,0,0,0c.07-.04.14-.08.21-.11,0,0-.01,0-.02.01l-.17.09s-.03.02-.05.06c0,0-.01,0-.02.01l.02-.04h0s0,0,0,0c-.31.18-.6.4-.77.54h0s0,0,0,0h0c.11-.08.26-.16.44-.23,0,0,0,0-.01.01-.18.08-.34.16-.45.24,0,0,0,0,0,0h0s0,0,0,0c-.08.12-.08.13-.08.23.09-.07.19-.14.28-.21,0,0,0,.01-.01.02l-.23.18s0,.01-.02.02c0,.03.02.06.02.09,0,0,0,.01-.01.02l-.03-.09c-.24.19-.26.21-.5.45,0,0,0,0-.01,0,.14-.14.33-.32.48-.44.05-.08.05-.19.1-.26h0s0,0,0,0h0s0,0,0,0h0s0,0,0,0c0,0,0,0,0,0h0s0,0,0,0h0M1.21,2.44l.06-.09v-.02s-.05.1-.05.1c0,0,0,0,0,0"/>
        <path class="cls-1" d="M10.4,9.48h0s0,0,0,0h0s0,0,0,0c.04.14,0,.28-.13.41l.13-.15c.12-.15.28-.36.39-.52h0s0,0,0,0c0,0,0,0,.01-.03-.17.14-.17.14-.39.26h0M9.94,9.05c.24.13.38.28.43.42h0s0,0,0,0h0s0,0,0,0h0c.16-.37.17-.4.24-.73h0s0,0,0,0c-.01,0-.02,0-.02-.03-.31.15-.33.16-.61.27-.02.03-.04.05-.06.08M10.81,9.2s-.02.02-.02.03c-.11.15-.25.35-.37.49l.13-.16c.1-.14.24-.31.33-.45-.02.03-.06.06-.08.09M10.67,8.68s-.01.02-.02.03c-.09.4-.1.42-.24.73h0s0,0,0,0h0s0,0,0,0h0s0,0,0,0h0s0,0,0,0h0s0,0,0,0h0s0,0,0,0h0s0,0,0,0c.17-.1.33-.19.41-.3.22-.4.23-.42.34-.78h0s0,0,0,0h0s0,0,0,0h0s0,0,0,0h0s0,0,0,0h0s0,0,0,0h0s0,0,0,0h0s0,0,0,0h0s-.11.08-.16.11c-.05.03-.13.08-.18.11-.05.03-.13.04-.15.08M10.83,9.16h0s0,0,0,0t-.01.03l.08-.1.19-.32.05-.09c.05-.1.07-.21.05-.31h0s0,0,0,0h0s0,0,0,0h0c-.15.42-.16.44-.34.77M10.63,7.87c.04.4.05.45.01.76h0s0,0,0,0c.01,0,.02,0,.02.03.29-.16.3-.17.49-.31h0s0,0,0,0h0s0,0,0,0h0c-.06-.18-.23-.35-.52-.52,0,.02-.01.03-.02.05M11.2,8.34h0s0,0,0,0h0s0,0,0,0c.02.1,0,.21-.05.31.09-.19.21-.44.29-.63-.09.16-.09.17-.24.3h0M10.66,7.81c.29.17.46.34.52.51h0s0,0,0,0h0s0,0,0,0h0c.09-.43.1-.47.1-.84-.02,0-.03,0-.03-.03-.28.18-.28.18-.58.33,0,.01-.01.03-.02.04M11.31,7.42s0,.03-.01.04c-.02.46-.02.48-.1.85h0s0,0,0,0h0s0,0,0,0h0s0,0,0,0h0s0,0,0,0c0,0,0,0,0,0h0s0,0,0,0h0s0,0,0,0h0s0,0,0,0c.16-.16.17-.17.24-.31l.03-.08c.14-.43.15-.48.2-.84h0s0,0,0,0h0s0,0,0,0h0s0,0,0,0h0s0,0,0,0h0s0,0,0,0h0s-.07.08-.1.11c-.04.04-.09.09-.13.13-.03.03-.11.05-.12.09M11.49,7.9c.06-.19.14-.45.19-.64.01-.06.02-.12,0-.19h0s0,0,0,0h0s0,0,0,0h0c-.07.46-.08.49-.19.81M11.29,7.37s.03,0,.03.03c.23-.18.23-.18.35-.34h0s0,0,0,0h0s0,0,0,0h0c-.05-.2-.23-.39-.55-.57,0,0,0,0,0,0h0s0,0,0,0h0c.13.47.14.5.17.89M11.69,7.04h0s0,0,0,0h0s0,0,0,0c.01.06,0,.12,0,.18l.06-.27.02-.12c-.02.06-.04.14-.07.19h0M11.12,6.43h0s0,.01,0,.02c.32.18.5.38.55.57h0s0,0,0,0h0s0,0,0,0h0c.01-.47.01-.51-.05-.92,0,0-.02,0-.03-.02h0s0,0,0,0c-.21.19-.21.2-.48.37h0M11.64,6.03s0,0,0,.01h0s0,.02,0,.03c.07.5.07.52.05.92h0s0,0,0,0h0s0,0,0,0h0s0,0,0,0h0s0,0,0,0h0s0,0,0,0h0s0,0,0,0h0c.02-.05.06-.13.07-.19.03-.27.06-.63.07-.9v-.25s0,0,0,0h0s0,0,0,0h0s0,0,0,0h0s0,0,0,0h0s0,0,0,0h0s0,0,0,0h0s0,0,0,0h0s0,0,0,0c-.05.2-.05.2-.18.38h0M11.83,5.89v-.19s0-.03,0-.04h0v.23M11.61,5.98s.02,0,.03.02h0s0,0,0,0c.14-.19.14-.2.18-.38h0s0,0,0,0h0s0,0,0,0h0c-.05-.2-.22-.4-.53-.59,0,0,0,0,0,0h0s0,0,0,0h0c.21.49.23.52.33.94M11.82,5.61h0s0,.01,0,.01h0s0,.01,0,.01c0,.01,0,.03,0,.04v-.11s0,.05,0,.05h0M11.28,4.99h0s0,.01,0,.02c.31.19.49.39.53.58h0s0-.01,0-.01h0c-.07-.48-.08-.52-.21-.93,0,0,0,0,0,0,0,0-.01,0-.02-.03-.11.18-.11.19-.3.36h0M11.6,4.6s0,.03,0,.04c.15.48.16.51.21.93h0s0,0,0,0h0s0,0,0,0h0s0,0,0,0h0s0,0,0,0h0s0,0,0,0h0s0,0,0,0h0s0,0,0,0h0s0,0,0,0v-.05c-.02-.18-.04-.43-.07-.61-.04-.18-.09-.43-.14-.61,0,.04.02.09.02.12,0,.05-.04.1-.03.16M11.57,4.55s0,0,0,0c0,0,.01,0,.02.03.04-.17.04-.17.01-.28l-.04-.14c-.05-.17-.21-.34-.47-.5,0,0,0,0,0,0h0s0,0,0,0h0c.28.45.3.48.47.87M11.09,3.63h0s0,.01,0,.02c.26.16.41.33.47.5l-.05-.15-.03-.08c-.07-.17-.18-.4-.26-.57h0s0,0-.02-.03c-.01.16-.01.16-.11.31h0M11.21,3.31s.01.02.02.03c.08.16.18.38.25.54-.09-.21-.21-.49-.31-.69.01.03.03.08.04.11M11.17,3.26h0s0,0,.02.03c-.01-.03-.02-.08-.04-.11l-.03-.05-.2-.33c-.07-.1-.18-.21-.33-.31,0,0,0,0,0,0h0s0,0,0,0h0c.33.4.35.42.57.77M10.11,10.05s0,0,0,0l.07-.06h-.01s-.06.07-.06.07M9.85,9.17s.01-.01.02-.02l-.02.16s0,0-.01,0v-.13M11.23,5.02s0-.05,0-.08h0s.03,0,.03,0h0s0,0,0,0h0s0,0,0,0h0s0,0,0,0c.17-.16.21-.2.31-.37,0-.01-.05-.26-.48-.92h0s0,0,0,0h0s0,0,0,0h0s0,0,0,0c-.02-.02-.04-.04-.05-.06,0,0,.02-.01.03-.02h0s0,0,0,0h0s0,0,0,0h0s0,0,0,0c.09-.14.11-.17.12-.31-.03-.06-.16-.31-.59-.81h0s0,0,0,0h0s0,0,0,0h0s-.04-.04-.06-.07c0,0,.01,0,.02,0h0s0,0,0,0h0s0,0,0,0h0s0,0,0,0v-.09s.01,0,.02,0v.09s0,0,0,0h0s0,0,0,0c.16.11.27.21.34.31l.21.35c.26.53.27.55.39.87.17.58.18.6.24.94.08.61.08.63.08.99-.03.62-.03.66-.1,1.05-.13.6-.14.61-.25.93-.22.55-.23.57-.4.87-.3.5-.32.52-.53.79-.09.11-.21.25-.31.36.13-.13.17-.27.13-.41h0s0,0,0,0h0s0,0,0,0h0s-.15.24-.15.24c0,0,0,0,0,0l.14-.23h0s0,0,0,0h0s0,0,0,0h0s0,0,0,0h0s0,0,0,0h0s0,0,0,0h0s0,0,0,0h0s0,0,0,0h0s0,0,0,0l-.19.09s0,0,0,0l.2-.09h0s0,0,0,0h0s0,0,0,0h0c-.05-.14-.19-.29-.43-.42.03-.04.06-.08.08-.11.33-.14.38-.16.59-.27.06-.1.05-.47.01-.78.02-.05.05-.1.07-.16.3-.15.36-.19.57-.32,0,0,.06-.21-.16-.93h0s0,0,0,0c0-.03.01-.06.02-.09h0s0,0,0,0h0c.25-.16.31-.2.48-.37h0s.01-.24-.33-.98h0s0,0,0,0h0s0,0,0,0h0s0,0,0,0c0,0-.02-.02-.02-.02"/>
        <path class="cls-1" d="M8.64,8.59h0s0,0,0,0h0s0,0,0,0c.42.09.8.2,1.09.34,0,0,0,0,0,0h0s0,0,0,0h0c-.05-.38-.05-.41-.16-.74h0s0,0,0,0c-.01,0-.04,0-.05-.02-.45.21-.59.27-.89.42h0M7.12,8.38h0s0,.01,0,.02c.51.04.99.1,1.42.19h0s0,0,0,0h0s0,0,0,0h0c-.2-.37-.22-.39-.45-.7h0s0,0,0,0c-.02,0-.04.01-.07-.01-.39.22-.51.28-.91.52h0M5.42,8.34h0s0,0,0,0h0s0,0,0,0c.54-.02,1.07,0,1.58.03,0,0,0,0,0,0h0s0,0,0,0h0c-.31-.31-.36-.36-.69-.64h0s0,0,0,0c-.03.01-.05,0-.08,0-.37.26-.47.33-.83.61h0M3.73,8.49h0s0,.01,0,.01c.07-.01.15-.02.23-.03.43-.06.88-.09,1.34-.11h0s0,0,0,0h0s0,0,0,0h0c-.4-.27-.46-.31-.86-.56h0s0,0,0,0c-.03.01-.05.02-.08,0-.36.36-.39.39-.64.7h0M2.4,8.81h0s0,0,0,0h0s0,0,0,0c.33-.12.74-.22,1.22-.3,0,0,0,0,0,0h0s0,0,0,0h0q-.38-.2-.88-.46h0s0,0,0,0c-.01.01-.03.02-.06.01-.19.39-.2.4-.29.74h0M8.14,7.82s0,.03,0,.04c.27.38.29.4.45.71h0s0,0,0,0h0s0,0,0,0h0s0,0,0,0h0s0,0,0,0h0s0,0,0,0h0s0,0,0,0h0s0,0,0,0h0s0,0,0,0h0q.44-.21.89-.42s0-.02.02-.04c-.17-.4-.19-.43-.4-.77h0s0,0,0,0h0s0,0,0,0h-.01s0,0,0,0h0s0,0,0,0h0s0,0,0,0h0s0,0,0,0h0s0,0,0,0h0c-.41.2-.55.28-.95.49,0,0,0,0,0,0M6.35,7.68s0,.02,0,.04c.35.3.42.36.69.64h0s0,0,0,0h0s0,0,0,0h0s.02,0,.03,0h0s0,0,0,0h0s0,0,0,0c.41-.24.47-.28.92-.52,0-.02,0-.02,0-.04-.29-.33-.34-.39-.66-.71h0s0,0,0,0h0s0,0,0,0h0s-.01,0-.01,0c-.01,0-.02,0-.03,0h0s0,0,0,0c-.41.24-.53.32-.95.59,0,0,0,0,0,0M4.46,7.73s.01.02,0,.04c.42.26.5.31.86.56h0s0,0,0,0h0s0,0,0,0h0s0,0,0,0h0s.01,0,.01,0h0s0,0,0,0h0s0,0,0,0h0s0,0,0,0h0s0,0,0,0h0c.35-.28.42-.33.83-.61,0-.02,0-.02,0-.04-.39-.3-.45-.35-.85-.63h0s0,0,0,0h0s0,0,0,0h0s0,0,0,0h-.01s-.01,0-.01,0h0s0,0,0,0h0s0,0,0,0h0s0,0,0,0h0c-.38.29-.48.37-.84.69,0,0,0,0,0,0M2.75,7.99s.01.03.01.04c.58.3.65.34.88.46h0s0,0,0,0h0s0,0,0,0h0s.02,0,.03,0h0s0,0,0,0h0s0,0,0,0q.3-.36.65-.7s-.02-.02,0-.04q-.46-.27-.95-.53h0s0,0,0,0h0s0,0,0,0h0s-.01,0-.01,0c-.01,0-.02,0-.03,0h0s0,0,0,0h0s0,0,0,0c-.34.4-.35.41-.58.77,0,0,0,0,0,0M9.56,8.11h0s0,0,0,0c.01,0,.04,0,.05.02.51-.24.59-.27.82-.38h0s0,0,0,0c0,0,0,0,0-.01-.34-.16-.77-.29-1.26-.4h0s0,0,0,0h0s0,0,0,0h0c.24.41.26.44.4.77M8.05,7.79h0s0,0,0,0c.03,0,.05,0,.07.01.45-.24.48-.25.94-.49h0s0,0,0,0h0s0,0,0,0h0c-.5-.11-1.07-.19-1.67-.24,0,0,0,0,0,0h0s0,0,0,0h0c.33.33.4.4.66.71M6.24,7.66h0s0,0,0,0c.02,0,.05-.01.08,0,.42-.27.48-.31.94-.59h0s0,0,0,0c0,0,0,0,0-.01-.6-.04-1.23-.06-1.86-.04h0s0,0,0,0h0s0,0,0,0h0c.41.3.5.36.85.63M4.36,7.73h0s0,0,0,0c.02-.01.04-.02.08,0,.36-.31.42-.37.84-.69h0s0,0,0,0h0s0,0,0,0h0c-.56.01-1.11.06-1.65.13-.07,0-.14.02-.2.03h0s0,.01,0,.01h0s0,0,0,0c.42.23.56.31.94.53M2.66,8h0s0,0,0,0c.02-.02.04-.02.06-.01.26-.4.27-.41.58-.77h0s0,0,0,0c0,0,0,0,0-.01-.57.09-1.06.21-1.45.34h0s0,0,0,0h0s0,0,0,0h0s0,0,0,0q.41.22.82.44M9.18,7.28h0s0,0,0,0h0s0,0,0,0h0c.5.11.93.24,1.27.4,0,0,0,0,0,0h0s0,0,0,0h0c-.14-.44-.14-.46-.32-.83-.04.01-.06,0-.07-.02q-.31.16-.89.45h0M7.4,7.03h0s0,.01,0,.02c.6.05,1.16.13,1.67.23,0,0,0,0,0,0h0s0,0,0,0h0s0,0,0,0h0c-.27-.38-.31-.43-.61-.78-.03.01-.06.01-.09-.01-.4.22-.55.3-.99.55h0M5.4,6.98h0s0,0,0,0h0s0,0,0,0c.63-.02,1.26,0,1.86.04h0s0-.01,0-.01h0s0,0,0,0c-.38-.34-.43-.39-.83-.7-.05.02-.08,0-.1,0-.43.28-.54.35-.97.66h0M3.4,7.14h0s0,.01,0,.01c.07-.01.14-.02.2-.03.53-.07,1.09-.12,1.65-.14h0s0,0,0,0h0s0,0,0,0h0c-.45-.3-.51-.34-.95-.6-.04.03-.08.02-.1,0-.38.32-.49.42-.83.76h0M1.82,7.51h0s0,0,0,0h0s0,0,0,0c.39-.14.88-.25,1.45-.34,0,0,0,0,0-.01h0s0-.01,0-.01h0c-.37-.2-.57-.31-.91-.5-.03.03-.06.03-.08.02-.29.43-.3.44-.49.83h0M8.5,6.44s0,.03,0,.04c.31.36.38.44.62.78h0s0,0,0,0h.02s0,0,0,0c0,0,0,0,0,0h0s0,0,0,0h0s0,0,0,0h0s0,0,0,0h0s0,0,0,0q.62-.31.89-.45s0-.02,0-.04c-.27-.45-.28-.46-.56-.84h0s0,0,0,0h-.02s-.01,0-.01,0h0s0,0,0,0h0s0,0,0,0h0s0,0,0,0h0s0,0,0,0c-.32.17-.63.34-.95.51,0,0,0,0,0,0M6.48,6.27s0,.03,0,.04c.4.32.49.39.83.7h0s0,0,0,0h0s0,0,0,0h0s.03,0,.04,0h0s0,0,0,0c.46-.26.51-.29.99-.55,0-.02,0-.02,0-.04-.36-.37-.42-.42-.8-.76h0s0,0,0,0h0s0,0,0,0h0s-.01,0-.01,0c-.01,0-.02,0-.04,0h0s0,0,0,0c-.43.25-.57.33-1.02.62,0,0,0,0,0,0M4.35,6.32s0,.03,0,.04c.44.27.55.34.95.6h0s0,0,0,0h0s0,0,0,0h0s0,0,0,0h.01s.01,0,.01,0h0s0,0,0,0h0s0,0,0,0h0s0,0,0,0h0s0,0,0,0h0c.42-.3.49-.35.97-.66,0-.02,0-.02,0-.04-.44-.33-.5-.37-.94-.67h0s0,0,0,0h0s0,0,0,0h0s0,0,0,0h-.01s-.01,0-.01,0h0s0,0,0,0h0s0,0,0,0h0s0,0,0,0h0s0,0,0,0h0c-.43.31-.55.39-.98.72,0,0,0,0,0,0M2.39,6.61s.01.03,0,.04q.43.24.91.5h0s0,0,0,0h0s0,0,0,0h0s.02,0,.04,0h0s0,0,0,0h0s0,0,0,0c.35-.35.41-.4.83-.76-.01-.02-.01-.02,0-.04q-.49-.28-.98-.56h0s0,0,0,0h0s0,0,0,0h0s-.01,0-.01,0c-.02,0-.02,0-.03,0h0s0,0,0,0h0s0,0,0,0c-.43.42-.45.44-.76.82,0,0,0,0,0,0M10.09,6.76s.05,0,.07.02c.34-.17.45-.23.76-.41h0s0,0,0,0c0,0,0,0,0-.01-.36-.17-.83-.32-1.36-.44h0s0,0,0,0h0s0,0,0,0h0c.33.44.34.47.55.84M8.39,6.4s.05-.02.09.01c.32-.17.63-.34.95-.51h0s0,0,0,0h0s0,0,0,0h0c-.55-.12-1.16-.21-1.81-.27,0,0,0,0,0,0h0s0,0,0,0h0c.39.35.47.43.79.76M6.36,6.25s.06-.02.1,0c.46-.29.52-.32,1.02-.61h0s0,0,0,0c0,0,0,0,0-.01-.66-.05-1.34-.07-2.03-.06h0s0,0,0,0h0s0,0,0,0h0c.44.31.54.38.93.67M4.23,6.31s.05-.03.1,0c.42-.33.5-.39.97-.72h0s0,0,0,0h0s0,0,0,0h0c-.64.01-1.27.06-1.88.14-.05,0-.1.01-.15.02h0s0,.01,0,.01h0s0,0,0,0c.42.24.58.32.98.56M2.29,6.61s.07-.02.08-.02c.35-.43.37-.44.76-.82h0s0,0,0,0c0,0,0,0,0-.01-.63.1-1.17.22-1.61.37h0s0,0,0,0h0s0,0,0,0h0c.37.23.4.25.79.47M9.55,5.87h0s0,0,0,0h0s0,0,0,0c.54.12,1,.27,1.36.44,0,0,0,0,0,0h0s0,0,0,0h0c-.22-.48-.23-.5-.48-.89-.03.01-.05,0-.07-.02h0s0,0,0,0c-.37.21-.4.23-.83.46h0M7.61,5.59h0s0,.01,0,.02c.65.06,1.27.14,1.81.26h0s0,0,0,0h0s0,0,0,0h0c-.34-.4-.39-.46-.75-.82-.04.02-.07,0-.09,0h0s0,0,0,0c-.61.34-.65.37-1,.56h0M5.43,5.52h0s0,0,0,0h0s0,0,0,0c.69-.02,1.38,0,2.03.06h0s0-.01,0-.01h0s0,0,0,0c-.43-.36-.49-.4-.91-.73-.03.02-.06.02-.1,0h0s0,0,0,0c-.43.27-.58.36-1.04.67h0M3.25,5.7h0s0,.01,0,.02c.05,0,.1-.01.15-.02.61-.08,1.24-.13,1.88-.15h0s0,0,0,0h0s0,0,0,0h0c-.48-.31-.53-.35-.98-.63-.04.03-.07.02-.1.01h0s0,0,0,0c-.43.33-.55.43-.97.79h0M1.49,6.09h0s0,0,0,0h0s0,0,0,0c.44-.15.98-.27,1.61-.37,0,0,0,0,0-.01h0s0-.01,0-.01h0c-.41-.24-.54-.31-.88-.52-.02.02-.05.03-.08.02h0s0,0,0,0c-.38.45-.4.47-.66.87h0M8.72,4.98s0,0,0,.01c0,.01,0,.02,0,.03.37.38.45.46.75.82h0s0,0,0,0h0s0,0,0,0h.01s0,0,0,0h0s0,0,0,0h0s0,0,0,0h0s0,0,0,0h0s0,0,0,0h0c.36-.19.49-.27.83-.46h0s0,0,0-.01h0s0-.02,0-.03c-.3-.42-.36-.49-.69-.87h0s0,0,0,0h-.01s0,0,0,0h-.01s0,0,0,0h0s0,0,0,0h0s0,0,0,0h0s0,0,0,0h0c-.38.22-.44.26-.89.51,0,0,0,0,0,0M6.59,4.79h0s0,.03,0,.04c.43.33.53.41.92.73h0s0,0,0,0h0s0,0,0,0h0s.03,0,.05.01h0s0,0,0,0q.45-.26,1-.57s0,0,0-.01h0s0-.02,0-.03c-.4-.37-.48-.44-.89-.78h0s0,0,0,0h0s0,0,0,0h0s-.01,0-.01,0c-.02,0-.02,0-.03,0h0s0,0,0,0h0s0,0,0,0c-.42.25-.56.33-1.03.62h0M4.34,4.84h0s0,.03,0,.04c.45.28.57.35.98.63h0s0,0,0,0h0s0,0,0,0h0s0,0,0,0h.01s.01,0,.01,0h0s0,0,0,0h0s0,0,0,0h0s0,0,0,0h0s0,0,0,0c.48-.32.54-.36,1.04-.68h0s0-.01,0-.01h0s0-.02,0-.03c-.44-.32-.55-.39-.97-.68h0s0,0,0,0h0s0,0,0,0h0s0,0,0,0h-.01s-.01,0-.01,0h0s0,0,0,0h0s0,0,0,0h0s0,0,0,0h0s0,0,0,0h0c-.45.3-.58.38-1.05.73,0,0,0,0,0,0M2.25,5.14h0s0,0,0,0c0,0,0,.02,0,.03.43.26.45.27.89.52h0s0,0,0,0h0s0,0,0,0h0s.03,0,.04,0h0s0,0,0,0h0s0,0,0,0c.42-.37.49-.42.97-.79,0,0,0,0,0,0,0-.01,0-.02,0-.03-.45-.27-.54-.33-.96-.57h0s0,0,0,0h0s0,0,0,0h0s-.01,0-.01,0c-.02,0-.02,0-.03,0h0s0,0,0,0h0s0,0,0,0c-.42.36-.52.44-.91.84h0M10.38,5.34s.04,0,.07.02h0s0,0,0,0c.31-.19.37-.23.63-.42h0s0,0,0,0c0,0,0-.01,0-.01-.36-.18-.83-.34-1.38-.46h0s0,0,0,0h0s0,0,0,0h0c.39.45.41.48.69.87M8.61,4.95s.06-.01.09,0h0s0,0,0,0c.42-.24.49-.28.89-.51h0s0,0,0,0h0s0,0,0,0h0c-.55-.13-1.18-.22-1.84-.28h0s0,.01,0,.01h0s0,0,0,0c.43.36.51.43.88.78M6.47,4.77s.07-.01.1,0h0s0,0,0,0c.45-.27.57-.35,1.03-.61h0s0,0,0,0c0,0,0,0,0-.01-.67-.06-1.37-.08-2.08-.06h0s0,0,0,0h0s0,0,0,0h0c.45.31.55.37.97.68M4.21,4.83s.07-.02.1-.01h0s0,0,0,0c.45-.33.56-.4,1.05-.73h0s0,0,0,0h0s0,0,0,0h0c-.68.01-1.36.06-2.01.15-.03,0-.05,0-.08.01h0s0,.01,0,.01h0s0,0,0,0c.42.25.54.32.95.57M2.15,5.14s.06-.03.08-.02h0s0,0,0,0c.43-.44.45-.46.9-.84h0s0,0,0,0c0,0,0,0,0-.01-.65.1-1.21.23-1.67.37h0s0,.01,0,.01h0s0,0,0,0h0c.31.23.36.27.71.48M9.69,4.42h0s0,0,0,0h0s0,0,0,0c.54.13,1.01.28,1.38.46,0,0,0,0,0,0h0s0,0,0,0h0c-.3-.48-.31-.5-.62-.88-.03.01-.06,0-.07-.02-.3.19-.33.21-.7.44h0M7.73,4.12h0s0,.01,0,.02c.66.06,1.29.15,1.84.27h0s0,0,0,0h0s0,0,0,0h0c-.39-.39-.45-.45-.84-.79-.03.01-.06,0-.09-.01-.54.3-.64.36-.93.53h0M5.5,4.04h0s0,0,0,0h0s0,0,0,0h0c.71-.01,1.41.01,2.08.07h0s0-.01,0-.01h0s0,0,0,0c-.46-.35-.52-.39-.95-.69-.02.01-.06.02-.11,0-.43.25-.57.33-1.05.63h0M3.26,4.21h0s0,.01,0,.02c.03,0,.05,0,.08-.01.65-.09,1.33-.14,2.01-.16h0s0,0,0,0h0s0,0,0,0h0s0,0,0,0c-.48-.3-.52-.33-.95-.59-.02.01-.06.03-.11,0-.45.3-.58.39-1.05.75h0M1.45,4.61h0s0,0,0,0h0s0,0,0,0c.46-.15,1.02-.28,1.67-.37,0,0,0,0,0-.01h0s0-.01,0-.01h0c-.38-.23-.5-.3-.8-.49-.03.02-.06.03-.09.02-.44.42-.47.45-.8.85h0M8.76,3.55s0,.02,0,.04c.4.35.49.43.84.79h0s0,0,0,0h.01s0,0,0,0h.01s0,0,0,0h0s0,0,0,0h0s0,0,0,0h0s0,0,0,0h0s0,0,0,0c.31-.19.43-.26.71-.44,0,0-.01-.02,0-.04-.36-.39-.41-.45-.79-.79h0s0,0,0,0h0s0,0,0,0h0s0,0,0,0h0s-.01,0-.01,0c0,0,0,0,0,0h0s0,0,0,0h0s0,0,0,0h0s0,0,0,0h0q-.34.2-.76.44s0,0,0,0M6.67,3.36s0,.02,0,.04c.44.31.55.38.96.7h0s0,0,0,0h0s0,0,0,0h0s.02,0,.05,0h0s0,0,0,0h0q.46-.26.93-.53s-.01-.02,0-.04c-.44-.35-.5-.4-.93-.7h0s0,0,0,0h0s0,0,0,0h-.02s-.02,0-.03,0h0s0,0,0,0h0c-.42.23-.57.31-.96.53,0,0,0,0,0,0M4.44,3.4s0,.02,0,.04c.43.26.54.32.96.59h0s0,0,0,0h0s0,0,0,0h0s0,0,0,0h.01s.01,0,.01,0h0s0,0,0,0h0s0,0,0,0h0s0,0,0,0h0c.49-.3.55-.34,1.05-.63,0-.01-.01-.02,0-.04-.47-.31-.52-.34-.95-.6h0s0,0,0,0h0s0,0,0,0h0s0,0,0,0h-.01s-.01,0-.01,0h0s0,0,0,0h0s0,0,0,0h0s0,0,0,0h0s0,0,0,0h0c-.44.26-.58.33-1.06.64,0,0,0,0,0,0M2.36,3.68s0,.02,0,.04c.38.23.4.25.81.49h0s0,0,0,0h0s0,0,0,0h0s.03,0,.04,0h0s0,0,0,0h0s0,0,0,0c.47-.36.54-.41,1.05-.75-.01-.02,0-.02,0-.04-.46-.27-.47-.27-.87-.49h0s0,0,0,0h0s0,0,0,0h0s-.01,0-.01,0c-.02,0-.02,0-.03,0h0s0,0,0,0h0c-.44.31-.55.39-.99.75,0,0,0,0,0,0M10.38,3.91s.06,0,.07.02c.23-.16.29-.21.46-.36h0s0,0,0,0c0,0,0,0,0-.01-.34-.18-.78-.33-1.3-.45h0s0,0,0,0h0s0,0,0,0h0c.43.4.46.43.78.79M8.65,3.52s.08,0,.09.01c.4-.23.52-.29.76-.43h0s0,0,0,0h0s0,0,0,0h0c-.53-.12-1.12-.21-1.75-.27h0s0,0,0,0h0s0,0,0,0c.43.31.53.38.92.69M6.54,3.34s.06-.02.11,0c.47-.26.5-.28.96-.53h0s0,0,0,0c0,0,0,0,0-.01-.64-.06-1.31-.08-1.99-.07h0s0,0,0,0h0s0,0,0,0h0s0,0,0,0c.42.26.54.33.95.59M4.31,3.39s.06-.03.11,0c.48-.3.56-.35,1.05-.64h0s0,0,0,0h0s0,0,0,0h0c-.68.01-1.35.06-2,.15,0,0,0,0,0,0h0s0,.01,0,.01h0s0,0,0,0c.36.2.5.28.87.49M2.26,3.69s.06-.03.09-.02c.41-.35.5-.42.98-.75h0s0,0,0,0c0,0,0,0,0,0-.63.09-1.18.21-1.62.35h0s0,0,0,0h0s0,0,0,0h0c.25.2.28.22.58.42M9.59,3.08h0s0,0,0,0h0s0,0,0,0c.51.12.96.27,1.3.45,0,0,0,0,0,0h0s0,0,0,0h0c-.36-.43-.37-.45-.71-.78h0s0,0,0,0c-.01,0-.03,0-.06-.02-.21.15-.24.17-.54.35h0M7.73,2.78h0s0,.01,0,.02c.63.06,1.23.15,1.75.27h0s0,0,0,0h0s0,0,0,0h0c-.42-.35-.47-.4-.88-.69h0s0,0,0,0c-.02,0-.04,0-.08-.02q-.23.13-.81.43h0M5.6,2.7h0s0,0,0,0h0s0,0,0,0c.68-.01,1.35.01,1.99.07h0s0,0,0,0h0s0,0,0,0c-.45-.3-.51-.34-.93-.59h0s0,0,0,0c-.02,0-.05,0-.09,0-.39.2-.53.28-.98.52h0M3.45,2.85h0s0,.01,0,.01h0c.65-.09,1.32-.14,2-.15h0s0,0,0,0h0s0,0,0,0h0c-.45-.26-.48-.28-.87-.5h0s0,0,0,0c-.03,0-.06.01-.09,0-.44.25-.57.33-1.05.64h0M1.69,3.23h0s0,0,0,0h0s0,0,0,0c.45-.14.99-.26,1.62-.35,0,0,0,0,0,0h0s0,0,0,0h0c-.34-.2-.42-.24-.68-.4h0s0,0,0,0c-.02,0-.04.02-.07.01-.47.36-.5.39-.88.74h0M8.62,2.32s0,.02,0,.03c.41.3.51.38.88.69h0s0,0,0,0h0s0,0,0,0h0s0,0,0,0h0s0,0,0,0c0,0,0,0,0,0h0s0,0,0,0h0s0,0,0,0h0s0,0,0,0h0s0,0,0,0c.26-.16.33-.21.54-.35,0,0-.01-.02-.01-.03-.38-.34-.44-.39-.83-.68h0s0,0,0,0h0s0,0,0,0h0s0,0,0,0h0s0,0,0,0h0s0,0,0,0h0s0,0,0,0h0s0,0,0,0h0c-.24.15-.27.16-.6.34,0,0,0,0,0,0M6.69,2.14s0,.02,0,.03c.42.25.53.32.93.59h0s0,0,0,0h0s0,0,0,0h0s.03,0,.04,0h0s0,0,0,0h0q.6-.32.81-.43s-.01-.02,0-.03c-.44-.3-.5-.33-.91-.58h0s0,0,0,0h0s0,0,0,0h0s-.01,0-.01,0c-.01,0-.02,0-.03,0h0s0,0,0,0h0s0,0,0,0c-.49.24-.54.27-.84.42,0,0,0,0,0,0M4.62,2.16s0,.02,0,.03c.37.2.5.27.88.49h0s0,0,0,0h0s0,0,0,0h0s0,0,0,0h.01s.01,0,.01,0h0s0,0,0,0h0s0,0,0,0h0s0,0,0,0h0s0,0,0,0h0c.47-.26.52-.28.98-.52-.01-.01-.01-.02,0-.03-.44-.25-.48-.28-.87-.49h0s0,0,0,0h0s0,0,0,0h0s0,0,0,0h-.01s-.01,0-.01,0h0s0,0,0,0h0s0,0,0,0h0s0,0,0,0h0s0,0,0,0c-.4.2-.53.27-.99.52,0,0,0,0,0,0M2.68,2.42s0,.01-.01.03c.3.18.33.21.68.4h0s0,0,0,0h0s0,0,0,0h0s.02,0,.04,0h0s0,0,0,0h0s0,0,0,0c.48-.31.55-.35,1.05-.64,0,0,0-.02,0-.03q-.35-.19-.74-.4h0s0,0,0,0h0s0,0,0,0h0s-.01,0-.01,0c-.01,0-.02,0-.03,0h0s0,0,0,0c-.43.26-.55.32-.99.63,0,0,0,0,0,0M10.11,2.66h0s0,0,0,0c0,0,.03,0,.06.02.18-.16.19-.16.27-.29h0s0,0,0,0c0,0,0,0,0-.01-.3-.16-.69-.3-1.15-.41h0s0,0,0,0h0s0,0,0,0h0c.44.34.48.37.82.68M8.52,2.29h0s0,0,0,0c.01,0,.04,0,.08.02.28-.16.37-.2.59-.34h0s0,0,0,0h0s0,0,0,0h0c-.47-.11-1-.2-1.56-.25h0s0,0,0,0h0s0,0,0,0c.42.25.51.31.9.58M6.57,2.12h0s0,0,0,0c.02,0,.05-.01.09,0q.4-.2.84-.42h0s0,0,0,0c0,0,0,0,0,0-.57-.05-1.17-.08-1.78-.07h0s0,0,0,0h0s0,0,0,0h0c.38.21.49.27.87.49M4.51,2.16h0s0,0,0,0c.02,0,.05-.02.09,0,.47-.25.53-.29.99-.52h0s0,0,0,0h0s0,0,0,0h0c-.61,0-1.22.05-1.8.12h0s0,0,0,0h0s0,0,0,0c.46.24.54.29.74.39M2.59,2.43h0s0,0,0,0c.03-.02.05-.02.07-.01.44-.3.51-.35.99-.63h0s0,0,0,0h0c-.57.07-1.07.18-1.48.3h0s0,0,0,0h0s0,0,0,0h0c.17.15.2.18.43.33M1.76,2.23s0,0,0-.01c.1-.04.21-.08.33-.12h0s0,0,0,0h0s0,0,0,0h0s-.09-.11-.09-.11c0,0,.01,0,.02,0l.08.1h0s0,0,0,0h0s0,0,0,0h0s0,0,0,0h0s0,0,0,0h0s0,0,0,0h0s0,0,0,0h0s0,0,0,0l.3-.22s.02,0,.03,0l-.32.23h0s0,0,0,0h0s0,0,0,0h0c.41-.12.9-.23,1.47-.31h0s0-.02,0-.02h0s-.21-.12-.21-.12c.01,0,.02,0,.03,0l.2.11h0s0,0,0,0h0s0,0,0,0h0s.01,0,.01,0h.03s0,0,0,0h0s.34-.19.34-.19c.01,0,.02,0,.03,0l-.36.2h0s0,0,0,0h0c.58-.07,1.19-.11,1.8-.12h0s0,0,0,0h0s0,0,0,0h0s-.29-.15-.29-.15c.01,0,.02,0,.03,0l.27.14h0s0,0,0,0h0s0,0,0,0h0s0,0,0,0h.01s.01,0,.01,0h0s0,0,0,0h0s0,0,0,0h0s0,0,0,0h0s0,0,0,0l.31-.15s.02,0,.03,0l-.33.16h0s0,0,0,0h0s0,0,0,0h0c.61,0,1.21.02,1.78.07h0s0-.01,0-.01h0s-.32-.18-.32-.18c.01,0,.02,0,.03,0l.3.17h0s0,0,0,0h0s0,0,0,0h0s.01,0,.01,0h.03s0,0,0,0h0s.24-.12.24-.12c.01,0,.02,0,.03,0l-.25.13h0s0,0,0,0h0c.57.06,1.1.15,1.56.26h0s0,0,0,0h0s0,0,0,0h0s-.31-.22-.31-.22c0,0,.02,0,.03,0l.3.2h0s0,0,0,0h0s0,0,0,0h0s0,0,0,0h0s0,0,0,0h0s0,0,0,0h0s0,0,0,0h0s0,0,0,0h0s0,0,0,0h0s.14-.1.14-.1c0,0,.02,0,.02,0l-.15.1h0s0,0,0,0h0s0,0,0,0h0c.46.12.85.25,1.14.41h0s0-.01,0-.01h0s-.26-.25-.26-.25c0,0,.01,0,.02,0l.25.24h0s0,0,0,0h0s0,0,0,0h0s0,0,0,0c.01.01.03.02.04.03,0,.01.02.02.02.04h0s-.02,0-.02,0h0s0,0,0,0h0s0,0,0,0h0s0,0,0,0c-.09.12-.1.14-.27.29.43.46.54.58.73.82h0s0,0,0,0h0s0,0,0,0h0s0,0,0,0c.02.02.04.06.05.09,0,0-.02,0-.03,0h0s0,0,0,0h0s0,0,0,0h0s0,0,0,0c-.17.15-.2.18-.46.36.44.61.48.68.63.92h0s0,0,0,0h0s0,0,0,0h0s0,0,0,0c.02.02.03.06.04.09-.01,0-.03,0-.04,0h0s0,0,0,0h0s0,0,0,0h0s0,0,0,0c-.25.18-.3.22-.63.42h0s0,.01,0,.01c.34.63.37.68.48.93h0s0,0,0,0h0s0,0,0,0h0s0,0,0,0c0,.01.02.03.03.05,0,.01-.01.03-.02.05-.01,0-.03,0-.04,0h0s0,0,0,0h0s0,0,0,0h0s0,0,0,0c-.33.18-.36.2-.76.41q.24.63.31.88h0s0,0,0,0h0s0,0,0,0h0s.01.04.02.06c-.01.01-.02.03-.04.04,0,0-.02,0-.03,0h0s0,0,0,0h0s0,0,0,0h0s0,0,0,0q-.37.17-.82.38c.12.55.12.57.14.78h0s0,0,0,0h0s0,0,0,0h0s0,.04,0,.06c-.01,0-.03.02-.04.03,0,0-.01,0-.02,0h0s0,0,0,0h0s0,0,0,0h0s0,0,0,0l-.28.11s-.01,0-.02,0l.29-.12h0s0,0,0,0h0c-.29-.14-.66-.26-1.08-.35h0s0,0,0,0h0s0,0,0,0h0s.1.25.1.25c0,0-.01,0-.02,0l-.1-.23h0s0,0,0,0h0s0,0,0,0h0s0,0,0,0h0s0,0,0,0c0,0,0,0,0,0h0s0,0,0,0h0s0,0,0,0h0s0,0,0,0h0s-.3.15-.3.15c0,0-.02,0-.03,0l.32-.16h0s0,0,0,0h0s0,0,0,0h0c-.43-.09-.91-.16-1.42-.2h0s0,.02,0,.02h0s.2.23.2.23c0,0-.02,0-.03,0l-.19-.22h0s0,0,0,0h0s0,0,0,0h0s0,0,0,0h-.03s0,0,0,0h0s0,0,0,0l-.29.18s-.02,0-.03,0l.31-.19h0s0,0,0,0h0c-.51-.05-1.05-.06-1.58-.04h0s0,0,0,0h0s0,0,0,0h0s0,0,0,0l.27.2s-.02,0-.03,0l-.26-.19h0s0,0,0,0h0s0,0,0,0h0s0,0,0,0h0s-.01,0-.01,0h0s0,0,0,0h0s0,0,0,0h0s0,0,0,0h0s0,0,0,0h0s-.24.21-.24.21c0,0-.02,0-.03,0l.26-.22h0s0,0,0,0h0s0,0,0,0h0c-.45.01-.9.05-1.33.11-.08.01-.15.02-.23.03h0s0,.02,0,.02h0s.32.17.32.17c0,0,0,0,0,0,0,0-.01,0-.02,0l-.3-.16h0s0,0,0,0h0s0,0,0,0h0s0,0,0,0h-.03s0,0,0,0h0s0,0,0,0l-.15.23s-.02,0-.03,0l.16-.25h0s0,0,0,0h0c-.48.07-.89.17-1.22.29h0s0,0,0,0h0s0,0,0,0h0s.29.14.29.14c0,0-.01,0-.02,0l-.27-.13h0s0,0,0,0h0s0,0,0,0h0s0,0,0,0h0s0,0,0,0h0s0,0,0,0h0s0,0,0,0h0s0,0,0,0l-.03.18s0-.01-.01-.02l.02-.17h0s0,0,0,0h0s0,0,0,0h0s-.07.02-.1.04c0,0,0-.01,0-.02.03-.01.07-.03.1-.04h0s0,0,0,0h0s0,0,0,0h0s-.2-.1-.2-.1c0,0,0-.01-.01-.02l.22.11h0s0,0,0,0h0s0,0,0,0h0s0,0,0,0h0s0,0,0,0c0,0,0,0,0,0h0s0,0,0,0h0s0,0,0,0h0s0,0,0,0h0c.09-.32.11-.39.29-.74q-.28-.17-.84-.47h0s0,0,0,0h0s0,0,0,0h0s0,0,0,0h0s0,0,0,0h0s0,0,0,0h0s0,0,0,0h0s0,0,0,0h0s-.1.27-.1.27c0,0,0-.02-.01-.02l.09-.25h0s0,0,0,0h0s0,0,0,0h0c-.06.02-.11.04-.16.06,0,0,0-.01,0-.02.05-.02.11-.04.16-.06h0s0,0,0,0h0s0,0,0,0h0s-.25-.15-.25-.15c0,0,0-.02,0-.03l.27.15h0s0,0,0,0h0s0,0,0,0h0s0,0,0,0h0s0,0,0,0h0s0,0,0,0h0s0,0,0,0h0s0,0,0,0h0c.18-.36.22-.44.49-.83q-.19-.13-.8-.51h0s0,0,0,0h0s0,0,0,0h0s0,0,0,0h0s0,0,0,0c0,0,0,0,0,0h0s0,0,0,0h0s0,0,0,0h0s0,0,0,0h0c-.06.11-.14.25-.19.36,0,0,0-.02,0-.03.05-.1.12-.24.18-.34h0s0,0,0,0h0s0,0,0,0h0c-.08.02-.16.05-.23.08,0,0,0-.01,0-.02.07-.03.15-.06.23-.09h0s0,0,0,0h0s0,0,0,0h0c-.08-.06-.2-.13-.28-.19,0,0,0-.02,0-.03.09.06.21.14.3.2h0s0,0,0,0h0s0,0,0,0h0s0,0,0,0h0s0,0,0,0h0s0,0,0,0h0s0,0,0,0h0s0,0,0,0h0s0,0,0,0h0c.26-.39.32-.47.66-.88h0s0,0,0,0c-.23-.18-.47-.34-.71-.51h0s0,0,0,0h0s0,0,0,0h0s0,0,0,0h0s0,0,0,0c0,0,0,0,0,0h0s0,0,0,0h0s0,0,0,0h0s0,0,0,0h0c-.09.13-.22.3-.31.44,0,0,0-.02,0-.03.09-.13.2-.3.29-.42h0s0,0,0,0h0s0,0,0,0h0c-.1.03-.19.06-.28.1,0,0,0-.01,0-.02.09-.04.18-.07.28-.11h0s0,0,0,0h0s0,0,0,0h0c-.08-.07-.19-.16-.27-.23,0,0,0-.02,0-.03.08.07.2.16.28.23h0s0,0,0,0h0s0,0,0,0h0s0,0,0,0h0s0,0,0,0h0s0,0,0,0h0s0,0,0,0h0s0,0,0,0h0s0,0,0,0c.33-.39.4-.47.8-.85-.19-.16-.39-.3-.58-.45h0s0,0,0,0h0s0,0,0,0h0s0,0,0,0h0s0,0,0,0h0s0,0,0,0h0s0,0,0,0h0s0,0,0,0h0c-.13.14-.3.32-.42.46,0,0,0-.02,0-.02.12-.13.28-.31.41-.44h0s0,0,0,0h0s0,0,0,0h0c-.11.03-.22.07-.32.11,0,0,0-.01,0-.02.1-.04.21-.08.32-.12h0s0,0,0,0h0s0,0,0,0h0c-.07-.07-.16-.15-.22-.22,0,0,0-.02,0-.02.07.07.16.16.23.22h0s0,0,0,0h0s0,0,0,0h0s0,0,0,0h0s0,0,0,0h0s0,0,0,0h0s0,0,0,0h0s0,0,0,0h0c.37-.34.45-.41.88-.74-.14-.13-.28-.24-.42-.37h0s0,0,0,0h0s0,0,0,0h0s0,0,0,0h0s0,0,0,0h0s0,0,0,0h0s0,0,0,0h0s0,0,0,0h0c-.16.13-.37.31-.52.45,0,0,0-.01,0-.02.15-.13.35-.31.5-.43h0s0,0,0,0h0s0,0,0,0h0c-.12.04-.23.08-.33.12"/>
        <path class="cls-1" d="M5.89,11.53c-.18-.02-.42-.04-.6-.07h0s0,0,0,0h0s0,0,0,0h0s0,0,0,0c0,0,0,0,0,0h0c.18.02.42.06.6.07h0M5.89,11.53c-.18,0-.42,0-.61,0h0s0,0,0,0h0s0,0,0,0h0s0,0,0,0h0s0,0,0,0h0s0,0,0,0h0c.18,0,.42.01.61,0h0M5.89,11.53c-.16.02-.36.05-.52.06h0s0,0,0,0h0s0,0,0,0h0,0s0,0,0,0h0s0,0,0,0h0s0,0,0,0h0c.16-.02.36-.03.52-.06t0,0M5.91,11.54c-.11.03-.25.08-.36.11h0s0,0,0,0h0s0,0,0,0h0s0,0,0,0h0s0,0,0,0h0s0,0,0,0c.11-.03.25-.07.35-.11,0,0,0,0,0,0M5.92,11.54s-.1.1-.15.13h0s0,0,0,0h0s0,0,0,0h0s0,0,0,0h0s.1-.09.14-.13h0M5.89,11.53s0,0,0,0c-.18-.02-.43-.04-.61-.07h0s0,0,0,0c0,0,0,0-.01,0-.02.02-.02.05,0,.07h0s0,0,0,0h0s0,0,0,0h0c.19,0,.43.01.62,0M5.89,11.53s0,0,0,0c0,0,0,0,0,0-.19,0-.43,0-.62,0h0s0,0,0,0h0s0,0,0,0c.01.02.03.03.06.05,0,0,.02.01.03.02h.02s0,0,0,0c.16-.02.37-.03.53-.06M5.91,11.54s0,0-.01,0c-.16.02-.37.05-.53.06h0s0,0-.01,0c.05.02.1.04.17.05h0s0,0,0,0h0s0,0,0,0h0c.11-.03.26-.07.37-.11M5.92,11.54s0,0-.01,0c-.11.04-.25.08-.36.11h0s0,0,0,0h0s0,0,0,0c.07.01.14.02.22.03,0,0,0,0,0,0h0s0,0,0,0h0s.11-.09.15-.14M5.21,11.52h0s0,0,0,0h0s0-.05,0-.07c0,0,0,0,0,0h0s0,0,0,0h0c-.32-.04-.39-.05-.68-.09t.01,0s0,0-.01,0c.34.1.35.11.68.16h0M5.31,11.59h0s0,0,.01,0c-.01,0-.02-.01-.03-.02-.03-.02-.05-.04-.06-.05h0s0,0,0,0h0s0,0,0,0h0c-.29,0-.36,0-.6-.02,0,0,.01,0,.02,0,0,0,0,0,0,0h0c.36.07.38.07.69.08h0M5.5,11.65h0s0,0,0,0h0s0,0,0,0c-.07-.01-.13-.03-.18-.05,0,0,0,0,0,0h0c-.22.02-.27.03-.42.04.01,0,.02,0,.02,0,0,0,0,0,0,0,.32.03.34.03.58.01h0M5.75,11.69h0s0,0,0,0c-.08,0-.16-.02-.23-.03h0s0,0,0,0h0s0,0,0,0h0c-.12.04-.14.05-.18.07.02,0,.02,0,.02,0,.24,0,.25,0,.4-.04h0M4.48,11.34s.03,0,.04,0c.33.05.37.05.69.09h0s0,0,0,0h0s0,0,0,0h0s0,0,0,0h0q-.27-.08-.61-.24c-.31-.07-.42-.1-.7-.17h0s0,0,0,0h0s0,0,0,0h0s0,0,0,0c0,0,0,0,0,0h0c.29.18.48.28.59.3M4.56,11.49s.03,0,.04,0c.27.01.31.01.6.02h0s0,0,0,0h0s0,0,0,0h0s0,0,0,0h0s0,0,0,0h0s0,0,0,0h0s0,0,0,0h0q-.34-.06-.72-.17c-.29-.04-.37-.06-.62-.1h0s0,0,0,0h0s0,0,0,0h0s0,0,0,0h0s0,0,0,0h0s0,0,0,0h0s0,0,0,0h0c.49.2.66.23.7.24M4.86,11.63s.02,0,.03,0c.18-.01.2-.01.42-.04h0s0,0,0,0h0s0,0,0,0h0s0,0,0,0h0s0,0,0,0h0s0,0,0,0h0s0,0,0,0h0c-.3-.02-.35-.02-.73-.09-.22-.01-.28-.02-.44-.04h0s0,0,0,0h0s0,0,0,0h0s0,0,0,0h0s0,0,0,0h0s0,0,0,0h0s0,0,0,0h0s0,0,0,0c.48.13.65.16.71.16M5.3,11.73s0,0,.02,0c.05-.02.07-.03.18-.07h0s0,0,0,0h0s0,0,0,0h0s0,0,0,0h0s0,0,0,0h0c-.22.01-.3.02-.61-.01-.13,0-.15,0-.19,0h.04s.1.03.1.03c.34.05.45.06.47.06M5.83,11.77s0,0,0,0c-.08-.03-.08-.03-.08-.08h0s0,0,0,0h0s0,0,0,0h0s0,0,0,0h0c-.14.03-.2.04-.42.04,0,0,0,0,0,0,0,0,0,0,0,0h.03q.18.02.27.02h.08s.09,0,.12,0h0M4.47,11.34s0,0-.01,0t.01,0c-.32-.13-.33-.14-.58-.3h0s0,0,0,0c0,0,0,0-.01,0-.06.07-.07.14-.04.21h0s0,0,0,0h0s0,0,0,0h0c.28.05.32.06.62.1M4.56,11.5s-.01,0-.02,0c0,0,0,0,0,0-.36-.1-.38-.11-.69-.24h0s0,0,0,0h0s0,0,0,0h0c.03.06.1.11.19.17.02.01.05.03.07.04,0,0,0,0,0,0h0s0,0,0,0h0c.19.02.21.02.44.04M4.87,11.64s-.01,0-.02,0c0,0,0,0,0,0-.35-.06-.37-.06-.7-.16h0s0,0,0,0c.12.05.27.1.43.14l.11.02c.08,0,.08,0,.19,0M5.32,11.73s-.02,0-.02,0h0c-.26-.02-.27-.02-.45-.06.07.01.15.03.22.04.08.01.18.02.26.03,0,0,0,0,0,0,0,0,0,0,0,0M3.8,11.23h0s0,0,0,0h0s0,0,0,0h0c-.03-.07-.02-.14.04-.21,0,0,0,0,0,0h0s0,0,0,0h0c-.3-.08-.39-.1-.65-.18h0s0,0,0,.01c0,0,0,0,0,0t-.01,0c.3.21.31.22.62.38h0M4.08,11.45h0s0,0,0,0c-.03-.01-.05-.03-.08-.04-.1-.05-.16-.11-.19-.17,0,0,0,0,0,0h0s0,0,0,0h0s0,0,0,0h0c-.24-.05-.3-.06-.48-.11h0s.01,0,.02.01c0,0,0,0,0,0,.38.18.39.19.74.31h0M4.12,11.47s0,0,0,0h0s0,0,0,0h0c-.05-.01-.12-.02-.17-.04.11.04.27.09.38.12.07.02.16.04.22.06-.16-.04-.3-.08-.42-.14M3.13,10.8s.03.01.03.02c.31.09.34.1.65.18h0s0,0,0,0h0s0,0,0,0h0s0,0,.01,0h0c-.05-.04-.13-.1-.17-.15-.1-.1-.18-.22-.28-.31-.31-.11-.42-.15-.7-.25h0s0,0,0,0h0s0,0,0,0h0s0,0,0,0h0s0,0,0,0h0c.32.42.44.49.47.51M3.27,11.1s.03.01.03.02c.21.06.24.06.48.11h0s0,0,0,0h0s0,0,0,0h0s0,0,0,0h0s0,0,0,0h0s0,0,0,0h0s0,0,0,0h0q-.2-.1-.65-.4c-.27-.08-.33-.1-.54-.18h0s0,0,0,0h0s0,0,0,0h0s0,0,0,0h0s0,0,0,0h0s0,0,0,0h0s0,0,0,0h0c.44.33.61.42.67.45M4.08,11.46h0s0,0,0,0h0s0,0,0,0h0s0,0,0,0h0s0,0,0,0h0s0,0,0,0h0c-.33-.12-.39-.14-.77-.33-.07-.02-.15-.06-.22-.09.4.21.42.21.7.33l.14.05c.05.01.12.03.17.04M3.12,10.81h0s0-.01,0-.01c0,0,0,0,.01,0-.26-.24-.28-.26-.46-.51h0s0,0,0,0c0,0,0,0-.01,0-.1.11-.12.22-.08.33h0s0,0,0,0h0s0,0,0,0h0c.24.09.27.1.54.18M3.28,11.12h0s-.01-.01-.02-.01c0,0,0,0,0,0-.36-.21-.38-.22-.67-.45h0s0,0,0,0h0s0,0,0,0h0c.05.09.14.17.27.26l.17.1.04.02c.06.03.15.06.22.09M2.54,10.6h0s0,0,0,0h0s0,0,0,0c-.05-.11-.02-.23.08-.34,0,0,0,0,0,0h0s0,0,0,0h0c-.29-.11-.36-.14-.6-.25,0,.01,0,.02,0,.02t-.01,0c.24.31.25.32.53.57h0M2.56,10.64h0s0,0,0,0h0s0,0,0,0h0c-.22-.1-.23-.11-.35-.19,0,0,.02.01.03.02,0,0,0,0,0,0h0c.18.14.43.32.62.44-.14-.08-.23-.17-.27-.26M5.9,11.52h0c-.15-.04-.36-.08-.51-.13,0,0,.01,0,.02,0,.15.04.34.09.49.12M5.9,11.77s0,0,0,0h-.04s-.1,0-.14,0h-.09q-.18-.02-.27-.02c-.19-.02-.2-.02-.3-.04-.22-.03-.22-.04-.34-.06-.25-.06-.27-.06-.41-.1-.31-.09-.34-.1-.54-.18-.36-.15-.43-.18-.75-.36-.4-.25-.48-.3-.84-.58l-.04-.03h0c-.13-.11-.29-.27-.41-.39,0,0,0,0,0,0,.12.12.29.29.42.4.07.05.12.1.39.22h0s0,0,0,0h0s0,0,0,0h0s0,0,0,0h0s0,0,0,0h0s0,0,0,0h0s0,0,0,0h0s0,0,0,0h0c-.25-.24-.31-.29-.53-.57-.1-.08-.23-.13-.34-.19,0,0,0,0,0,0,.09.05.21.11.3.16-.06-.16-.15-.29-.22-.44,0,0,0,0,0,0,.06.13.16.31.23.43.08.06.47.21.63.28h0s0,0,0,0h0s0,0,0,0h0s0,0,0,0h0s0,0,0,0h0c-.14-.25-.17-.31-.25-.61-.01,0-.03-.03-.48-.24,0,0,0,0,0,0,.13.06.31.14.44.2,0,0,0-.01,0-.02,0,0,.02,0,.02,0-.01-.13-.03-.3-.03-.43,0,0,.01,0,.02,0,0,.13,0,.32.02.45.05.04.47.22.63.29,0,0,.01.01.02.02-.36-.15-.43-.18-.61-.26,0,0,0,.01,0,.02,0,0-.02,0-.02,0,.08.28.1.34.25.61h0s0,0,0,0h0c.11-.09.26-.19.47-.27,0,0,0,0,.01.01-.21.09-.37.18-.46.28h0s0,.01,0,.01h0c.34.13.35.13.69.25h0s0,0,0,0c0,0,.01,0,.02-.01-.12-.23-.13-.27-.18-.45,0,0,.01.01.02.02.08.26.08.28.18.44.04.03.29.11.67.25,0,0,.01,0,.02.01-.22-.08-.44-.15-.65-.23h0s0,0,0,0c0,0-.01,0-.02.01.16.21.19.25.41.43h0s0,0,0,0h0c.07-.06.17-.12.31-.18,0,0,0,0,.01,0-.14.06-.24.12-.3.18h.01s0,0,0,0h0c.35.09.35.09.69.17-.16-.13-.24-.2-.36-.33,0,0,.01,0,.02.01.16.17.18.2.36.31.04.01.11.03.69.17,0,0,.02,0,.02,0q-.29-.07-.66-.16c.24.13.25.14.56.23h0s0,0,0,0h0s.06-.04.11-.06h0s0,0,0,0h0s.02,0,.03.01h0s0,0,0,0h0s-.08.04-.1.06h.01s0,0,0,0h0c.18.02.42.06.61.07,0,0,0,0,0,0,0,0,.02,0,.03,0-.04.04-.1.1-.14.14h0s0,0,0,0h0s.09,0,.14,0c0,0,0,0,0,0-.05,0-.1,0-.15,0h0s0,0,0,0h0s0,.03,0,.04c.02.02.05.03.07.04.02,0,.05,0,.07,0,0,0,0,0,0,0h-.04s.03,0,.03,0"/>
      </g>
    </g>
  </g>
</svg>