<?xml version="1.0" encoding="utf-8"?>
<!-- Generator: Adobe Illustrator 28.3.0, SVG Export Plug-In . SVG Version: 6.00 Build 0)  -->
<svg version="1.1" id="Layer_2_00000116941468316457364680000008517985065929837494_"
	 xmlns="http://www.w3.org/2000/svg" xmlns:xlink="http://www.w3.org/1999/xlink" x="0px" y="0px" viewBox="0 0 377.4 29.6"
	 style="enable-background:new 0 0 377.4 29.6;" xml:space="preserve">
<style type="text/css">
	.st0{fill-rule:evenodd;clip-rule:evenodd;}
</style>
<g id="Layer_1-2">
	<g>
		<path d="M362.6,29.6h-3.1v-1h3L362.6,29.6z M356.6,29.6h-3v-1h3V29.6z M350.6,29.6h-3v-1h3V29.6z M344.6,29.6h-3v-1h3V29.6z
			 M338.6,29.6h-3v-1h3V29.6z M332.6,29.6h-3v-1h3V29.6z M326.6,29.6h-3v-1h3V29.6z M320.6,29.6h-3v-1h3V29.6z M314.6,29.6h-3v-1h3
			V29.6z M308.6,29.6h-3v-1h3V29.6z M302.6,29.6h-3v-1h3V29.6z M296.6,29.6h-3v-1h3V29.6z M290.6,29.6h-3v-1h3V29.6z M284.6,29.6h-3
			v-1h3V29.6z M278.6,29.6h-3v-1h3V29.6z M272.6,29.6h-3v-1h3V29.6z M266.6,29.6h-3v-1h3V29.6z M260.6,29.6h-3v-1h3V29.6z
			 M254.6,29.6h-3v-1h3V29.6z M248.6,29.6h-3v-1h3V29.6z M242.6,29.6h-3v-1h3V29.6z M236.6,29.6h-3v-1h3V29.6z M230.6,29.6h-3v-1h3
			V29.6z M224.7,29.6h-3v-1h3V29.6z M218.7,29.6h-3v-1h3V29.6z M212.7,29.6h-3v-1h3V29.6z M206.7,29.6h-3v-1h3V29.6z M200.7,29.6h-3
			v-1h3V29.6z M194.7,29.6h-3v-1h3V29.6z M188.7,29.6h-3v-1h3V29.6z M182.7,29.6h-3v-1h3V29.6z M176.7,29.6h-3v-1h3V29.6z
			 M170.7,29.6h-3v-1h3V29.6z M164.7,29.6h-3v-1h3V29.6z M158.7,29.6h-3v-1h3V29.6z M152.7,29.6h-3v-1h3V29.6z M146.7,29.6h-3v-1h3
			V29.6z M140.7,29.6h-3v-1h3V29.6z M134.7,29.6h-3v-1h3V29.6z M128.7,29.6h-3v-1h3V29.6z M122.7,29.6h-3v-1h3V29.6z M116.7,29.6h-3
			v-1h3V29.6z M110.7,29.6h-3v-1h3V29.6z M104.7,29.6h-3v-1h3V29.6z M98.7,29.6h-3v-1h3V29.6z M92.7,29.6h-3v-1h3V29.6z M86.7,29.6
			h-3v-1h3V29.6z M80.7,29.6h-3v-1h3V29.6z M74.7,29.6h-3v-1h3V29.6z M68.7,29.6h-3v-1h3V29.6z M62.7,29.6h-3v-1h3V29.6z M56.8,29.6
			h-3v-1h3V29.6z M50.8,29.6h-3v-1h3V29.6z M44.8,29.6h-3v-1h3V29.6z M38.8,29.6h-3v-1h3V29.6z M32.8,29.6h-3v-1h3V29.6z M26.8,29.6
			h-3v-1h3V29.6z M20.8,29.6h-3v-1h3V29.6z M14.8,29.6L14.8,29.6c-1.1,0-2.1-0.1-3.1-0.3l0.2-1c0.9,0.2,1.9,0.3,2.8,0.3
			C14.7,28.6,14.8,29.6,14.8,29.6z M365.7,29.3l-0.2-1c0.9-0.2,1.9-0.5,2.7-0.9l0.4,0.9C367.7,28.7,366.7,29.1,365.7,29.3z
			 M8.7,28.4c-0.9-0.4-1.8-0.9-2.7-1.5L6.6,26c0.8,0.6,1.6,1,2.5,1.4C9.1,27.4,8.7,28.4,8.7,28.4z M371.3,26.8l-0.6-0.8
			c0.8-0.6,1.5-1.2,2.1-1.9l0.8,0.7C372.9,25.4,372.2,26.1,371.3,26.8L371.3,26.8z M3.8,24.7c-0.7-0.8-1.3-1.6-1.8-2.5l0.9-0.5
			c0.5,0.8,1.1,1.6,1.7,2.3C4.5,24.1,3.7,24.7,3.8,24.7z M375.4,22.2l-0.9-0.5c0.5-0.8,0.9-1.7,1.2-2.6l1,0.3
			C376.4,20.3,375.9,21.3,375.4,22.2L375.4,22.2z M0.7,19.4c-0.3-1-0.5-2-0.6-3l1-0.1c0.1,1,0.3,1.9,0.6,2.8L0.7,19.4L0.7,19.4z
			 M377.3,16.3l-1-0.1c0-0.5,0.1-0.9,0.1-1.4c0-0.5,0-1-0.1-1.5l1-0.1c0.1,0.5,0.1,1.1,0.1,1.6C377.4,15.3,377.4,15.8,377.3,16.3z
			 M1,13.4l-1-0.1c0.1-1,0.3-2.1,0.6-3l0.9,0.3C1.3,11.5,1.1,12.4,1,13.4L1,13.4z M375.7,10.5c-0.3-0.9-0.7-1.8-1.2-2.6l0.9-0.5
			c0.5,0.9,1,1.8,1.3,2.8L375.7,10.5L375.7,10.5z M2.8,7.9L1.9,7.4C2.4,6.5,3,5.7,3.7,4.9l0.7,0.7C3.8,6.3,3.2,7.1,2.8,7.9z
			 M372.8,5.5c-0.6-0.7-1.4-1.4-2.2-1.9l0.6-0.8c0.8,0.6,1.6,1.3,2.3,2.1L372.8,5.5L372.8,5.5z M6.6,3.7L6,2.8
			c0.8-0.6,1.7-1.1,2.7-1.6l0.4,0.9C8.2,2.6,7.4,3.1,6.6,3.7L6.6,3.7z M368.1,2.2c-0.9-0.4-1.8-0.7-2.8-0.9l0.2-1c1,0.2,2,0.5,3,0.9
			L368.1,2.2L368.1,2.2z M11.8,1.3l-0.2-1c1-0.2,2-0.3,3.1-0.3v1C13.7,1,12.8,1.1,11.8,1.3L11.8,1.3z M362.5,1h-3V0h3V1z M356.5,1
			h-3V0h3V1z M350.5,1h-3V0h3V1z M344.5,1h-3V0h3V1z M338.5,1h-3V0h3V1z M332.5,1h-3V0h3V1z M326.5,1h-3V0h3V1z M320.5,1h-3V0h3V1z
			 M314.5,1h-3V0h3V1z M308.5,1h-3V0h3V1z M302.5,1h-3V0h3V1z M296.5,1h-3V0h3V1z M290.5,1h-3V0h3V1z M284.5,1h-3V0h3V1z M278.6,1
			h-3V0h3V1z M272.6,1h-3V0h3V1z M266.6,1h-3V0h3V1z M260.6,1h-3V0h3V1z M254.6,1h-3V0h3V1z M248.6,1h-3V0h3V1z M242.6,1h-3V0h3V1z
			 M236.6,1h-3V0h3V1z M230.6,1h-3V0h3V1z M224.6,1h-3V0h3V1z M218.6,1h-3V0h3V1z M212.6,1h-3V0h3V1z M206.6,1h-3V0h3V1z M200.6,1
			h-3V0h3V1z M194.6,1h-3V0h3V1z M188.6,1h-3V0h3V1z M182.6,1h-3V0h3V1z M176.6,1h-3V0h3V1z M170.6,1h-3V0h3V1z M164.6,1h-3V0h3V1z
			 M158.6,1h-3V0h3V1z M152.6,1h-3V0h3V1z M146.6,1h-3V0h3V1z M140.6,1h-3V0h3V1z M134.6,1h-3V0h3V1z M128.6,1h-3V0h3V1z M122.6,1
			h-3V0h3V1z M116.7,1h-3V0h3V1z M110.7,1h-3V0h3V1z M104.7,1h-3V0h3V1z M98.7,1h-3V0h3V1z M92.7,1h-3V0h3V1z M86.7,1h-3V0h3V1z
			 M80.7,1h-3V0h3V1z M74.7,1h-3V0h3V1z M68.7,1h-3V0h3V1z M62.7,1h-3V0h3V1z M56.7,1h-3V0h3V1z M50.7,1h-3V0h3V1z M44.7,1h-3V0h3V1
			z M38.7,1h-3V0h3V1z M32.7,1h-3V0h3V1z M26.7,1h-3V0h3V1z M20.7,1h-3V0h3V1z"/>
		<g id="bi5cF2">
			<g>
				<path d="M74.5,22.5C74.5,22.5,74.5,22.5,74.5,22.5c-0.2,0-0.4,0-0.6,0h-0.2c-0.1,0-0.2,0-0.3-0.1h-0.2c-0.7,0-1.4-0.1-2.1-0.4
					c-1-0.5-1.7-1.2-2-2.2c-0.3-1-0.2-2.1,0.4-3.1c0.2-0.4,0.6-0.8,0.8-1.2l0.1-0.1H69v-1.8c-0.1-1.8,1-3.9,3.1-4.2
					c1.1-0.2,2.2,0.1,3.2,0.9c0.2,0.2,0.5,0.4,0.7,0.6V9.4h1.8c1.1-0.1,2.1,0.2,3,0.9c1.4,1.1,1.7,3,0.7,4.7
					c-0.2,0.4-0.5,0.8-0.8,1.1c-0.1,0.1-0.1,0.2-0.2,0.2h1.6v1.8c0,0.9-0.2,1.6-0.5,2.3c-0.5,0.9-1.3,1.5-2.2,1.8
					c-1,0.3-2,0.1-3-0.5c-0.4-0.2-0.7-0.5-1.1-0.8c-0.1-0.1-0.2-0.1-0.2-0.2c0,0.4,0,0.7,0,1.1c0,0.1,0,0.3-0.1,0.4
					C74.8,22.5,74.6,22.5,74.5,22.5L74.5,22.5z M74.2,22c0.1,0,0.2,0,0.3,0c0,0,0.1,0,0.1,0c0,0,0,0,0-0.1c0-0.4,0-0.7,0-1.1v-1
					l0.5,0.4c0.1,0,0.1,0.1,0.1,0.1c0.2,0.1,0.3,0.2,0.4,0.4c0.3,0.3,0.7,0.5,1,0.8c0.8,0.5,1.8,0.7,2.6,0.4
					c0.8-0.2,1.5-0.8,1.9-1.5c0.3-0.5,0.5-1.1,0.5-1.8h-0.7c0,0.2,0,0.3-0.1,0.5c-0.1,0.3-0.1,0.5-0.2,0.7c-0.5,1.3-1.8,1.9-3,1.4
					c-0.8-0.3-1.4-0.9-2-1.4l-0.1-0.1l0.1-0.4l0.2,0h1.5v-0.7h-3.5v1.1c0,0.8,0,1.6,0,2.5H74C74.1,22,74.1,22,74.2,22L74.2,22z
					 M69.6,14.9h2l-0.3,0.4c-0.1,0.2-0.3,0.4-0.4,0.6c-0.3,0.4-0.6,0.7-0.8,1.1c-0.5,0.9-0.7,1.8-0.4,2.7c0.3,0.8,0.9,1.5,1.8,1.9
					c0.5,0.2,1,0.4,1.6,0.4v-0.7c-0.1,0-0.1,0-0.2,0c-0.3,0-0.5-0.1-0.8-0.2c-0.8-0.2-1.3-0.7-1.6-1.4c-0.3-0.6-0.2-1.3,0.1-2
					c0.2-0.4,0.4-0.7,0.7-1c0.1-0.1,0.2-0.2,0.2-0.3c0.1-0.1,0.2-0.2,0.3-0.3l0.6-0.6v2.2H73v-3.4h-3.5L69.6,14.9L69.6,14.9z
					 M71.8,16.6c-0.1,0.1-0.1,0.2-0.2,0.3c-0.2,0.3-0.5,0.6-0.6,0.9c-0.3,0.5-0.3,1.1-0.1,1.6c0.2,0.5,0.7,0.9,1.3,1.1
					c0.2,0.1,0.5,0.1,0.7,0.1c0.1,0,0.2,0,0.4,0.1h0c0-0.4,0-0.8,0-1.2l0-1.4h-1.6V16.6L71.8,16.6z M76.3,19.6
					c0.4,0.4,0.9,0.7,1.4,0.9c1,0.4,2-0.1,2.4-1.1c0.1-0.2,0.1-0.4,0.2-0.6c0-0.1,0-0.3,0.1-0.4l0-0.3h-2.6v1.5L76.3,19.6L76.3,19.6
					z M75.9,19.3L75.9,19.3L75.9,19.3z M73.5,13.8V18l0.1,0h4v-4.1C77.6,13.8,73.5,13.8,73.5,13.8z M78.1,17.6h3.4v-0.7h-2.2
					l0.4-0.5c0,0,0.1-0.1,0.1-0.1c0.1-0.2,0.3-0.3,0.4-0.5c0.3-0.4,0.6-0.7,0.8-1.1c0.8-1.4,0.6-3.1-0.6-4.1
					c-0.7-0.6-1.5-0.8-2.4-0.8h0v0.7c0,0,0.1,0,0.1,0c0.2,0,0.5,0.1,0.7,0.1c1.4,0.4,2.1,1.6,1.8,2.9c-0.2,0.7-0.6,1.2-1,1.7
					c-0.1,0.1-0.2,0.3-0.4,0.4L79.2,16l-0.4-0.2v-1.7h-0.7V17.6L78.1,17.6z M77.8,13.6h1.5v1.5c0,0,0.1-0.1,0.1-0.1
					c0.4-0.4,0.7-0.9,0.9-1.5c0.2-1.1-0.4-2-1.5-2.3c-0.2-0.1-0.4-0.1-0.7-0.1c-0.1,0-0.2,0-0.3-0.1h0V13.6L77.8,13.6z M70.7,13.7
					h2.6v-1.5h1.5c0,0,0,0,0,0c-0.3-0.3-0.7-0.5-1-0.7C73.2,11,72.6,11,72,11.2c-0.6,0.2-1,0.8-1.1,1.5c0,0.2-0.1,0.4-0.1,0.6
					C70.8,13.4,70.8,13.5,70.7,13.7L70.7,13.7L70.7,13.7z M69.6,13.3h0.7v-0.1c0-0.2,0.1-0.4,0.1-0.6c0.2-0.9,0.7-1.5,1.4-1.9
					c0.7-0.3,1.5-0.2,2.3,0.2c0.4,0.2,0.7,0.5,1.1,0.8c0.2,0.1,0.3,0.2,0.5,0.4l0.2,0.1l-0.2,0.4h-1.7v0.7h3.5V9.9h-0.7V12l-0.8-0.6
					c-0.3-0.2-0.5-0.4-0.8-0.6c-0.9-0.7-1.8-0.9-2.8-0.8C70.5,10.2,69.6,11.8,69.6,13.3L69.6,13.3z"/>
				<path d="M73.1,22.4c-0.6,0-1.3-0.1-1.8-0.4c-1-0.5-1.7-1.2-2-2.2c-0.3-1-0.2-2.1,0.4-3.1c0.2-0.4,0.6-0.8,0.8-1.2l0.1-0.1h-1.5
					v-1.7h4.5v4.5h-1.7v-1.5c-0.1,0.1-0.1,0.2-0.2,0.3c-0.2,0.3-0.5,0.6-0.6,0.9c-0.3,0.5-0.3,1.1-0.1,1.6c0.2,0.5,0.7,0.9,1.3,1.1
					c0.2,0.1,0.5,0.1,0.7,0.1c0.1,0,0.2,0,0.4,0.1l0.2,0v1.6h-0.2C73.2,22.4,73.1,22.4,73.1,22.4L73.1,22.4z M69.6,14.9h2l-0.3,0.4
					c-0.1,0.2-0.3,0.4-0.4,0.6c-0.3,0.4-0.6,0.7-0.8,1.1c-0.5,0.9-0.7,1.8-0.4,2.7c0.3,0.8,0.9,1.5,1.8,1.9c0.5,0.2,1,0.4,1.6,0.4
					v-0.7c-0.1,0-0.1,0-0.2,0c-0.3,0-0.5-0.1-0.8-0.2c-0.8-0.2-1.3-0.7-1.6-1.4c-0.3-0.6-0.2-1.3,0.1-2c0.2-0.4,0.4-0.7,0.7-1
					c0.1-0.1,0.2-0.2,0.3-0.3c0.1-0.1,0.2-0.2,0.3-0.3l0.6-0.6v2.2H73v-3.4h-3.5V14.9L69.6,14.9z"/>
				<path d="M74.5,22.5C74.5,22.5,74.5,22.5,74.5,22.5c-0.2,0-0.4,0-0.6,0h-0.2c-0.1,0-0.2,0-0.3-0.1c-0.1-0.1-0.1-0.2-0.1-0.3
					c0-0.8,0-1.7,0-2.5l0-1.4l0.1-0.2l0.2,0h4.2v1.7h-1.5c0.4,0.4,0.9,0.7,1.4,0.9c1,0.4,2-0.1,2.4-1.1c0.1-0.2,0.1-0.4,0.2-0.6
					c0-0.1,0-0.3,0.1-0.4l0.1-0.5h1.7v0.2c0,0.9-0.2,1.6-0.6,2.3c-0.5,0.9-1.3,1.5-2.2,1.8c-1,0.3-2,0.1-3-0.5
					c-0.4-0.2-0.7-0.5-1.1-0.8c-0.1-0.1-0.2-0.1-0.2-0.2c0,0.4,0,0.7,0,1.1c0,0.1,0,0.3-0.1,0.4C74.8,22.5,74.7,22.5,74.5,22.5
					L74.5,22.5z M74.2,22c0.1,0,0.2,0,0.3,0c0,0,0.1,0,0.1,0c0,0,0,0,0-0.1c0-0.4,0-0.7,0-1.1v-1l0.5,0.4c0.1,0,0.1,0.1,0.1,0.1
					c0.2,0.1,0.3,0.2,0.4,0.4c0.3,0.3,0.7,0.5,1,0.8c0.8,0.5,1.8,0.7,2.6,0.4c0.8-0.2,1.5-0.8,1.9-1.5c0.3-0.5,0.5-1.1,0.5-1.8h-0.7
					c0,0.2,0,0.3-0.1,0.5c-0.1,0.3-0.1,0.5-0.2,0.7c-0.5,1.3-1.8,1.9-3,1.4c-0.8-0.3-1.4-0.9-2-1.4l-0.1-0.1l0.1-0.4l0.2,0h1.5v-0.7
					h-3.5v1.1c0,0.8,0,1.6,0,2.5H74C74.1,22,74.1,22,74.2,22L74.2,22z M75.9,19.3L75.9,19.3L75.9,19.3z"/>
				<path d="M70.7,13.8h-1.6v-0.2C69,11.8,70,9.7,72.1,9.4c1.1-0.2,2.2,0.1,3.2,0.9c0.2,0.2,0.5,0.4,0.7,0.6V9.4h1.7v4.4h-4.5v-1.7
					h1.5c0,0,0,0,0,0c-0.3-0.3-0.7-0.5-1-0.7C73.2,11,72.5,11,72,11.2c-0.6,0.2-1,0.8-1.1,1.5c0,0.2-0.1,0.4-0.1,0.6
					c0,0.1,0,0.2,0,0.3L70.7,13.8L70.7,13.8z M69.6,13.3h0.7v-0.1c0-0.2,0.1-0.4,0.1-0.6c0.2-0.9,0.7-1.5,1.4-1.9
					c0.7-0.3,1.5-0.2,2.3,0.2c0.4,0.2,0.7,0.5,1.1,0.8c0.2,0.1,0.3,0.2,0.5,0.4l0.2,0.1l-0.2,0.4h-1.7v0.7h3.5V9.9h-0.7V12l-0.8-0.6
					c-0.3-0.2-0.5-0.4-0.8-0.6c-0.9-0.7-1.8-0.9-2.8-0.8C70.5,10.2,69.6,11.8,69.6,13.3L69.6,13.3z"/>
				<path d="M82.1,18.1h-4.4v-4.4h1.7v1.5c0,0,0.1-0.1,0.1-0.1c0.4-0.4,0.7-0.9,0.9-1.5c0.2-1.1-0.4-2-1.5-2.3
					c-0.2-0.1-0.4-0.1-0.7-0.1c-0.1,0-0.2,0-0.3-0.1l-0.2,0V9.4h0.2c1.1-0.1,2.1,0.2,3,0.9c1.4,1.1,1.7,3,0.7,4.7
					c-0.2,0.4-0.5,0.8-0.8,1.1c-0.1,0.1-0.1,0.2-0.2,0.2h1.6V18.1z M78.1,17.6h3.4v-0.7h-2.2l0.4-0.5c0,0,0.1-0.1,0.1-0.1
					c0.1-0.2,0.3-0.3,0.4-0.5c0.3-0.4,0.6-0.7,0.8-1.1c0.8-1.4,0.6-3.1-0.6-4.1c-0.7-0.6-1.5-0.8-2.4-0.8h0v0.7c0,0,0.1,0,0.1,0
					c0.2,0,0.5,0.1,0.7,0.1c1.4,0.4,2.1,1.6,1.8,2.9c-0.2,0.7-0.6,1.2-1,1.7c-0.1,0.1-0.2,0.3-0.4,0.4L79.2,16l-0.4-0.2v-1.7h-0.7
					V17.6L78.1,17.6z"/>
			</g>
		</g>
		<g>
			<path d="M40.6,14.9l-1.7-0.1l-0.5-0.3l0.1-0.2c0.1-0.2,0-0.5-0.3-0.7s-0.5-0.1-0.7,0.1l-0.1,0.1l-0.6-0.4L36,12.2l1-1.7l0.6,0.9
				l0.5-0.9c0.2-0.4,0.6-0.6,1.1-0.6l0,0h4.3c0.5,0,1,0.3,1.2,0.6l1.2,2.1l-3,1.7l-1.5-2.7l-0.8,1.5l1.1,0L40.6,14.9L40.6,14.9z
				 M39.1,14.3l1.2,0l0.4-0.7l-1.1,0l1.7-2.9l0.2,0.3c0.1,0.1,0.2,0.2,0.2,0.3l1.3,2.3l2.1-1.2l-1-1.7c-0.1-0.2-0.5-0.4-0.8-0.4
				h-4.2l0,0c-0.3,0-0.5,0.1-0.7,0.4l-1,1.6L37,11.6l-0.4,0.7l0.6,1l0.1,0.1c0.3-0.2,0.8-0.3,1.2-0.1S39.1,13.9,39.1,14.3L39.1,14.3
				L39.1,14.3z"/>
			<path d="M41,22h-1.9l0.5-0.9h-1.1c-0.5,0-0.8-0.2-1.1-0.6l0,0l-2.1-3.7c-0.2-0.4-0.2-1,0-1.4l1.2-2.1l3,1.7L38,17.6h1.7l-0.5-0.9
				H41l0.8,1.5v0.5l-0.2,0c-0.3,0.1-0.4,0.3-0.4,0.5s0.2,0.5,0.4,0.5l0.2,0l0,0.7C41.8,20.6,41,22,41,22z M40,21.5h0.8l0.6-1.1v-0.1
				c-0.4-0.2-0.6-0.5-0.6-1s0.3-0.8,0.6-1v-0.1l-0.6-1.1H40l0.5,0.9l-3.3,0l0.2-0.4c0.1-0.1,0.1-0.2,0.2-0.4l1.3-2.3l-2.1-1.2
				l-1,1.7c-0.1,0.2-0.1,0.6,0,0.9l2.1,3.6l0,0c0.2,0.3,0.4,0.4,0.7,0.4h1.9L40,21.5L40,21.5z"/>
			<path d="M44.1,21h-2.5v-3.4h3.1l-0.8-1.5l-0.5,0.9l-1-1.7l0.9-1.4l0.5-0.3l0.1,0.1c0.2,0.2,0.5,0.2,0.7,0.1s0.3-0.4,0.2-0.7
				l-0.1-0.2l0.6-0.3l1.6,0l1,1.7l-1.1,0l0.5,0.9c0.2,0.4,0.2,0.8,0,1.3l0,0l-2.1,3.7C45.1,20.8,44.6,21,44.1,21z M42.2,20.5h2
				c0.3,0,0.6-0.2,0.7-0.5l2.1-3.6l0,0c0.2-0.3,0.2-0.5,0-0.8l0,0L46,14l1.1,0l-0.4-0.7l-1.2,0l-0.1,0.1c0,0.4-0.2,0.8-0.5,1.1
				c-0.4,0.2-0.8,0.2-1.2-0.1l-0.1,0.1l-0.6,1l0.4,0.7l0.6-0.9l1.7,2.9l-0.4,0c-0.1,0-0.3,0-0.4,0h-2.6
				C42.2,18.1,42.2,20.6,42.2,20.5z"/>
		</g>
		<path d="M41.3,23.8c-4.5,0-8.3-3.7-8.3-8.3s3.7-8.3,8.3-8.3s8.3,3.7,8.3,8.3S45.9,23.8,41.3,23.8z M41.3,7.8
			c-4.3,0-7.8,3.5-7.8,7.8s3.5,7.8,7.8,7.8s7.8-3.5,7.8-7.8S45.6,7.8,41.3,7.8z"/>
		<path d="M58.4,23.8c-4.5,0-8.3-3.7-8.3-8.3s3.7-8.3,8.3-8.3s8.3,3.7,8.3,8.3S63,23.8,58.4,23.8z M58.4,7.8c-4.3,0-7.8,3.5-7.8,7.8
			s3.5,7.8,7.8,7.8s7.8-3.5,7.8-7.8S62.7,7.8,58.4,7.8z"/>
		<path d="M92.7,23.8c-4.6,0-8.3-3.7-8.3-8.3s3.7-8.3,8.3-8.3s8.3,3.7,8.3,8.3S97.3,23.8,92.7,23.8z M92.7,7.8
			c-4.3,0-7.8,3.5-7.8,7.8s3.5,7.8,7.8,7.8s7.8-3.5,7.8-7.8S97,7.8,92.7,7.8z"/>
		<path d="M24.4,23.8c-4.5,0-8.3-3.7-8.3-8.3s3.7-8.3,8.3-8.3s8.3,3.7,8.3,8.3S29,23.8,24.4,23.8z M24.4,7.8c-4.3,0-7.8,3.5-7.8,7.8
			s3.5,7.8,7.8,7.8s7.8-3.5,7.8-7.8S28.7,7.8,24.4,7.8z"/>
		<path d="M26.8,21h-2.2v-3.4h2.8l-1.9-3.3l2.9-1.7l1.7,2.8c0.2,0.4,0.2,0.8,0,1.3l0,0L28,20.3C27.7,20.8,27.2,21,26.8,21L26.8,21z
			 M25.1,20.5h1.7c0.3,0,0.6-0.2,0.7-0.5l2.1-3.6l0,0c0.2-0.3,0.2-0.5,0-0.8l-1.4-2.4l-2,1.2l2,3.6l-0.5,0h-2.6L25.1,20.5L25.1,20.5
			z M28.5,15.9l-1.1-0.1l-0.7-1.2l1.6-0.9l0.7,1.2C28.9,14.9,28.5,15.9,28.5,15.9z M27.7,15.4l0.5,0l0.2-0.4l-0.3-0.6l-0.7,0.4
			L27.7,15.4L27.7,15.4z"/>
		<path d="M22.1,15.1l-2.9-1.6l1.6-2.8c0.2-0.4,0.6-0.6,1.1-0.6l0,0h4.3l0,0c0.5,0,1,0.3,1.2,0.6l1.1,1.9l-3,1.7L24,11.8L22.1,15.1
			L22.1,15.1z M19.8,13.2l2.1,1.1l2.1-3.6l0.3,0.4l0,0l1.3,2.3l2.1-1.2l-0.8-1.4c-0.1-0.2-0.5-0.4-0.8-0.4h-4.2
			c-0.3,0-0.5,0.1-0.7,0.4L19.8,13.2L19.8,13.2z M21.8,13.9L20.2,13l0.7-1.2l1.1-0.1l0.5,1L21.8,13.9L21.8,13.9z M20.9,12.8l0.7,0.4
			l0.3-0.6l-0.2-0.5l-0.5,0.1L20.9,12.8L20.9,12.8z"/>
		<path d="M21.2,21c-0.5,0-0.8-0.2-1.1-0.6l0,0L18,16.7c-0.2-0.4-0.2-1,0-1.4l1.1-1.9l3,1.7l-1.4,2.4l3.8,0l0,3.4L21.2,21L21.2,21z
			 M20.5,20.1c0.2,0.3,0.4,0.4,0.7,0.4l2.8,0l0-2.4l-4.1,0l0.2-0.4h0l0,0l1.3-2.3l-2.1-1.2l-0.8,1.4c-0.1,0.2-0.1,0.6,0,0.9
			L20.5,20.1C20.5,20.1,20.5,20.1,20.5,20.1z M23.6,20.3h-1.4l-0.6-0.9l0.6-0.9h1.4L23.6,20.3L23.6,20.3z M22.4,19.8h0.6V19h-0.6
			l-0.3,0.4L22.4,19.8L22.4,19.8z"/>
		<path d="M62.5,19.1h-8.1L53,11.9h10.8L62.5,19.1L62.5,19.1z M54.9,18.6h7.2l1.2-6.2h-9.6L54.9,18.6L54.9,18.6z"/>
		<g>
			<path d="M56.2,16.3v-1.7c0-0.4,0.3-0.7,0.7-0.7h0.3c0.4,0,0.7,0.3,0.7,0.7v0.1h-0.2v-0.1c0-0.2-0.2-0.4-0.5-0.4h-0.3
				c-0.2,0-0.5,0.2-0.5,0.4v0.8l0.5-0.3h0.3c0.4,0,0.7,0.3,0.7,0.7v0.5c0,0.4-0.3,0.7-0.7,0.7h-0.3C56.5,17,56.2,16.7,56.2,16.3
				L56.2,16.3z M56.9,16.8h0.3c0.2,0,0.5-0.2,0.5-0.5v-0.5c0-0.2-0.2-0.4-0.5-0.4H57l-0.6,0.4v0.6C56.4,16.6,56.6,16.8,56.9,16.8z"
				/>
			<path d="M58,16.3v-1.7c0-0.4,0.3-0.7,0.7-0.7h0.4c0.4,0,0.7,0.3,0.7,0.7v1.7c0,0.4-0.3,0.7-0.7,0.7h-0.4C58.3,17,58,16.7,58,16.3
				z M58.7,16.8h0.4c0.1,0,0.3-0.1,0.3-0.1l-1.2-2c0,0,0,0,0,0.1v1.7C58.2,16.6,58.5,16.8,58.7,16.8L58.7,16.8z M59.6,16.4
				c0,0,0-0.1,0-0.1v-1.7c0-0.2-0.2-0.4-0.5-0.4h-0.4c-0.2,0-0.3,0.1-0.4,0.2C58.3,14.4,59.6,16.4,59.6,16.4z"/>
		</g>
		<path d="M60,15.3v-0.7c0-0.3,0.2-0.6,0.5-0.6h0.3c0.3,0,0.5,0.2,0.5,0.6v0.7c0,0.3-0.2,0.6-0.5,0.6h-0.3
			C60.3,15.8,60,15.6,60,15.3z M60.6,15.6h0.3c0.2,0,0.4-0.2,0.4-0.4v-0.7c0-0.2-0.2-0.4-0.4-0.4h-0.3c-0.2,0-0.4,0.2-0.4,0.4v0.7
			C60.2,15.5,60.4,15.6,60.6,15.6z"/>
		<path d="M98,20.3H87l2-5.9h7.2l-0.4-2.8h-6.6v-1h7.4l0.7,4.5l0,0L98,20.3L98,20.3z M87.7,19.8h9.7l-0.7-4.9h-7.4L87.7,19.8
			L87.7,19.8z"/>
		<rect x="85.3" y="15.4" transform="matrix(0.673 -0.7396 0.7396 0.673 18.7014 73.6763)" width="14.8" height="0.5"/>
		<rect x="92.4" y="8.3" transform="matrix(0.739 -0.6737 0.6737 0.739 13.6104 66.5319)" width="0.5" height="14.8"/>
		<g>
			<path d="M83.8,8h-0.4V7.8h1V8H84v1h-0.2C83.8,9.1,83.8,8,83.8,8z"/>
			<path d="M85.4,8.2l-0.3,0.5H85l-0.3-0.5v0.8h-0.2V7.8h0.2l0.3,0.6l0.3-0.6h0.2"/>
		</g>
		<g>
			<path d="M140.3,12.7l0.6-1.6h0.3l0.6,1.6v0.8h-0.3V13h-0.9v0.6h-0.3L140.3,12.7L140.3,12.7z M141.5,12.6l-0.4-0.9l0,0l-0.4,0.9
				H141.5z"/>
			<path d="M142,13.2h0.6v-1.7H142v-0.3h0.9v2.1h0.6v0.3H142L142,13.2L142,13.2z"/>
			<path d="M143.9,12.9v-0.8h-0.5v-0.3h0.5v-0.4h0.3v0.4h0.6v0.3h-0.6v0.8c0,0.1,0.1,0.3,0.3,0.3h0.4v0.3h-0.4
				C144.2,13.5,143.9,13.2,143.9,12.9z"/>
			<path d="M145.1,12.9v-0.5c0-0.3,0.3-0.6,0.6-0.6h0.3c0.3,0,0.6,0.3,0.6,0.6v0.5c0,0.3-0.3,0.6-0.6,0.6h-0.3
				C145.4,13.5,145.1,13.3,145.1,12.9z M145.7,13.2h0.3c0.1,0,0.3-0.1,0.3-0.3v-0.5c0-0.1-0.1-0.3-0.3-0.3h-0.3
				c-0.1,0-0.3,0.1-0.3,0.3v0.5C145.5,13.1,145.6,13.2,145.7,13.2z"/>
			<path d="M148.6,12.1h0.9v-0.9h0.3v2.4h-0.3v-1.1h-0.9v1.1h-0.3v-2.4h0.3V12.1z"/>
			<path d="M150.1,12.9v-0.5c0-0.3,0.3-0.6,0.6-0.6h0.3c0.3,0,0.6,0.3,0.6,0.6v0.5c0,0.3-0.3,0.6-0.6,0.6h-0.3
				C150.4,13.5,150.1,13.3,150.1,12.9z M150.8,13.2h0.3c0.1,0,0.3-0.1,0.3-0.3v-0.5c0-0.1-0.1-0.3-0.3-0.3h-0.3
				c-0.1,0-0.3,0.1-0.3,0.3v0.5C150.5,13.1,150.6,13.2,150.8,13.2z"/>
			<path d="M151.9,13L151.9,13l0.3-0.1V13c0,0.1,0.1,0.2,0.2,0.2h0.3c0.2,0,0.2-0.1,0.2-0.2c0-0.4-1.1-0.1-1.1-0.8
				c0-0.3,0.2-0.5,0.5-0.5h0.3c0.3,0,0.5,0.2,0.5,0.5v0H153v0c0-0.1-0.1-0.2-0.2-0.2h-0.3c-0.1,0-0.2,0.1-0.2,0.1
				c0,0.3,1.1,0.1,1.1,0.8c0,0.3-0.2,0.5-0.6,0.5h-0.3C152.1,13.5,151.9,13.3,151.9,13L151.9,13z"/>
			<path d="M154,13.3v0.9h-0.3v-2.4h0.3V12l0.3-0.2h0.3c0.3,0,0.6,0.3,0.6,0.6v0.5c0,0.3-0.3,0.6-0.6,0.6h-0.3
				C154.3,13.5,154,13.3,154,13.3z M154.4,13.2h0.2c0.1,0,0.3-0.1,0.3-0.3v-0.5c0-0.1-0.1-0.3-0.3-0.3h-0.2l-0.4,0.3v0.5
				C154,12.9,154.4,13.2,154.4,13.2z"/>
			<path d="M155.4,13.2h0.6v-1.1h-0.6v-0.3h0.9v1.4h0.6v0.3h-1.5L155.4,13.2L155.4,13.2z M156,11.1h0.4v0.4H156V11.1z"/>
			<path d="M157,12.9v-0.5c0-0.3,0.3-0.6,0.6-0.6h0.3c0.3,0,0.6,0.3,0.6,0.6v0h-0.3v0c0-0.1-0.1-0.3-0.3-0.3h-0.3
				c-0.1,0-0.3,0.1-0.3,0.3v0.5c0,0.1,0.1,0.3,0.3,0.3h0.3c0.1,0,0.3-0.1,0.3-0.3v0h0.3v0c0,0.3-0.3,0.6-0.6,0.6h-0.3
				C157.3,13.5,157,13.2,157,12.9z"/>
			<path d="M158.8,13.2h0.6v-1.1h-0.6v-0.3h0.9v1.4h0.6v0.3h-1.5L158.8,13.2L158.8,13.2z M159.3,11.1h0.4v0.4h-0.4V11.1z"/>
			<path d="M160.4,12.9v-0.5c0-0.3,0.3-0.6,0.6-0.6h0.3c0.3,0,0.6,0.3,0.6,0.6v0.5c0,0.3-0.3,0.6-0.6,0.6H161
				C160.6,13.5,160.4,13.3,160.4,12.9z M161,13.2h0.3c0.1,0,0.3-0.1,0.3-0.3v-0.5c0-0.1-0.1-0.3-0.3-0.3H161c-0.1,0-0.3,0.1-0.3,0.3
				v0.5C160.7,13.1,160.8,13.2,161,13.2z"/>
			<path d="M163.4,12.9v-0.5c0-0.3,0.3-0.6,0.6-0.6h0.3c0.3,0,0.6,0.2,0.6,0.6v0.4h-1.1v0.2c0,0.1,0.1,0.3,0.3,0.3h0.3
				c0.1,0,0.3-0.1,0.3-0.3v0h0.3v0c0,0.3-0.3,0.6-0.6,0.6H164C163.7,13.5,163.4,13.2,163.4,12.9L163.4,12.9z M164.6,12.5L164.6,12.5
				c0-0.2-0.1-0.3-0.3-0.3H164c-0.1,0-0.3,0.1-0.3,0.3v0.1H164.6L164.6,12.5z M164.3,11h0.5l-0.5,0.5h-0.3L164.3,11z"/>
			<path d="M167.1,13.2h0.2l0.4-0.2v-1.1h0.3v1.7h-0.3v-0.2l-0.3,0.2h-0.3c-0.3,0-0.6-0.3-0.6-0.6v-1.1h0.3v1.1
				C166.9,13.1,167,13.2,167.1,13.2L167.1,13.2z"/>
			<path d="M170.1,12.1h-0.2l-0.2,0.2c0,0,0,0,0,0.1v1.1h-0.3v-1.1c0-0.1-0.1-0.3-0.2-0.3h-0.1l-0.3,0.3v1.1h-0.3v-1.7h0.3V12
				l0.2-0.2h0.2c0.2,0,0.4,0.1,0.4,0.2l0.2-0.2h0.3c0.3,0,0.5,0.3,0.5,0.6v1.1h-0.3v-1.1C170.3,12.2,170.2,12.1,170.1,12.1
				L170.1,12.1z"/>
			<path d="M171,12.9v-0.5c0-0.3,0.3-0.6,0.6-0.6h0.3l0.3,0.2v-0.2h0.3v1.7h-0.3v-0.2l-0.3,0.2h-0.3C171.3,13.5,171,13.2,171,12.9z
				 M171.6,13.2h0.2l0.4-0.3v-0.5l-0.4-0.3h-0.2c-0.1,0-0.3,0.1-0.3,0.3v0.5C171.3,13.1,171.5,13.2,171.6,13.2z"/>
			<path d="M174.1,12.9v-0.5c0-0.3,0.3-0.6,0.6-0.6h0.3c0.3,0,0.6,0.3,0.6,0.6v0h-0.3v0c0-0.1-0.1-0.3-0.3-0.3h-0.3
				c-0.1,0-0.3,0.1-0.3,0.3v0.5c0,0.1,0.1,0.3,0.3,0.3h0.3c0.1,0,0.3-0.1,0.3-0.3v0h0.3v0c0,0.3-0.3,0.6-0.6,0.6h-0.3
				C174.4,13.5,174.1,13.2,174.1,12.9z"/>
			<path d="M175.9,12.9v-0.5c0-0.3,0.3-0.6,0.6-0.6h0.3c0.3,0,0.6,0.3,0.6,0.6v0.5c0,0.3-0.3,0.6-0.6,0.6h-0.3
				C176.1,13.5,175.9,13.3,175.9,12.9z M176.5,13.2h0.3c0.1,0,0.3-0.1,0.3-0.3v-0.5c0-0.1-0.1-0.3-0.3-0.3h-0.3
				c-0.1,0-0.3,0.1-0.3,0.3v0.5C176.2,13.1,176.3,13.2,176.5,13.2z"/>
			<path d="M179.4,12.1h-0.2l-0.2,0.2c0,0,0,0,0,0.1v1.1h-0.3v-1.1c0-0.1-0.1-0.3-0.2-0.3h-0.1l-0.3,0.3v1.1h-0.3v-1.7h0.3V12
				l0.2-0.2h0.2c0.2,0,0.4,0.1,0.4,0.2l0.2-0.2h0.3c0.3,0,0.5,0.3,0.5,0.6v1.1h-0.3v-1.1C179.6,12.2,179.6,12.1,179.4,12.1
				L179.4,12.1z"/>
			<path d="M181,13.2h0.2l0.4-0.2v-1.1h0.3v1.7h-0.3v-0.2l-0.3,0.2H181c-0.3,0-0.6-0.3-0.6-0.6v-1.1h0.3v1.1
				C180.7,13.1,180.8,13.2,181,13.2L181,13.2z"/>
			<path d="M183.1,12.1H183l-0.4,0.2v1.1h-0.3v-1.7h0.3V12l0.3-0.2h0.3c0.3,0,0.6,0.3,0.6,0.6v1.1h-0.3v-1.1
				C183.4,12.3,183.3,12.1,183.1,12.1L183.1,12.1z"/>
			<path d="M184.1,12.9v-0.5c0-0.3,0.3-0.6,0.6-0.6h0.3l0.3,0.2v-0.2h0.3v1.7h-0.3v-0.2l-0.3,0.2h-0.3
				C184.4,13.5,184.1,13.2,184.1,12.9z M184.7,13.2h0.2l0.4-0.3v-0.5l-0.4-0.3h-0.2c-0.1,0-0.3,0.1-0.3,0.3v0.5
				C184.4,13.1,184.6,13.2,184.7,13.2z"/>
			<path d="M187.2,12.9v-0.5c0-0.3,0.3-0.6,0.6-0.6h0.3l0.3,0.2v-0.9h0.3v2.4h-0.3v-0.2l-0.3,0.2h-0.3
				C187.5,13.5,187.2,13.2,187.2,12.9z M187.8,13.2h0.2l0.4-0.3v-0.5l-0.4-0.3h-0.2c-0.1,0-0.3,0.1-0.3,0.3v0.5
				C187.6,13.1,187.7,13.2,187.8,13.2z"/>
			<path d="M189.1,12.9v-0.5c0-0.3,0.3-0.6,0.6-0.6h0.3l0.3,0.2v-0.2h0.3v1.7h-0.3v-0.2l-0.3,0.2h-0.3
				C189.3,13.5,189.1,13.2,189.1,12.9z M189.7,13.2h0.2l0.4-0.3v-0.5l-0.4-0.3h-0.2c-0.1,0-0.3,0.1-0.3,0.3v0.5
				C189.4,13.1,189.5,13.2,189.7,13.2z"/>
			<path d="M192.6,13.3v0.9h-0.3v-2.4h0.3V12l0.3-0.2h0.3c0.3,0,0.6,0.3,0.6,0.6v0.5c0,0.3-0.3,0.6-0.6,0.6h-0.3
				C192.9,13.5,192.6,13.3,192.6,13.3z M193,13.2h0.2c0.1,0,0.3-0.1,0.3-0.3v-0.5c0-0.1-0.1-0.3-0.3-0.3H193l-0.4,0.3v0.5
				C192.6,12.9,193,13.2,193,13.2z"/>
			<path d="M194.1,11.8h0.3v0.3l0.4-0.3h0.1c0.3,0,0.6,0.3,0.6,0.6v0.1h-0.3v-0.1c0-0.1-0.1-0.3-0.2-0.3h0l-0.4,0.3v1.1h-0.3
				L194.1,11.8L194.1,11.8z"/>
			<path d="M195.7,12.9v-0.5c0-0.3,0.3-0.6,0.6-0.6h0.3c0.3,0,0.6,0.3,0.6,0.6v0.5c0,0.3-0.3,0.6-0.6,0.6h-0.3
				C195.9,13.5,195.7,13.3,195.7,12.9z M196.3,13.2h0.3c0.1,0,0.3-0.1,0.3-0.3v-0.5c0-0.1-0.1-0.3-0.3-0.3h-0.3
				c-0.1,0-0.3,0.1-0.3,0.3v0.5C196,13.1,196.1,13.2,196.3,13.2z"/>
			<path d="M197.5,12.6v-0.8h0.3v0.7l0.4,0.7l0,0l0.4-0.7v-0.7h0.3v0.8l-0.5,0.9H198L197.5,12.6z"/>
			<path d="M199.2,13.2h0.6v-1.1h-0.6v-0.3h0.9v1.4h0.6v0.3h-1.5L199.2,13.2L199.2,13.2z M200,11h0.5l-0.5,0.5h-0.3L200,11z"/>
			<path d="M201.8,12.1h-0.2l-0.4,0.2v1.1h-0.3v-1.7h0.3V12l0.3-0.2h0.3c0.3,0,0.6,0.3,0.6,0.6v1.1H202v-1.1
				C202,12.3,201.9,12.1,201.8,12.1L201.8,12.1z"/>
			<path d="M202.7,12.9v-0.5c0-0.3,0.3-0.6,0.6-0.6h0.3c0.3,0,0.6,0.3,0.6,0.6v0h-0.3v0c0-0.1-0.1-0.3-0.3-0.3h-0.3
				c-0.1,0-0.3,0.1-0.3,0.3v0.5c0,0.1,0.1,0.3,0.3,0.3h0.3c0.1,0,0.3-0.1,0.3-0.3v0h0.3v0c0,0.3-0.3,0.6-0.6,0.6h-0.3
				C203,13.5,202.7,13.2,202.7,12.9z"/>
			<path d="M204.5,13.2h0.6v-1.1h-0.6v-0.3h0.9v1.4h0.6v0.3h-1.5L204.5,13.2L204.5,13.2z M205,11.1h0.4v0.4H205V11.1z"/>
			<path d="M206,12.9v-0.5c0-0.3,0.3-0.6,0.6-0.6h0.3l0.3,0.2v-0.2h0.3v1.7h-0.3v-0.2l-0.3,0.2h-0.3C206.3,13.5,206,13.2,206,12.9z
				 M206.6,13.2h0.2l0.4-0.3v-0.5l-0.4-0.3h-0.2c-0.1,0-0.3,0.1-0.3,0.3v0.5C206.4,13.1,206.5,13.2,206.6,13.2z"/>
			<path d="M209.1,12.9v-0.5c0-0.3,0.3-0.6,0.6-0.6h0.3l0.3,0.2v-0.9h0.3v2.4h-0.3v-0.2l-0.3,0.2h-0.3
				C209.4,13.5,209.1,13.2,209.1,12.9z M209.8,13.2h0.2l0.4-0.3v-0.5l-0.4-0.3h-0.2c-0.1,0-0.3,0.1-0.3,0.3v0.5
				C209.5,13.1,209.6,13.2,209.8,13.2z"/>
			<path d="M211,12.9v-0.5c0-0.3,0.3-0.6,0.6-0.6h0.3c0.3,0,0.6,0.2,0.6,0.6v0.4h-1.1v0.2c0,0.1,0.1,0.3,0.3,0.3h0.3
				c0.1,0,0.3-0.1,0.3-0.3v0h0.3v0c0,0.3-0.3,0.6-0.6,0.6h-0.3C211.3,13.5,211,13.2,211,12.9L211,12.9z M212.1,12.5L212.1,12.5
				c0-0.2-0.1-0.3-0.3-0.3h-0.3c-0.1,0-0.3,0.1-0.3,0.3v0.1H212.1L212.1,12.5z"/>
			<path d="M214,13.2h0.6v-1.7H214v-0.3h1.5v0.3h-0.6v1.7h0.6v0.3H214V13.2z"/>
			<path d="M215.7,12.9v-0.5c0-0.3,0.3-0.6,0.6-0.6h0.3l0.3,0.2v-0.2h0.3v2.4h-0.3v-0.9l-0.3,0.2h-0.3
				C216,13.5,215.7,13.2,215.7,12.9z M216.3,13.2h0.2l0.4-0.3v-0.5l-0.4-0.3h-0.2c-0.1,0-0.3,0.1-0.3,0.3v0.5
				C216,13.1,216.2,13.2,216.3,13.2z"/>
			<path d="M218.2,13.2h0.2l0.4-0.2v-1.1h0.3v1.7h-0.3v-0.2l-0.3,0.2h-0.3c-0.3,0-0.6-0.3-0.6-0.6v-1.1h0.3v1.1
				C217.9,13.1,218.1,13.2,218.2,13.2L218.2,13.2z"/>
			<path d="M219.4,13.2h0.6v-1.1h-0.6v-0.3h0.9v1.4h0.6v0.3h-1.5L219.4,13.2L219.4,13.2z M219.9,11.1h0.4v0.4h-0.4V11.1z"/>
			<path d="M221,12.9v-0.5c0-0.3,0.3-0.6,0.6-0.6h0.3l0.3,0.2v-0.2h0.3v2.4h-0.3v-0.9l-0.3,0.2h-0.3C221.3,13.5,221,13.2,221,12.9z
				 M221.6,13.2h0.2l0.4-0.3v-0.5l-0.4-0.3h-0.2c-0.1,0-0.3,0.1-0.3,0.3v0.5C221.3,13.1,221.5,13.2,221.6,13.2z"/>
			<path d="M223.5,13.2h0.2l0.4-0.2v-1.1h0.3v1.7h-0.3v-0.2l-0.3,0.2h-0.3c-0.3,0-0.6-0.3-0.6-0.6v-1.1h0.3v1.1
				C223.3,13.1,223.4,13.2,223.5,13.2L223.5,13.2z"/>
			<path d="M224.8,12.9v-0.5c0-0.3,0.3-0.6,0.6-0.6h0.3c0.3,0,0.6,0.2,0.6,0.6v0.4h-1.1v0.2c0,0.1,0.1,0.3,0.3,0.3h0.3
				c0.1,0,0.3-0.1,0.3-0.3v0h0.3v0c0,0.3-0.3,0.6-0.6,0.6h-0.3C225,13.5,224.8,13.2,224.8,12.9L224.8,12.9z M225.9,12.5L225.9,12.5
				c0-0.2-0.1-0.3-0.3-0.3h-0.3c-0.1,0-0.3,0.1-0.3,0.3v0.1H225.9L225.9,12.5z"/>
			<path d="M226.6,13.2h0.3l-0.1,0.2l-0.4,0.5h-0.1L226.6,13.2z"/>
			<path d="M228.2,13.2h0.6v-1.7h-0.6v-0.3h0.9v2.1h0.6v0.3h-1.5L228.2,13.2L228.2,13.2z"/>
			<path d="M229.8,12.9v-0.5c0-0.3,0.3-0.6,0.6-0.6h0.3c0.3,0,0.6,0.3,0.6,0.6v0.5c0,0.3-0.3,0.6-0.6,0.6h-0.3
				C230.1,13.5,229.8,13.3,229.8,12.9z M230.4,13.2h0.3c0.1,0,0.3-0.1,0.3-0.3v-0.5c0-0.1-0.1-0.3-0.3-0.3h-0.3
				c-0.1,0-0.3,0.1-0.3,0.3v0.5C230.1,13.1,230.3,13.2,230.4,13.2z"/>
			<path d="M231.6,12.9v-0.5c0-0.3,0.3-0.6,0.6-0.6h0.3c0.3,0,0.6,0.3,0.6,0.6v0h-0.3v0c0-0.1-0.1-0.3-0.3-0.3h-0.3
				c-0.1,0-0.3,0.1-0.3,0.3v0.5c0,0.1,0.1,0.3,0.3,0.3h0.3c0.1,0,0.3-0.1,0.3-0.3v0h0.3v0c0,0.3-0.3,0.6-0.6,0.6h-0.3
				C231.9,13.5,231.6,13.2,231.6,12.9z"/>
			<path d="M233.4,12.9v-0.5c0-0.3,0.3-0.6,0.6-0.6h0.3l0.3,0.2v-0.2h0.3v1.7h-0.3v-0.2l-0.3,0.2H234
				C233.7,13.5,233.4,13.2,233.4,12.9z M234,13.2h0.2l0.4-0.3v-0.5l-0.4-0.3H234c-0.1,0-0.3,0.1-0.3,0.3v0.5
				C233.7,13.1,233.8,13.2,234,13.2z"/>
			<path d="M235.1,13.2h0.6v-1.7h-0.6v-0.3h0.9v2.1h0.6v0.3h-1.5L235.1,13.2L235.1,13.2z"/>
			<path d="M236.8,13.2h0.6v-1.1h-0.6v-0.3h0.9v1.4h0.6v0.3h-1.5L236.8,13.2L236.8,13.2z M237.3,11.1h0.4v0.4h-0.4V11.1z"/>
			<path d="M239.4,12.1h-1v-0.3h1.4v0.3l-1,1.1h1v0.3h-1.4v-0.3L239.4,12.1z"/>
			<path d="M240.1,12.9v-0.5c0-0.3,0.3-0.6,0.6-0.6h0.3l0.3,0.2v-0.2h0.3v1.7h-0.3v-0.2l-0.3,0.2h-0.3
				C240.3,13.5,240.1,13.2,240.1,12.9z M240.7,13.2h0.2l0.4-0.3v-0.5l-0.4-0.3h-0.2c-0.1,0-0.3,0.1-0.3,0.3v0.5
				C240.4,13.1,240.5,13.2,240.7,13.2z"/>
			<path d="M241.9,12.9v-0.5c0-0.3,0.3-0.6,0.6-0.6h0.3L243,12v-0.9h0.3v2.4H243v-0.2l-0.3,0.2h-0.3
				C242.2,13.5,241.9,13.2,241.9,12.9z M242.5,13.2h0.2l0.4-0.3v-0.5l-0.4-0.3h-0.2c-0.1,0-0.3,0.1-0.3,0.3v0.5
				C242.2,13.1,242.4,13.2,242.5,13.2z"/>
			<path d="M243.8,12.9v-0.5c0-0.3,0.3-0.6,0.6-0.6h0.3l0.3,0.2v-0.2h0.3v1.7h-0.3v-0.2l-0.3,0.2h-0.3
				C244,13.5,243.8,13.2,243.8,12.9z M244.4,13.2h0.2l0.4-0.3v-0.5l-0.4-0.3h-0.2c-0.1,0-0.3,0.1-0.3,0.3v0.5
				C244.1,13.1,244.2,13.2,244.4,13.2z"/>
			<path d="M247.8,12.1h-0.2l-0.4,0.2v1.1h-0.3v-1.7h0.3V12l0.3-0.2h0.3c0.3,0,0.6,0.3,0.6,0.6v1.1h-0.3v-1.1
				C248.1,12.3,247.9,12.1,247.8,12.1L247.8,12.1z"/>
			<path d="M248.8,12.9v-0.5c0-0.3,0.3-0.6,0.6-0.6h0.3l0.3,0.2v-0.2h0.3v1.7h-0.3v-0.2l-0.3,0.2h-0.3
				C249,13.5,248.8,13.2,248.8,12.9z M249.4,13.2h0.2l0.4-0.3v-0.5l-0.4-0.3h-0.2c-0.1,0-0.3,0.1-0.3,0.3v0.5
				C249.1,13.1,249.2,13.2,249.4,13.2z"/>
			<path d="M252.6,12.6h-0.4v0.9h-0.3v-2.4h0.9c0.3,0,0.6,0.3,0.6,0.6V12c0,0.3-0.2,0.5-0.4,0.6l0.4,1H253L252.6,12.6L252.6,12.6z
				 M252.8,12.2c0.1,0,0.3-0.1,0.3-0.3v-0.2c0-0.1-0.1-0.3-0.3-0.3h-0.5v0.8L252.8,12.2L252.8,12.2z"/>
			<path d="M253.7,12.9v-0.5c0-0.3,0.3-0.6,0.6-0.6h0.3c0.3,0,0.6,0.2,0.6,0.6v0.4H254v0.2c0,0.1,0.1,0.3,0.3,0.3h0.3
				c0.1,0,0.3-0.1,0.3-0.3v0h0.3v0c0,0.3-0.3,0.6-0.6,0.6h-0.3C253.9,13.5,253.7,13.2,253.7,12.9L253.7,12.9z M254.8,12.5
				L254.8,12.5c0-0.2-0.1-0.3-0.3-0.3h-0.3c-0.1,0-0.3,0.1-0.3,0.3v0.1H254.8L254.8,12.5z"/>
			<path d="M255.4,13.6h0.3c0,0.1,0.1,0.3,0.3,0.3h0.3c0.1,0,0.3-0.1,0.3-0.3v-0.3l-0.3,0.2h-0.3c-0.3,0-0.6-0.3-0.6-0.6v-0.5
				c0-0.3,0.3-0.6,0.6-0.6h0.3l0.3,0.2v-0.2h0.3v1.8c0,0.3-0.3,0.6-0.6,0.6h-0.3C255.7,14.2,255.4,13.9,255.4,13.6z M256.1,13.2h0.2
				l0.4-0.3v-0.5l-0.4-0.3h-0.2c-0.1,0-0.3,0.1-0.3,0.3v0.5C255.8,13.1,255.9,13.2,256.1,13.2z"/>
			<path d="M257.3,13.2h0.6v-1.1h-0.6v-0.3h0.9v1.4h0.6v0.3h-1.5V13.2z M257.8,11.1h0.4v0.4h-0.4V11.1z"/>
			<path d="M258.9,12.9v-0.5c0-0.3,0.3-0.6,0.6-0.6h0.3L260,12v-0.2h0.3v1.7H260v-0.2l-0.3,0.2h-0.3
				C259.1,13.5,258.9,13.2,258.9,12.9z M259.5,11l0.4,0.2c0.1,0,0.1,0,0.1-0.1l0.3,0.1c-0.1,0.2-0.2,0.4-0.5,0.3l-0.4-0.2
				c-0.1,0-0.1,0-0.1,0.1l-0.3-0.1C259.1,11.1,259.2,11,259.5,11z M259.5,13.2h0.2l0.4-0.3v-0.5l-0.4-0.3h-0.2
				c-0.1,0-0.3,0.1-0.3,0.3v0.5C259.2,13.1,259.3,13.2,259.5,13.2z"/>
			<path d="M260.7,12.9v-0.5c0-0.3,0.3-0.6,0.6-0.6h0.3c0.3,0,0.6,0.3,0.6,0.6v0.5c0,0.3-0.3,0.6-0.6,0.6h-0.3
				C261,13.5,260.7,13.3,260.7,12.9z M261.3,13.2h0.3c0.1,0,0.3-0.1,0.3-0.3v-0.5c0-0.1-0.1-0.3-0.3-0.3h-0.3
				c-0.1,0-0.3,0.1-0.3,0.3v0.5C261.1,13.1,261.2,13.2,261.3,13.2z"/>
			<path d="M263.8,12.9v-0.5c0-0.3,0.3-0.6,0.6-0.6h0.3l0.3,0.2v-0.9h0.3v2.4h-0.3v-0.2l-0.3,0.2h-0.3
				C264,13.5,263.8,13.2,263.8,12.9z M264.4,13.2h0.2l0.4-0.3v-0.5l-0.4-0.3h-0.2c-0.1,0-0.3,0.1-0.3,0.3v0.5
				C264.1,13.1,264.2,13.2,264.4,13.2z"/>
			<path d="M265.6,12.9v-0.5c0-0.3,0.3-0.6,0.6-0.6h0.3c0.3,0,0.6,0.2,0.6,0.6v0.4H266v0.2c0,0.1,0.1,0.3,0.3,0.3h0.3
				c0.1,0,0.3-0.1,0.3-0.3v0h0.3v0c0,0.3-0.3,0.6-0.6,0.6h-0.3C265.9,13.5,265.6,13.2,265.6,12.9L265.6,12.9z M266.8,12.5
				L266.8,12.5c0-0.2-0.1-0.3-0.3-0.3h-0.3c-0.1,0-0.3,0.1-0.3,0.3v0.1H266.8L266.8,12.5z"/>
			<path d="M269,11.5h-0.6v-0.3h1.5v0.3h-0.6v2H269L269,11.5L269,11.5z"/>
			<path d="M269.8,12.9v-0.5c0-0.3,0.3-0.6,0.6-0.6h0.3L271,12v-0.2h0.3v1.7H271v-0.2l-0.3,0.2h-0.3
				C270.1,13.5,269.8,13.2,269.8,12.9z M270.5,13.2h0.2l0.4-0.3v-0.5l-0.4-0.3h-0.2c-0.1,0-0.3,0.1-0.3,0.3v0.5
				C270.2,13.1,270.3,13.2,270.5,13.2z"/>
			<path d="M271.8,11.8h0.3v0.3l0.4-0.3h0.1c0.3,0,0.6,0.3,0.6,0.6v0.1h-0.3v-0.1c0-0.1-0.1-0.3-0.2-0.3h0l-0.5,0.3v1.1h-0.3
				C271.8,13.5,271.8,11.8,271.8,11.8z"/>
			<path d="M273.4,12.9v-0.5c0-0.3,0.3-0.6,0.6-0.6h0.3l0.3,0.2v-0.2h0.3v1.7h-0.3v-0.2l-0.3,0.2H274
				C273.6,13.5,273.4,13.2,273.4,12.9z M274,13.2h0.2l0.4-0.3v-0.5l-0.4-0.3H274c-0.1,0-0.3,0.1-0.3,0.3v0.5
				C273.7,13.1,273.8,13.2,274,13.2z"/>
			<path d="M275.6,13.3v0.9h-0.3v-2.4h0.3V12l0.3-0.2h0.3c0.3,0,0.6,0.3,0.6,0.6v0.5c0,0.3-0.3,0.6-0.6,0.6h-0.3
				C275.9,13.5,275.6,13.3,275.6,13.3z M276,13.2h0.2c0.1,0,0.3-0.1,0.3-0.3v-0.5c0-0.1-0.1-0.3-0.3-0.3H276l-0.4,0.3v0.5
				C275.6,12.9,276,13.2,276,13.2z"/>
			<path d="M277.1,12.9v-0.5c0-0.3,0.3-0.6,0.6-0.6h0.3l0.3,0.2v-0.2h0.3v1.7h-0.3v-0.2l-0.3,0.2h-0.3
				C277.3,13.5,277.1,13.2,277.1,12.9z M277.7,13.2h0.2l0.4-0.3v-0.5l-0.4-0.3h-0.2c-0.1,0-0.3,0.1-0.3,0.3v0.5
				C277.4,13.1,277.5,13.2,277.7,13.2z"/>
			<path d="M278.9,12.9v-0.5c0-0.3,0.3-0.6,0.6-0.6h0.3c0.3,0,0.6,0.3,0.6,0.6v0h-0.3v0c0-0.1-0.1-0.3-0.3-0.3h-0.3
				c-0.1,0-0.3,0.1-0.3,0.3v0.5c0,0.1,0.1,0.3,0.3,0.3h0.3c0.1,0,0.3-0.1,0.3-0.3v0h0.3v0c0,0.3-0.3,0.6-0.6,0.6h-0.3
				C279.2,13.5,278.9,13.2,278.9,12.9z"/>
			<path d="M280.7,12.9v-0.5c0-0.3,0.3-0.6,0.6-0.6h0.3l0.3,0.2v-0.2h0.3v1.7h-0.3v-0.2l-0.3,0.2h-0.3
				C281,13.5,280.7,13.2,280.7,12.9z M281.3,13.2h0.2l0.4-0.3v-0.5l-0.4-0.3h-0.2c-0.1,0-0.3,0.1-0.3,0.3v0.5
				C281,13.1,281.1,13.2,281.3,13.2z M281.7,11h0.5l-0.5,0.5h-0.3L281.7,11z"/>
			<path d="M282.6,13.2h0.3l-0.1,0.2l-0.4,0.5h-0.1L282.6,13.2z"/>
			<path d="M284.5,12.9v-1.1c0-0.3,0.3-0.6,0.6-0.6h0.3c0.3,0,0.6,0.3,0.6,0.6v0.2h-0.3v-0.2c0-0.1-0.1-0.3-0.3-0.3h-0.3
				c-0.1,0-0.3,0.1-0.3,0.3v1.1c0,0.1,0.1,0.3,0.3,0.3h0.3c0.1,0,0.3-0.1,0.3-0.3v-0.2h0.3v0.2c0,0.3-0.3,0.6-0.6,0.6h-0.3
				C284.7,13.5,284.5,13.2,284.5,12.9z"/>
			<path d="M286.6,11.1V12l0.3-0.2h0.3c0.3,0,0.6,0.3,0.6,0.6v1.1h-0.3v-1.1c0-0.1-0.1-0.3-0.3-0.3H287l-0.4,0.3v1.1h-0.3v-2.4
				H286.6L286.6,11.1z"/>
			<path d="M288.1,13.2h0.6v-1.1h-0.6v-0.3h0.9v1.4h0.6v0.3h-1.5V13.2z M288.6,11.1h0.4v0.4h-0.4V11.1z"/>
			<path d="M289.7,13.2h0.6v-1.7h-0.6v-0.3h0.9v2.1h0.6v0.3h-1.5V13.2z"/>
			<path d="M291.3,12.9v-0.5c0-0.3,0.3-0.6,0.6-0.6h0.3c0.3,0,0.6,0.2,0.6,0.6v0.4h-1.1v0.2c0,0.1,0.1,0.3,0.3,0.3h0.3
				c0.1,0,0.3-0.1,0.3-0.3v0h0.3v0c0,0.3-0.3,0.6-0.6,0.6h-0.3C291.5,13.5,291.3,13.2,291.3,12.9L291.3,12.9z M292.4,12.5
				L292.4,12.5c0-0.2-0.1-0.3-0.3-0.3h-0.3c-0.1,0-0.3,0.1-0.3,0.3v0.1H292.4L292.4,12.5z"/>
			<path d="M293.1,13.2h0.4v0.4h-0.4V13.2z"/>
			<path d="M140.4,15.2h0.9c0.3,0,0.6,0.3,0.6,0.6V16c0,0.3-0.3,0.6-0.6,0.6h-0.5v1h-0.3L140.4,15.2L140.4,15.2z M141.3,16.3
				c0.1,0,0.3-0.1,0.3-0.3v-0.2c0-0.1-0.1-0.3-0.3-0.3h-0.5v0.7L141.3,16.3L141.3,16.3z"/>
			<path d="M142.1,17v-0.5c0-0.3,0.3-0.6,0.6-0.6h0.3c0.3,0,0.6,0.3,0.6,0.6V17c0,0.3-0.3,0.6-0.6,0.6h-0.3
				C142.4,17.6,142.1,17.3,142.1,17z M142.7,17.2h0.3c0.1,0,0.3-0.1,0.3-0.3v-0.5c0-0.1-0.1-0.3-0.3-0.3h-0.3
				c-0.1,0-0.3,0.1-0.3,0.3V17C142.5,17.1,142.6,17.2,142.7,17.2z"/>
			<path d="M143.9,17.1L143.9,17.1l0.3-0.1v0.1c0,0.1,0.1,0.2,0.2,0.2h0.3c0.2,0,0.2-0.1,0.2-0.2c0-0.4-1.1-0.1-1.1-0.8
				c0-0.3,0.2-0.5,0.5-0.5h0.3c0.3,0,0.5,0.2,0.5,0.5v0h-0.3v0c0-0.1-0.1-0.2-0.2-0.2h-0.3c-0.1,0-0.2,0.1-0.2,0.1
				c0,0.3,1.1,0.1,1.1,0.8c0,0.3-0.2,0.5-0.6,0.5h-0.3C144.1,17.6,143.9,17.4,143.9,17.1L143.9,17.1z"/>
			<path d="M145.6,17.1L145.6,17.1l0.3-0.1v0.1c0,0.1,0.1,0.2,0.2,0.2h0.3c0.2,0,0.2-0.1,0.2-0.2c0-0.4-1.1-0.1-1.1-0.8
				c0-0.3,0.2-0.5,0.5-0.5h0.3c0.3,0,0.5,0.2,0.5,0.5v0h-0.3v0c0-0.1-0.1-0.2-0.2-0.2h-0.3c-0.1,0-0.2,0.1-0.2,0.1
				c0,0.3,1.1,0.1,1.1,0.8c0,0.3-0.2,0.5-0.6,0.5h-0.3C145.8,17.6,145.6,17.4,145.6,17.1L145.6,17.1z"/>
			<path d="M147.9,17.2h0.2l0.4-0.2v-1.1h0.3v1.7h-0.3v-0.2l-0.3,0.2H148c-0.3,0-0.6-0.3-0.6-0.6v-1.1h0.3V17
				C147.7,17.1,147.8,17.2,147.9,17.2L147.9,17.2z"/>
			<path d="M149.2,17.2h0.6v-1h-0.6v-0.3h0.9v1.4h0.6v0.3h-1.5L149.2,17.2L149.2,17.2z M149.7,15.2h0.4v0.4h-0.4V15.2z"/>
			<path d="M156.6,17.2h0.2l0.4-0.2v-1.1h0.3v1.7h-0.3v-0.2l-0.3,0.2h-0.3c-0.3,0-0.6-0.3-0.6-0.6v-1.1h0.3V17
				C156.4,17.1,156.5,17.2,156.6,17.2L156.6,17.2z"/>
			<path d="M159.6,16.2h-0.2l-0.2,0.2c0,0,0,0,0,0v1.1h-0.3v-1.1c0-0.1-0.1-0.3-0.2-0.3h-0.1l-0.3,0.3v1.1h-0.3v-1.7h0.3v0.2
				l0.2-0.2h0.2c0.2,0,0.4,0.1,0.4,0.2l0.2-0.2h0.3c0.3,0,0.5,0.3,0.5,0.6v1.1h-0.3v-1.1C159.8,16.3,159.7,16.2,159.6,16.2
				L159.6,16.2z"/>
			<path d="M160.5,17v-0.5c0-0.3,0.3-0.6,0.6-0.6h0.3l0.3,0.2v-0.2h0.3v1.7h-0.3v-0.2l-0.3,0.2h-0.3C160.8,17.6,160.5,17.3,160.5,17
				z M161.1,17.2h0.2l0.4-0.3v-0.5l-0.4-0.3h-0.2c-0.1,0-0.3,0.1-0.3,0.3V17C160.8,17.1,160.9,17.2,161.1,17.2z"/>
			<path d="M167.6,17v-0.5c0-0.3,0.3-0.6,0.6-0.6h0.3l0.3,0.2v-0.2h0.3v1.7h-0.3v-0.2l-0.3,0.2h-0.3C167.8,17.6,167.6,17.3,167.6,17
				z M168.2,17.2h0.2l0.4-0.3v-0.5l-0.4-0.3h-0.2c-0.1,0-0.3,0.1-0.3,0.3V17C167.9,17.1,168,17.2,168.2,17.2z M168.5,15h0.5
				l-0.5,0.5h-0.3L168.5,15z"/>
			<path d="M169.5,15.9h0.3v0.3l0.4-0.3h0.1c0.3,0,0.6,0.3,0.6,0.6v0.1h-0.3v-0.1c0-0.1-0.1-0.3-0.2-0.3h0l-0.4,0.3v1.1h-0.3
				L169.5,15.9L169.5,15.9z"/>
			<path d="M171.1,17v-0.5c0-0.3,0.3-0.6,0.6-0.6h0.3c0.3,0,0.6,0.2,0.6,0.6v0.4h-1.1V17c0,0.1,0.1,0.3,0.3,0.3h0.3
				c0.1,0,0.3-0.1,0.3-0.3v0h0.3v0c0,0.3-0.3,0.6-0.6,0.6h-0.3C171.3,17.6,171.1,17.3,171.1,17L171.1,17z M172.2,16.5L172.2,16.5
				c0-0.2-0.1-0.3-0.3-0.3h-0.3c-0.1,0-0.3,0.1-0.3,0.3v0.1H172.2L172.2,16.5z"/>
			<path d="M172.9,17v-0.5c0-0.3,0.3-0.6,0.6-0.6h0.3L174,16v-0.2h0.3v1.7H174v-0.2l-0.3,0.2h-0.3C173.1,17.6,172.9,17.3,172.9,17z
				 M173.5,17.2h0.2L174,17v-0.5l-0.4-0.3h-0.2c-0.1,0-0.3,0.1-0.3,0.3V17C173.2,17.1,173.3,17.2,173.5,17.2z"/>
			<path d="M179.9,17v-0.5c0-0.3,0.3-0.6,0.6-0.6h0.3l0.3,0.2v-0.9h0.3v2.4h-0.3v-0.2l-0.3,0.2h-0.3C180.2,17.6,179.9,17.3,179.9,17
				z M180.5,17.2h0.2l0.4-0.3v-0.5l-0.4-0.3h-0.2c-0.1,0-0.3,0.1-0.3,0.3V17C180.3,17.1,180.4,17.2,180.5,17.2z"/>
			<path d="M181.8,17v-0.5c0-0.3,0.3-0.6,0.6-0.6h0.3c0.3,0,0.6,0.2,0.6,0.6v0.4h-1.1V17c0,0.1,0.1,0.3,0.3,0.3h0.3
				c0.1,0,0.3-0.1,0.3-0.3v0h0.3v0c0,0.3-0.3,0.6-0.6,0.6h-0.3C182.1,17.6,181.8,17.3,181.8,17L181.8,17z M182.9,16.5L182.9,16.5
				c0-0.2-0.1-0.3-0.3-0.3h-0.3c-0.1,0-0.3,0.1-0.3,0.3v0.1H182.9L182.9,16.5z"/>
			<path d="M189.7,16.3h-0.2l-0.4,0.3h-0.3v-1.4h1.3v0.3h-0.9v0.6l0.3-0.2h0.3c0.3,0,0.6,0.3,0.6,0.6V17c0,0.3-0.3,0.6-0.6,0.6h-0.3
				c-0.3,0-0.6-0.3-0.6-0.6v0h0.3v0c0,0.1,0.1,0.3,0.3,0.3h0.3c0.1,0,0.3-0.1,0.3-0.3v-0.4C189.9,16.4,189.8,16.3,189.7,16.3
				L189.7,16.3z"/>
			<path d="M190.7,16.9l1-1.1v-0.3h-0.8v0.4h-0.3v-0.7h1.5V16l-1,1v0.5h-0.3L190.7,16.9L190.7,16.9z"/>
			<path d="M192.3,16.8l1.1-0.6v-0.3c0-0.1-0.1-0.3-0.3-0.3h-0.3c-0.1,0-0.3,0.1-0.3,0.3v0.1h-0.3v-0.1c0-0.3,0.3-0.6,0.6-0.6h0.3
				c0.3,0,0.6,0.3,0.6,0.6v0.5l-1.1,0.6v0.2h1.1v0.3h-1.5L192.3,16.8L192.3,16.8z"/>
			<path d="M194.2,17.2h0.3l-0.1,0.2l-0.4,0.5H194L194.2,17.2z"/>
			<path d="M196.4,15.8V17c0,0.3-0.3,0.6-0.6,0.6h-0.3c-0.3,0-0.6-0.3-0.6-0.6v-0.1h0.3V17c0,0.1,0.1,0.3,0.3,0.3h0.3
				c0.1,0,0.3-0.1,0.3-0.3v-0.5l-0.3,0.2h-0.3c-0.3,0-0.6-0.3-0.6-0.6v-0.3c0-0.3,0.3-0.6,0.6-0.6h0.3
				C196.1,15.2,196.4,15.5,196.4,15.8L196.4,15.8z M195.5,16.4h0.2l0.4-0.3v-0.3c0-0.1-0.1-0.3-0.3-0.3h-0.3c-0.1,0-0.3,0.1-0.3,0.3
				v0.3C195.2,16.2,195.3,16.4,195.5,16.4L195.5,16.4z"/>
			<path d="M202,15.2h0.3v1.4h0.3l0.4-0.7h0.4l-0.5,0.9l0.5,0.9h-0.4l-0.4-0.7h-0.3v0.7H202V15.2L202,15.2z"/>
			<path d="M205.4,16.2h-0.2l-0.2,0.2c0,0,0,0,0,0v1.1h-0.3v-1.1c0-0.1-0.1-0.3-0.2-0.3h-0.1l-0.3,0.3v1.1h-0.3v-1.7h0.3v0.2
				l0.2-0.2h0.2c0.2,0,0.4,0.1,0.4,0.2l0.2-0.2h0.3c0.3,0,0.5,0.3,0.5,0.6v1.1h-0.3v-1.1C205.6,16.3,205.5,16.2,205.4,16.2
				L205.4,16.2z"/>
			<path d="M206.2,15.9l0.2-0.2c0.3-0.3,0.4-0.4,0.4-0.6c0-0.1-0.1-0.2-0.3-0.2c-0.1,0-0.2,0.1-0.3,0.1l-0.1-0.2
				c0.1-0.1,0.2-0.1,0.4-0.1c0.3,0,0.4,0.2,0.4,0.4c0,0.3-0.2,0.4-0.4,0.7l-0.1,0.1l0,0h0.6v0.2h-0.9L206.2,15.9L206.2,15.9z"/>
			<path d="M212.5,17v-0.5c0-0.3,0.3-0.6,0.6-0.6h0.3c0.3,0,0.6,0.2,0.6,0.6v0.4h-1.1V17c0,0.1,0.1,0.3,0.3,0.3h0.3
				c0.1,0,0.3-0.1,0.3-0.3v0h0.3v0c0,0.3-0.3,0.6-0.6,0.6h-0.3C212.8,17.6,212.5,17.3,212.5,17L212.5,17z M213.7,16.5L213.7,16.5
				c0-0.2-0.1-0.3-0.3-0.3h-0.3c-0.1,0-0.3,0.1-0.3,0.3v0.1H213.7L213.7,16.5z"/>
			<path d="M220.2,17.2h0.2l0.4-0.2v-1.1h0.3v1.7h-0.3v-0.2l-0.3,0.2h-0.3c-0.3,0-0.6-0.3-0.6-0.6v-1.1h0.3V17
				C219.9,17.1,220.1,17.2,220.2,17.2L220.2,17.2z"/>
			<path d="M223.2,16.2H223l-0.2,0.2c0,0,0,0,0,0v1.1h-0.3v-1.1c0-0.1-0.1-0.3-0.2-0.3h-0.1l-0.3,0.3v1.1h-0.3v-1.7h0.3v0.2l0.2-0.2
				h0.2c0.2,0,0.4,0.1,0.4,0.2l0.2-0.2h0.3c0.3,0,0.5,0.3,0.5,0.6v1.1h-0.3v-1.1C223.4,16.3,223.3,16.2,223.2,16.2L223.2,16.2z"/>
			<path d="M224.1,17v-0.5c0-0.3,0.3-0.6,0.6-0.6h0.3l0.3,0.2v-0.2h0.3v1.7h-0.3v-0.2l-0.3,0.2h-0.3C224.3,17.6,224.1,17.3,224.1,17
				z M224.7,17.2h0.2l0.4-0.3v-0.5l-0.4-0.3h-0.2c-0.1,0-0.3,0.1-0.3,0.3V17C224.4,17.1,224.5,17.2,224.7,17.2z"/>
			<path d="M231.5,17.4v0.9h-0.3v-2.4h0.3V16l0.3-0.2h0.3c0.3,0,0.6,0.3,0.6,0.6V17c0,0.3-0.3,0.6-0.6,0.6h-0.3L231.5,17.4z
				 M231.9,17.2h0.2c0.1,0,0.3-0.1,0.3-0.3v-0.5c0-0.1-0.1-0.3-0.3-0.3h-0.2l-0.4,0.3V17L231.9,17.2z"/>
			<path d="M233,17v-0.5c0-0.3,0.3-0.6,0.6-0.6h0.3c0.3,0,0.6,0.3,0.6,0.6V17c0,0.3-0.3,0.6-0.6,0.6h-0.3
				C233.3,17.6,233,17.3,233,17z M233.6,17.2h0.3c0.1,0,0.3-0.1,0.3-0.3v-0.5c0-0.1-0.1-0.3-0.3-0.3h-0.3c-0.1,0-0.3,0.1-0.3,0.3V17
				C233.3,17.1,233.4,17.2,233.6,17.2z"/>
			<path d="M235.2,17.4v0.9h-0.3v-2.4h0.3V16l0.3-0.2h0.3c0.3,0,0.6,0.3,0.6,0.6V17c0,0.3-0.3,0.6-0.6,0.6h-0.3L235.2,17.4z
				 M235.6,17.2h0.2c0.1,0,0.3-0.1,0.3-0.3v-0.5c0-0.1-0.1-0.3-0.3-0.3h-0.2l-0.4,0.3V17L235.6,17.2z"/>
			<path d="M237.3,17.2h0.2l0.4-0.2v-1.1h0.3v1.7h-0.3v-0.2l-0.3,0.2h-0.3c-0.3,0-0.6-0.3-0.6-0.6v-1.1h0.3V17
				C237,17.1,237.2,17.2,237.3,17.2L237.3,17.2z"/>
			<path d="M238.4,17.2h0.6v-1.7h-0.6v-0.3h0.9v2.1h0.6v0.3h-1.5L238.4,17.2L238.4,17.2z"/>
			<path d="M240.1,17v-0.5c0-0.3,0.3-0.6,0.6-0.6h0.3l0.3,0.2v-0.2h0.3v1.7h-0.3v-0.2l-0.3,0.2h-0.3C240.4,17.6,240.1,17.3,240.1,17
				z M240.7,17.2h0.2l0.4-0.3v-0.5l-0.4-0.3h-0.2c-0.1,0-0.3,0.1-0.3,0.3V17C240.4,17.1,240.5,17.2,240.7,17.2z"/>
			<path d="M242.4,18.1h0.4c0.1,0,0.1,0,0.1-0.1c0,0,0-0.1-0.1-0.1h-0.2l-0.2-0.2l0.1-0.1v-0.1c-0.3,0-0.6-0.3-0.6-0.6v-0.5
				c0-0.3,0.3-0.6,0.6-0.6h0.3c0.3,0,0.6,0.3,0.6,0.6v0h-0.3v0c0-0.1-0.1-0.3-0.3-0.3h-0.3c-0.1,0-0.3,0.1-0.3,0.3V17
				c0,0.1,0.1,0.3,0.3,0.3h0.3c0.1,0,0.3-0.1,0.3-0.3v0h0.3v0c0,0.3-0.3,0.6-0.6,0.6v0.1c0.2,0,0.4,0.2,0.4,0.4
				c0,0.2-0.2,0.4-0.4,0.4h-0.4L242.4,18.1L242.4,18.1z"/>
			<path d="M243.7,17v-0.5c0-0.3,0.3-0.6,0.6-0.6h0.3l0.3,0.2v-0.2h0.3v1.7h-0.3v-0.2l-0.3,0.2h-0.3C244,17.6,243.7,17.3,243.7,17z
				 M244.4,15.1l0.4,0.2c0.1,0,0.1,0,0.1-0.1l0.3,0.1c-0.1,0.2-0.2,0.4-0.5,0.3l-0.4-0.2c-0.1,0-0.1,0-0.1,0.1l-0.3-0.1
				C243.9,15.2,244.1,15.1,244.4,15.1z M244.3,17.2h0.2l0.4-0.3v-0.5l-0.4-0.3h-0.2c-0.1,0-0.3,0.1-0.3,0.3V17
				C244.1,17.1,244.2,17.2,244.3,17.2z"/>
			<path d="M245.6,17v-0.5c0-0.3,0.3-0.6,0.6-0.6h0.3c0.3,0,0.6,0.3,0.6,0.6V17c0,0.3-0.3,0.6-0.6,0.6h-0.3
				C245.8,17.6,245.6,17.3,245.6,17z M246.2,17.2h0.3c0.1,0,0.3-0.1,0.3-0.3v-0.5c0-0.1-0.1-0.3-0.3-0.3h-0.3
				c-0.1,0-0.3,0.1-0.3,0.3V17C245.9,17.1,246,17.2,246.2,17.2z"/>
			<path d="M252.6,17v-0.5c0-0.3,0.3-0.6,0.6-0.6h0.3l0.3,0.2v-0.9h0.3v2.4h-0.3v-0.2l-0.3,0.2h-0.3C252.9,17.6,252.6,17.3,252.6,17
				z M253.2,17.2h0.2l0.4-0.3v-0.5l-0.4-0.3h-0.2c-0.1,0-0.3,0.1-0.3,0.3V17C252.9,17.1,253,17.2,253.2,17.2z"/>
			<path d="M254.4,17v-0.5c0-0.3,0.3-0.6,0.6-0.6h0.3c0.3,0,0.6,0.2,0.6,0.6v0.4h-1.1V17c0,0.1,0.1,0.3,0.3,0.3h0.3
				c0.1,0,0.3-0.1,0.3-0.3v0h0.3v0c0,0.3-0.3,0.6-0.6,0.6H255C254.7,17.6,254.4,17.3,254.4,17L254.4,17z M255.6,16.5L255.6,16.5
				c0-0.2-0.1-0.3-0.3-0.3H255c-0.1,0-0.3,0.1-0.3,0.3v0.1H255.6L255.6,16.5z"/>
			<path d="M262.4,16.3h-0.2l-0.4,0.3h-0.3v-1.4h1.3v0.3h-1v0.6l0.3-0.2h0.3c0.3,0,0.6,0.3,0.6,0.6V17c0,0.3-0.3,0.6-0.6,0.6h-0.3
				c-0.3,0-0.6-0.3-0.6-0.6v0h0.3v0c0,0.1,0.1,0.3,0.3,0.3h0.3c0.1,0,0.3-0.1,0.3-0.3v-0.4C262.6,16.4,262.5,16.3,262.4,16.3
				L262.4,16.3z"/>
			<path d="M263.3,17v-1.1c0-0.3,0.3-0.6,0.6-0.6h0.3c0.4,0,0.6,0.3,0.6,0.6V17c0,0.3-0.3,0.6-0.6,0.6h-0.3
				C263.6,17.6,263.3,17.3,263.3,17z M263.9,17.2h0.3c0,0,0.1,0,0.1,0l-0.7-1.2V17C263.6,17.1,263.8,17.2,263.9,17.2L263.9,17.2z
				 M264.5,16.9v-1c0-0.1-0.1-0.3-0.3-0.3h-0.3c-0.1,0-0.1,0-0.2,0.1L264.5,16.9L264.5,16.9z"/>
			<path d="M265.1,16.8l1.1-0.6v-0.3c0-0.1-0.1-0.3-0.3-0.3h-0.3c-0.1,0-0.3,0.1-0.3,0.3v0.1h-0.3v-0.1c0-0.3,0.3-0.6,0.6-0.6h0.3
				c0.3,0,0.6,0.3,0.6,0.6v0.5l-1.1,0.6v0.2h1.1v0.3h-1.5V16.8z"/>
			<path d="M266.9,17.2h0.6v-1.6l-0.6,0.3v-0.4l0.6-0.3h0.3v2h0.6v0.3h-1.5L266.9,17.2L266.9,17.2z"/>
			<path d="M269.5,16.3h-0.2l-0.4,0.3h-0.3v-1.4h1.3v0.3h-1v0.6l0.3-0.2h0.3c0.3,0,0.6,0.3,0.6,0.6V17c0,0.3-0.3,0.6-0.6,0.6h-0.3
				c-0.3,0-0.6-0.3-0.6-0.6v0h0.3v0c0,0.1,0.1,0.3,0.3,0.3h0.3c0.1,0,0.3-0.1,0.3-0.3v-0.4C269.8,16.4,269.7,16.3,269.5,16.3
				L269.5,16.3z"/>
			<path d="M276,15.2V16l0.3-0.2h0.3c0.3,0,0.6,0.3,0.6,0.6v1.1h-0.3v-1.1c0-0.1-0.1-0.3-0.3-0.3h-0.2l-0.4,0.3v1.1h-0.3v-2.4H276
				L276,15.2z"/>
			<path d="M277.5,17v-0.5c0-0.3,0.3-0.6,0.6-0.6h0.3l0.3,0.2v-0.2h0.3v1.7h-0.3v-0.2l-0.3,0.2h-0.3C277.8,17.6,277.5,17.3,277.5,17
				z M278.1,17.2h0.2l0.4-0.3v-0.5l-0.4-0.3h-0.2c-0.1,0-0.3,0.1-0.3,0.3V17C277.9,17.1,278,17.2,278.1,17.2z"/>
			<path d="M279.8,17.4v0.2h-0.3v-2.4h0.3V16l0.3-0.2h0.3c0.3,0,0.6,0.3,0.6,0.6V17c0,0.3-0.3,0.6-0.6,0.6H280
				C280,17.6,279.8,17.4,279.8,17.4z M280.2,17.2h0.2c0.1,0,0.3-0.1,0.3-0.3v-0.5c0-0.1-0.1-0.3-0.3-0.3h-0.2l-0.4,0.3V17
				L280.2,17.2z"/>
			<path d="M281.2,17.2h0.6v-1h-0.6v-0.3h0.9v1.4h0.6v0.3h-1.5V17.2z M281.7,15.2h0.4v0.4h-0.4V15.2z"/>
			<path d="M283,17v-0.8h-0.5v-0.3h0.5v-0.4h0.3v0.4h0.6v0.3h-0.6V17c0,0.1,0.1,0.3,0.3,0.3h0.4v0.3h-0.4
				C283.3,17.6,283,17.3,283,17z"/>
			<path d="M284.3,17v-0.5c0-0.3,0.3-0.6,0.6-0.6h0.3l0.3,0.2v-0.2h0.3v1.7h-0.3v-0.2l-0.3,0.2h-0.3C284.5,17.6,284.3,17.3,284.3,17
				z M284.9,17.2h0.2l0.4-0.3v-0.5l-0.4-0.3h-0.2c-0.1,0-0.3,0.1-0.3,0.3V17C284.6,17.1,284.7,17.2,284.9,17.2z"/>
			<path d="M287,16.2h-0.2l-0.4,0.2v1.1h-0.3v-1.7h0.3v0.2l0.3-0.2h0.3c0.3,0,0.6,0.3,0.6,0.6v1.1h-0.3v-1.1
				C287.3,16.3,287.2,16.2,287,16.2L287,16.2z"/>
			<path d="M288.4,17v-0.8h-0.5v-0.3h0.5v-0.4h0.3v0.4h0.6v0.3h-0.6V17c0,0.1,0.1,0.3,0.3,0.3h0.4v0.3H289
				C288.6,17.6,288.4,17.3,288.4,17z"/>
			<path d="M289.6,17v-0.5c0-0.3,0.3-0.6,0.6-0.6h0.3c0.3,0,0.6,0.2,0.6,0.6v0.4h-1.1V17c0,0.1,0.1,0.3,0.3,0.3h0.3
				c0.1,0,0.3-0.1,0.3-0.3v0h0.3v0c0,0.3-0.3,0.6-0.6,0.6h-0.3C289.9,17.6,289.6,17.3,289.6,17L289.6,17z M290.7,16.5L290.7,16.5
				c0-0.2-0.1-0.3-0.3-0.3h-0.3c-0.1,0-0.3,0.1-0.3,0.3v0.1H290.7L290.7,16.5z"/>
			<path d="M291.4,17.1L291.4,17.1l0.3-0.1v0.1c0,0.1,0.1,0.2,0.2,0.2h0.3c0.2,0,0.2-0.1,0.2-0.2c0-0.4-1.1-0.1-1.1-0.8
				c0-0.3,0.2-0.5,0.5-0.5h0.3c0.3,0,0.5,0.2,0.5,0.5v0h-0.3v0c0-0.1-0.1-0.2-0.2-0.2h-0.3c-0.1,0-0.2,0.1-0.2,0.1
				c0,0.3,1.1,0.1,1.1,0.8c0,0.3-0.2,0.5-0.6,0.5h-0.3C291.6,17.6,291.4,17.4,291.4,17.1z"/>
			<path d="M293.1,17.2h0.4v0.4h-0.4V17.2z"/>
		</g>
		<g>
			<path class="st0" d="M351.9,15.7l-1.8,5.2l0,3h1.5v-2h2v2h1.5v-2.9l-1.8-5.4L351.9,15.7L351.9,15.7z M351.9,20.4l0.7-2.1l0.7,2.1
				H351.9L351.9,20.4z"/>
			<path class="st0" d="M358.8,9l2.6,4.6l5.4-3.1l-2.2-3.8c-0.4-0.7-1.3-1.2-2.2-1.2H355c-0.9,0.1-1.6,0.4-2,1.2l-0.8,1.4l-1-1.6
				l-1.8,3.1l1.5,2.5l1,0.6l0.3-0.3c0.3-0.3,0.7-0.4,1-0.2s0.5,0.6,0.4,1l-0.1,0.4l1.1,0.6l3,0.1l1.8-3.1l-1.9,0
				C357.6,11.2,358.8,9,358.8,9z"/>
			<path class="st0" d="M368.7,15.9l-2.3-3.9l-3.7,2.2l3,5.2c-0.2,0-0.4,0-0.1,0h-4.8v4.4h3.3c0.6,0,1.1-0.4,1.4-0.9l1-1.7l0,0
				l2.2-3.8l0,0l0.1-0.1c0,0,0,0,0,0.1C369,17,369.1,16.5,368.7,15.9L368.7,15.9z M366.5,16.2l-1.2-0.1l-0.8-1.3l1.7-1l0.8,1.3
				L366.5,16.2z"/>
		</g>
	</g>
</g>
</svg>
