<?xml version="1.0" encoding="utf-8"?>
<!-- Generator: Adobe Illustrator 28.3.0, SVG Export Plug-In . SVG Version: 6.00 Build 0)  -->
<svg version="1.1" id="Layer_2_00000016033952871188923020000003740395664694547092_"
	 xmlns="http://www.w3.org/2000/svg" xmlns:xlink="http://www.w3.org/1999/xlink" x="0px" y="0px" viewBox="0 0 536.9 54"
	 style="enable-background:new 0 0 536.9 54;" xml:space="preserve">
<style type="text/css">
	.st0{fill:#E15E23;}
</style>
<g>
	<path class="st0" d="M27,0c3.6,0,7.1,0.7,10.5,2.1c3.3,1.4,6.2,3.3,8.6,5.8c2.4,2.4,4.3,5.3,5.7,8.6c1.4,3.3,2.1,6.8,2.1,10.5
		c0,4.9-1.2,9.4-3.6,13.5c-2.4,4.1-5.7,7.4-9.8,9.8S31.9,54,27,54c-3.7,0-7.2-0.7-10.5-2.1c-3.3-1.4-6.2-3.3-8.6-5.8
		c-2.4-2.4-4.3-5.3-5.7-8.6S0,30.7,0,27c0-4.9,1.2-9.4,3.6-13.5s5.7-7.4,9.8-9.8C17.6,1.2,22.1,0,27,0z M44.5,27
		C44.5,9.4,38.7,0.5,27,0.5S9.5,9.4,9.5,27S15.4,53.4,27,53.4S44.5,44.6,44.5,27z"/>
	<path class="st0" d="M71,29c-3.2-1.4-5.8-3.1-7.7-5.2c-1.9-2-3-4.1-3.4-6.2c-0.4-2.1-0.2-4.2,0.5-6.3c0.7-2.1,1.9-4,3.5-5.7
		c1.6-1.7,3.7-3,6.2-4c2.5-1,5.1-1.5,7.9-1.5c3,0,5.7,0.3,8.1,0.8c2.4,0.5,4.3,1.2,5.8,2.1c1.5,0.9,2.7,2,3.6,3.1s1.6,2.5,1.8,3.8
		s0.3,2.7,0.2,4.1c-0.1,1.4-0.4,2.8-1.1,4.1s-1.3,2.6-2.2,3.8s-1.8,2.2-3,3.1c-1.2,0.9-2.3,1.6-3.5,2c3,1.6,5.4,3.4,7.1,5.4
		c1.8,2,2.8,4,3.2,6s0.1,3.9-0.6,5.8c-0.8,1.9-2,3.5-3.8,5s-3.9,2.5-6.7,3.4s-5.7,1.3-9,1.3s-6.3-0.4-8.9-1.2c-2.6-0.8-4.6-1.8-6-3
		c-1.4-1.2-2.4-2.7-3.1-4.2s-0.9-3.2-0.6-4.9c0.3-1.7,0.9-3.3,1.8-4.8s2.2-2.9,4-4.1C66.9,30.5,68.8,29.5,71,29L71,29L71,29z
		 M77.9,0.5c-2.6,0-4.9,0.4-6.9,1.3c-2,0.9-3.4,2-4.2,3.5c-0.8,1.5-1.3,3.1-1.3,4.7s0.7,3.4,2,5.2c1.3,1.8,3.2,3.4,5.6,4.8
		c1.2,0.7,2.6,1.4,4.3,2.2c1.7,0.8,3.4,1.6,5.2,2.4c1.8,0.8,3.3,1.5,4.6,2.1c2.1-1.1,3.6-2.5,4.5-4.3s1.3-3.6,1.2-5.5
		c-0.2-1.9-0.7-3.9-1.6-5.9c-0.9-2-2.1-3.7-3.4-5.3c-1.4-1.6-3-2.8-4.7-3.8C81.4,1,79.6,0.5,77.9,0.5L77.9,0.5L77.9,0.5z M78.8,53.4
		c2.1,0,4.1-0.4,6-1.3c1.9-0.9,3.4-2,4.4-3.5c1-1.5,1.7-3,1.9-4.7c0.2-1.7-0.2-3.4-1.3-5.1c-1.2-1.7-2.9-3.2-5.4-4.5
		c-1.1-0.5-2.4-1.1-3.8-1.7c-1.4-0.5-3-1.1-4.7-1.8c-1.7-0.6-3.1-1.2-4.1-1.6c-2.1,1.2-3.6,2.8-4.5,4.9s-1.2,4.2-0.8,6.3
		c0.3,2.2,1.1,4.2,2.1,6.2c1.1,2,2.5,3.6,4.4,4.8S76.7,53.4,78.8,53.4L78.8,53.4L78.8,53.4z"/>
	<path class="st0" d="M112.8,45.3c0.9,0.9,1.3,2,1.3,3.3s-0.4,2.4-1.3,3.3c-0.9,0.9-2,1.3-3.3,1.3c-0.8,0-1.6-0.2-2.3-0.6
		c-0.7-0.4-1.3-1-1.7-1.7c-0.4-0.7-0.6-1.5-0.6-2.3c0-1.3,0.4-2.4,1.3-3.3s2-1.3,3.3-1.3S111.9,44.4,112.8,45.3L112.8,45.3
		L112.8,45.3z"/>
	<path class="st0" d="M120.5,0.8h14.3v39.6l0.1-1.1c0,5.1,0.4,8.6,1.1,10.6c0.7,2,2,2.9,3.7,2.9v0.5h-19.1v-0.5
		c1.4,0,2.5-0.6,3.2-1.8c0.8-1.2,1.2-3.4,1.4-6.5V14.8c0-5.1-0.4-8.6-1.1-10.6c-0.7-2-2-2.9-3.7-2.9L120.5,0.8
		C120.5,0.8,120.5,0.8,120.5,0.8z"/>
	<path class="st0" d="M148.7,19.8h-0.5l0.1-2.3v-0.1l0.3-3.4l0.8-10.6h0.5c0,0.2,0.1,0.4,0.3,0.5s0.4,0,0.5-0.1l-0.2,0.1
		c4.2-2.5,8.7-3.8,13.6-3.8c3.2,0,6.2,0.4,8.8,1.4s4.7,2.1,6.3,3.5c1.6,1.4,2.7,3.1,3.5,4.8c0.8,1.8,1.1,3.5,1,5.3
		c-0.1,2.8-0.9,5.2-2.4,7.2c-1.5,2-3.3,3.5-5.5,4.6c-2.2,1.1-4.6,2-7.3,2.8c-2.7,0.8-5.3,1.5-7.9,2.2c-2.6,0.7-5,1.5-7.2,2.3
		c-2.1,0.9-3.9,2.1-5.2,3.8c-1.4,1.6-2,3.6-2,5.9h26.1c3.9,0,6.6-0.6,8.1-1.7c1.4-1.1,2.2-2.7,2.2-4.7h0.5v15.9h-37.8v-9.5
		c0-2.5,0.4-4.7,1.4-6.7c0.9-2,2.1-3.6,3.6-4.8s3.2-2.4,5.1-3.5c1.9-1.1,3.9-2,5.9-2.7c2-0.7,3.9-1.5,5.9-2.4
		c1.9-0.9,3.6-1.8,5.1-2.7s2.7-2.1,3.6-3.5c0.9-1.4,1.4-3.1,1.4-4.9c0-2.9-1.2-5.7-3.6-8.1c-2.4-2.5-5.5-3.7-9.3-3.7
		c-2.4,0-4.5,0.4-6.3,1.1s-3.2,1.7-4.3,2.8c-1.1,1.1-1.9,2.5-2.6,4.2c-0.7,1.7-1.2,3.2-1.5,4.6s-0.6,3-0.8,4.8L148.7,19.8
		L148.7,19.8L148.7,19.8z"/>
	<path class="st0" d="M199.6,53.3h-9.5l22.8-52.5h9.5L199.6,53.3L199.6,53.3L199.6,53.3z"/>
	<path class="st0" d="M246.8,12.8h14.3v26.2h5.4v0.5h-5.4c0,5,0.4,8.5,1.1,10.4c0.7,1.9,2,2.8,3.7,2.8v0.5h-19v-0.5
		c1.4,0,2.5-0.6,3.3-1.8c0.7-1.2,1.2-3.4,1.4-6.5v-5H227v-0.5c2.2-1.5,4.1-4.9,5.7-10.1c1.6-5.2,2.7-10.4,3.3-15.6
		c0.6-5.2,0.7-9.4,0.3-12.4h9.3c0.3,3.1,0.1,6.5-0.7,10.2s-1.9,7.2-3.5,10.7s-3.6,6.7-6,9.8c-2.4,3.1-5,5.6-7.7,7.5h23.8V26.8
		c0-3.5-0.2-6.2-0.5-8.2s-0.8-3.3-1.5-4.1s-1.6-1.2-2.8-1.2L246.8,12.8L246.8,12.8L246.8,12.8z"/>
</g>
<path class="st0" d="M286.5,28.4c0-3.3,2.7-6,6-6s6,2.7,6,6s-2.7,6-6,6S286.5,31.7,286.5,28.4z M292.5,33.4c2.8,0,5-2.2,5-5
	s-2.2-5-5-5s-5,2.2-5,5S289.7,33.4,292.5,33.4z M290.6,25.5h2.2c1.2,0,2.1,0.9,2.1,2.1c0,0.8-0.5,1.5-1.2,1.8l1.1,1.8h-1.2l-0.9-1.5
	h-1.1v1.5h-1L290.6,25.5L290.6,25.5L290.6,25.5z M292.7,28.6c0.6,0,1.1-0.5,1.1-1.1s-0.5-1.1-1.1-1.1h-1.2v2.2H292.7z"/>
<path class="st0" d="M505.5,28.4c0-3.3,2.7-6,6-6s6,2.7,6,6s-2.7,6-6,6S505.5,31.7,505.5,28.4z M511.5,33.4c2.8,0,5-2.2,5-5
	s-2.2-5-5-5s-5,2.2-5,5S508.8,33.4,511.5,33.4z M509.6,25.5h2.2c1.2,0,2.1,0.9,2.1,2.1c0,0.8-0.5,1.5-1.2,1.8l1.1,1.8h-1.2l-0.9-1.5
	h-1.1v1.5h-1L509.6,25.5L509.6,25.5L509.6,25.5z M511.8,28.6c0.6,0,1.1-0.5,1.1-1.1s-0.5-1.1-1.1-1.1h-1.2v2.2H511.8z"/>
<g>
	<path class="st0" d="M386.7,22.7v16.6c0,5.1,0.4,8.6,1.1,10.6c0.7,2,2,2.9,3.7,2.9v0.5h-19.1v-0.5c1.8,0,3-1,3.7-2.9
		s1.1-5.5,1.1-10.6V22.4c-9.6-0.4-17,0-22.2,1.2l6.9,16.6c0.1,0.2,0.3,0.7,0.5,1.3c0.2,0.7,0.7,1.7,1.4,3.1c0.7,1.4,1.4,2.7,2.1,3.8
		s1.7,2.1,2.7,3c1.1,0.9,2.1,1.3,3.2,1.3v0.5h-20.1v-0.5c1.1,0,1.9-0.4,2.4-1.2s0.6-2.2,0.4-4.1c-0.2-1.9-1-4.3-2.1-7.2l-5.8-14
		c-6.6,3-12.5,7.9-17.9,14.9l-0.5,1.2c-0.6,1.5-1.1,2.9-1.4,4.1c-0.3,1.2-0.5,2.4-0.5,3.3c0,1,0.1,1.7,0.5,2.2
		c0.4,0.5,0.9,0.8,1.6,0.8v0.5h-10.6v-0.5c3.4,0,6.7-3.8,10.1-11.2c1.1-3,2.4-6.1,3.9-9.5s3-7.1,4.7-11.1c1.7-4,3-7.2,4-9.5v-0.1
		l1.7-4.1l2.6-6.4h0.6l9.1,22c-2.9,0.6-5.6,1.5-8.2,2.6l-5.5-13.4l-11.3,27.3c3-3.7,6-6.7,9.3-9.1s6.4-4.2,9.6-5.3
		c3.2-1.1,6.6-2,10.2-2.5s7.1-0.8,10.7-0.7s7.4,0.2,11.4,0.3c2.8,0.1,4.9,0.2,6.4,0.2c3.9,0,6.5-0.6,7.9-1.8
		c1.4-1.1,2.1-2.7,2.1-4.6h0.5V29h-0.5c0-1.9-0.6-3.3-1.9-4.5c-1.3-1.1-3.6-1.7-7.1-1.8C387.4,22.7,387,22.7,386.7,22.7L386.7,22.7
		L386.7,22.7z M372.4,1.3V0.8h33.9v0.1l2,17.7h-0.5c-0.3-2.4-0.6-4.3-0.9-5.8s-0.8-3.1-1.5-4.7c-0.7-1.6-1.6-2.9-2.6-3.8
		s-2.5-1.6-4.2-2.2s-3.9-0.9-6.3-0.9h-5.5v20.5c-1.2,0-3-0.1-5.2-0.2c-2.2-0.1-3.7-0.1-4.3-0.1v-6.7c0-5.1-0.4-8.6-1.1-10.6
		C375.4,2.3,374.1,1.3,372.4,1.3L372.4,1.3L372.4,1.3z"/>
	<path class="st0" d="M475.5,0.8h10.6v0.5c-3.3,0-6.8,4.2-10.4,12.5l-15.6,39.5h-0.5l-12.6-31.8l0.2,0.5L435,53.2h-0.5l-15.6-39.5
		c-2-4.6-3.8-7.8-5.2-9.7c-1.5-1.8-3-2.8-4.6-2.8V0.8H429v0.5c-1.6,0-2.6,0.9-2.9,2.7c-0.3,1.8,0.2,4.7,1.6,8.8l11.2,29l8.1-20.5
		l-3-7.5c-2-4.6-3.7-7.8-5.2-9.7c-1.5-1.8-3-2.8-4.6-2.8V0.8h20.1v0.5c-1.6,0-2.6,0.9-2.9,2.7c-0.3,1.8,0.2,4.7,1.6,8.8l11.2,29
		c0.6-1.5,4.3-11,11.2-28.3l1-2.8c1-2.7,1.4-4.9,1.3-6.8s-0.9-2.7-2.2-2.7L475.5,0.8L475.5,0.8L475.5,0.8z"/>
</g>
</svg>
