<?xml version="1.0" encoding="UTF-8"?>
<svg id="Layer_2" data-name="Layer 2" xmlns="http://www.w3.org/2000/svg" viewBox="0 0 725.92 50.97">
  <defs>
    <style>
      .cls-1 {
        fill: #e15e23;
        stroke-width: 0px;
      }
    </style>
  </defs>
  <g id="Layer_1-2" data-name="Layer 1">
    <path class="cls-1" d="M2.35,0h-1.31v18.69h9.56v-1.31H2.35V0ZM27.16,18.69h2.24c2.4,0,4.35-1.87,4.35-4.17V4.14c0-2.3-1.95-4.14-4.35-4.14h-2.24c-2.38,0-4.33,1.84-4.33,4.14v10.39c0,2.27,1.95,4.17,4.33,4.17ZM24.12,4.14c0-1.58,1.36-2.83,3.04-2.83h2.24c1.71,0,3.04,1.26,3.04,2.83v10.39c0,1.55-1.39,2.83-3.04,2.83h-2.24c-1.66,0-3.04-1.28-3.04-2.83V4.14ZM54.59,18.69c2.4,0,4.35-1.87,4.35-4.17V4.14c0-2.3-1.95-4.14-4.35-4.14h-2.24c-2.38,0-4.33,1.84-4.33,4.14v10.39c0,2.27,1.95,4.17,4.33,4.17h2.24ZM49.3,14.53V4.14c0-1.58,1.36-2.83,3.04-2.83h2.24c1.71,0,3.04,1.26,3.04,2.83v10.39c0,1.55-1.39,2.83-3.04,2.83h-2.24c-1.66,0-3.04-1.28-3.04-2.83ZM74.7,10.01h2.43l5.63,8.68h1.55l-6.06-9.35,6.06-9.35h-1.55l-5.63,8.68h-2.43V0h-1.31v18.69h1.31v-8.68ZM172.07,18.69h1.31v-6.09l-4.54-12.6h-1.74l-4.54,12.6v6.09h1.31v-5.15h8.2v5.15ZM164.09,12.26l3.74-10.39h.29l3.74,10.39h-7.77ZM184.57,1.31h4.54v17.38h1.31V1.31h4.54V0h-10.39v1.31ZM279.54,8.25l2.64,10.44h1.66l2.27-12.6V0h-1.31v5.77l-1.9,10.76h-.05l-2.67-10.87h-1.28l-2.67,10.87h-.05l-1.87-10.76V0h-1.31v6.09l2.27,12.6h1.63l2.64-10.44ZM309.53,8.33h-7.96V0h-1.31v18.69h1.31v-9.05h7.96v9.05h1.31V0h-1.31v8.33ZM329.45,0l-4.54,12.6v6.09h1.31v-5.15h8.2v5.15h1.31v-6.09l-4.54-12.6h-1.74ZM326.44,12.26l3.74-10.39h.29l3.74,10.39h-7.77ZM346.92,1.31h4.54v17.38h1.31V1.31h4.54V0h-10.39v1.31ZM433.98,1.31h4.54v17.38h1.31V1.31h4.54V0h-10.39v1.31ZM467.02,8.33h-7.96V0h-1.31v18.69h1.31v-9.05h7.96v9.05h1.31V0h-1.31v8.33ZM482.99,18.69h9.51v-1.31h-8.2v-8.01h7.13v-1.31h-7.13V1.31h8.2V0h-9.51v18.69ZM571.89,18.69h1.31v-8.68h6.65v-1.31h-6.65V1.31h7.66V0h-8.97v18.69ZM597,0l-4.54,12.6v6.09h1.31v-5.15h8.2v5.15h1.31v-6.09l-4.54-12.6h-1.74ZM593.98,12.26l3.74-10.39h.29l3.74,10.39h-7.77ZM618.26,3.77c0-1.5,1.15-2.46,2.96-2.46h1.26c1.66,0,2.99,1.34,2.99,2.99v.8h1.34v-.8c0-2.38-1.95-4.3-4.33-4.3h-1.26c-2.54,0-4.3,1.52-4.3,3.77,0,4.59,8.81,6.57,8.81,10.89,0,1.58-1.26,2.72-2.99,2.72h-1.79c-1.63,0-2.96-1.34-2.96-2.99v-1.23h-1.34v1.23c0,2.38,1.95,4.3,4.3,4.3h1.79c2.46,0,4.33-1.74,4.33-4.03,0-5.26-8.81-7.34-8.81-10.89ZM650.28,8.33h-7.96V0h-1.31v18.69h1.31v-9.05h7.96v9.05h1.31V0h-1.31v8.33ZM665.21,1.31h4.54v16.08h-4.54v1.31h10.39v-1.31h-4.54V1.31h4.54V0h-10.39v1.31ZM695.39,0h-2.24c-2.38,0-4.33,1.84-4.33,4.14v10.39c0,2.27,1.95,4.17,4.33,4.17h2.24c2.4,0,4.35-1.87,4.35-4.17V4.14c0-2.3-1.95-4.14-4.35-4.14ZM698.43,14.53c0,1.55-1.39,2.83-3.04,2.83h-2.24c-1.66,0-3.04-1.28-3.04-2.83V4.14c0-1.58,1.36-2.83,3.04-2.83h2.24c1.71,0,3.04,1.26,3.04,2.83v10.39ZM724.87,0h-1.31v17.38h-.56l-6.04-17.38h-2.78v18.69h1.31V1.31h.56l6.03,17.38h2.78V0ZM0,33.59h4.54v16.08H0v1.31h10.39v-1.31h-4.54v-16.08h4.54v-1.31H0v1.31ZM33.36,49.66h-.56l-6.03-17.38h-2.78v18.69h1.31v-17.38h.56l6.03,17.38h2.78v-18.69h-1.31v17.38ZM55.58,32.28h-6.28v18.69h6.28c2.27,0,4.11-1.9,4.11-4.17v-10.39c0-2.3-1.84-4.14-4.11-4.14ZM58.38,46.8c0,1.55-1.26,2.83-2.8,2.83h-4.97v-16.05h4.97c1.58,0,2.8,1.26,2.8,2.83v10.39ZM83.62,46.8c0,1.55-1.28,2.83-2.83,2.83h-2.56c-1.55,0-2.83-1.28-2.83-2.83v-14.53h-1.31v14.53c0,2.3,1.87,4.17,4.14,4.17h2.56c2.27,0,4.14-1.9,4.14-4.17v-14.53h-1.31v14.53ZM100.45,36.04c0-1.5,1.15-2.46,2.96-2.46h1.26c1.66,0,2.99,1.34,2.99,2.99v.8h1.34v-.8c0-2.38-1.95-4.3-4.33-4.3h-1.26c-2.54,0-4.3,1.52-4.3,3.77,0,4.59,8.81,6.57,8.81,10.89,0,1.58-1.26,2.72-2.99,2.72h-1.79c-1.63,0-2.96-1.34-2.96-2.99v-1.23h-1.34v1.23c0,2.38,1.95,4.3,4.3,4.3h1.79c2.46,0,4.33-1.74,4.33-4.03,0-5.26-8.81-7.34-8.81-10.89ZM121.44,33.59h4.54v17.38h1.31v-17.38h4.54v-1.31h-10.39v1.31ZM151.48,32.28h-6.28v18.69h1.31v-8.84h3.63l4.01,8.84h1.44l-4.03-8.84c2.27-.05,4.03-1.84,4.03-4.11v-1.6c0-2.3-1.82-4.14-4.11-4.14ZM154.29,38.02c0,1.58-1.23,2.8-2.8,2.8h-4.97v-7.24h4.97c1.58,0,2.8,1.26,2.8,2.83v1.6ZM178.25,37.81l-4.03,4.99h-.05l-4.03-4.81v-5.71h-1.31v6.2l4.7,5.63v6.86h1.31v-6.86l4.73-5.85v-5.98h-1.31v5.53ZM282.53,32.28h-6.28v18.69h1.31v-8.84h3.63l4.01,8.84h1.44l-4.03-8.84c2.27-.05,4.03-1.84,4.03-4.11v-1.6c0-2.3-1.82-4.14-4.11-4.14ZM285.33,38.02c0,1.58-1.23,2.8-2.8,2.8h-4.97v-7.24h4.97c1.58,0,2.8,1.26,2.8,2.83v1.6ZM300.48,50.97h9.51v-1.31h-8.2v-8.01h7.13v-1.31h-7.13v-6.76h8.2v-1.31h-9.51v18.69ZM323.66,50.97h1.31v-8.68h6.65v-1.31h-6.65v-7.4h7.66v-1.31h-8.97v18.69ZM355.31,46.8c0,1.55-1.28,2.83-2.83,2.83h-2.56c-1.55,0-2.83-1.28-2.83-2.83v-14.53h-1.31v14.53c0,2.3,1.87,4.17,4.14,4.17h2.56c2.27,0,4.14-1.9,4.14-4.17v-14.53h-1.31v14.53ZM372.14,36.04c0-1.5,1.15-2.46,2.96-2.46h1.26c1.66,0,2.99,1.34,2.99,2.99v.8h1.34v-.8c0-2.38-1.95-4.3-4.33-4.3h-1.26c-2.54,0-4.3,1.52-4.3,3.77,0,4.59,8.81,6.57,8.81,10.89,0,1.58-1.26,2.72-2.99,2.72h-1.79c-1.63,0-2.96-1.34-2.96-2.99v-1.23h-1.34v1.23c0,2.38,1.95,4.3,4.3,4.3h1.79c2.46,0,4.33-1.74,4.33-4.03,0-5.26-8.81-7.34-8.81-10.89ZM394.89,50.97h9.51v-1.31h-8.2v-8.01h7.13v-1.31h-7.13v-6.76h8.2v-1.31h-9.51v18.69ZM419.01,36.04c0-1.5,1.15-2.46,2.96-2.46h1.26c1.66,0,2.99,1.34,2.99,2.99v.8h1.34v-.8c0-2.38-1.95-4.3-4.33-4.3h-1.26c-2.54,0-4.3,1.52-4.3,3.77,0,4.59,8.81,6.57,8.81,10.89,0,1.58-1.26,2.72-2.99,2.72h-1.79c-1.63,0-2.96-1.34-2.96-2.99v-1.23h-1.34v1.23c0,2.38,1.95,4.3,4.3,4.3h1.79c2.46,0,4.33-1.74,4.33-4.03,0-5.26-8.81-7.34-8.81-10.89ZM523.05,33.59h4.54v17.38h1.31v-17.38h4.54v-1.31h-10.39v1.31ZM552.54,32.28h-2.24c-2.38,0-4.33,1.84-4.33,4.14v10.39c0,2.27,1.95,4.17,4.33,4.17h2.24c2.4,0,4.35-1.87,4.35-4.17v-10.39c0-2.3-1.95-4.14-4.35-4.14ZM555.58,46.8c0,1.55-1.39,2.83-3.04,2.83h-2.24c-1.66,0-3.04-1.28-3.04-2.83v-10.39c0-1.58,1.36-2.83,3.04-2.83h2.24c1.71,0,3.04,1.26,3.04,2.83v10.39ZM655.41,36.04c0-1.5,1.15-2.46,2.96-2.46h1.26c1.66,0,2.99,1.34,2.99,2.99v.8h1.34v-.8c0-2.38-1.95-4.3-4.33-4.3h-1.26c-2.54,0-4.3,1.52-4.3,3.77,0,4.59,8.81,6.57,8.81,10.89,0,1.58-1.26,2.72-2.99,2.72h-1.79c-1.63,0-2.96-1.34-2.96-2.99v-1.23h-1.34v1.23c0,2.38,1.95,4.3,4.3,4.3h1.79c2.46,0,4.33-1.74,4.33-4.03,0-5.26-8.81-7.34-8.81-10.89ZM678.16,50.97h9.51v-1.31h-8.2v-8.01h7.13v-1.31h-7.13v-6.76h8.2v-1.31h-9.51v18.69ZM701.35,50.97h9.51v-1.31h-8.2v-8.01h7.13v-1.31h-7.13v-6.76h8.2v-1.31h-9.51v18.69ZM723.97,49.1v1.87h1.95v-1.87h-1.95Z"/>
  </g>
</svg>