<?xml version="1.0" encoding="UTF-8"?>
<svg id="Layer_2" data-name="Layer 2" xmlns="http://www.w3.org/2000/svg" viewBox="0 0 961.11 58.96">
  <defs>
    <style>
      .cls-1 {
        font-size: 6.15px;
        letter-spacing: -.1em;
      }

      .cls-1, .cls-2 {
        font-family: PPSupplySans-Ultralight, 'PP Supply Sans';
        font-weight: 100;
        stroke-width: .87px;
      }

      .cls-1, .cls-2, .cls-3, .cls-4, .cls-5 {
        fill: none;
        stroke: #e15e23;
        stroke-miterlimit: 10;
      }

      .cls-2 {
        font-size: 7.41px;
        letter-spacing: -.1em;
      }

      .cls-6 {
        fill: #e15e23;
        stroke-width: 0px;
      }

      .cls-4 {
        fill-rule: evenodd;
      }

      .cls-4, .cls-5 {
        stroke-width: .87px;
      }
    </style>
  </defs>
  <g id="Isolation_Mode" data-name="Isolation Mode">
    <g>
      <g>
        <g>
          <g id="bi5cF2">
            <g>
              <path class="cls-5" d="M909.26,30.52c-.76,1.01-1.57,1.93-2.18,2.96-1.96,3.3-.84,7,2.55,8.57,1.07.5,2.2.72,3.38.67v-2.02c-.7-.13-1.36-.2-1.99-.39-2.37-.74-3.43-3.03-2.36-5.24.4-.82,1.03-1.54,1.57-2.29.17-.24.4-.44.68-.73v3.24h2.11v-6.86h-6.88v2.1h3.11ZM913.62,35.83c-.02.06-.04.1-.04.14,0,2.17,0,4.34,0,6.51,0,.28.14.36.38.36.4,0,.8-.02,1.2,0,.41.02.58-.09.56-.55-.04-.91-.01-1.82-.01-2.81.16.14.25.22.35.3.85.66,1.64,1.41,2.55,1.97,3.14,1.91,6.74.99,8.42-2.09.65-1.19.91-2.47.9-3.83h-2.09c-.05.43-.07.83-.14,1.22-.08.39-.19.78-.34,1.14-.81,2-2.74,2.9-4.73,2.18-1.31-.47-2.33-1.37-3.29-2.34-.01-.01.01-.05.02-.11h3.09v-2.09h-6.84ZM916.79,25.54c-.03.07-.05.13-.08.2h-3.1v2.09h6.89v-6.81h-2.14v3.12c-.69-.57-1.32-1.12-1.98-1.64-1.53-1.21-3.28-1.78-5.22-1.48-3.64.56-5.13,4.12-4.99,6.81h2.04c.08-.54.12-1.06.24-1.56.63-2.82,3.23-4.03,5.75-2.61.93.52,1.74,1.25,2.6,1.88ZM924.7,33.15c.14-.16.21-.24.28-.32.69-.9,1.49-1.74,2.06-2.71,1.58-2.69,1.1-5.74-1.13-7.58-1.4-1.16-3.03-1.64-4.86-1.54v2c.61.1,1.21.16,1.79.31,2.16.57,3.35,2.43,2.87,4.48-.25,1.08-.88,1.95-1.59,2.78-.29.34-.59.66-.89,1-.03-.02-.06-.03-.1-.05v-3.14h-2.08v6.86h6.86v-2.09h-3.21Z"/>
              <path class="cls-5" d="M909.26,30.52h-3.11v-2.1h6.88v6.86h-2.11v-3.24c-.28.29-.51.49-.68.73-.54.75-1.17,1.46-1.57,2.29-1.07,2.21-.02,4.5,2.36,5.24.63.19,1.29.26,1.99.39v2.02c-1.19.06-2.32-.17-3.38-.67-3.39-1.57-4.51-5.27-2.55-8.57.61-1.03,1.43-1.94,2.18-2.96Z"/>
              <path class="cls-5" d="M913.62,35.83h6.84v2.09h-3.09c-.01.06-.03.1-.02.11.96.97,1.98,1.87,3.29,2.34,1.99.72,3.92-.18,4.73-2.18.15-.37.26-.75.34-1.14.08-.39.1-.79.14-1.22h2.09c0,1.36-.25,2.64-.9,3.83-1.69,3.08-5.29,4-8.42,2.09-.91-.56-1.71-1.3-2.55-1.97-.1-.08-.19-.16-.35-.3,0,.99-.03,1.9.01,2.81.02.45-.16.57-.56.55-.4-.02-.8,0-1.2,0-.24,0-.38-.08-.38-.36,0-2.17,0-4.34,0-6.51,0-.04.02-.08.04-.14Z"/>
              <path class="cls-5" d="M916.79,25.54c-.86-.63-1.67-1.36-2.6-1.88-2.52-1.42-5.11-.21-5.75,2.61-.11.5-.16,1.02-.24,1.56h-2.04c-.14-2.69,1.34-6.25,4.99-6.81,1.93-.3,3.68.28,5.22,1.48.66.52,1.29,1.07,1.98,1.64v-3.12h2.14v6.81h-6.89v-2.09h3.1c.03-.07.05-.13.08-.2Z"/>
              <path class="cls-5" d="M924.7,33.15h3.21v2.09h-6.86v-6.86h2.08v3.14s.06.03.1.05c.3-.33.6-.66.89-1,.7-.83,1.33-1.7,1.59-2.78.48-2.05-.71-3.92-2.87-4.48-.58-.15-1.18-.21-1.79-.31v-2c1.83-.1,3.46.39,4.86,1.54,2.22,1.84,2.7,4.89,1.13,7.58-.57.97-1.36,1.81-2.06,2.71-.06.08-.13.15-.28.32Z"/>
            </g>
          </g>
          <g>
            <path class="cls-4" d="M850.73,27.9c.44-.48,1.17-.61,1.75-.27.59.34.84,1.04.64,1.66l.53.31,2.47.06,1.16-2.02-1.85-.04,2.21-3.79c.12.18.24.37.36.57l2.5,4.33,4.38-2.53-1.92-3.33c-.32-.56-1.05-.92-1.7-.92h-7.42s.06,0,.09,0c-.66.02-1.21.26-1.59.91l-1.29,2.22-.96-1.58-1.16,2.02,1.28,2.11.52.3Z"/>
            <path class="cls-4" d="M854.51,33.69l.89,1.62-4.38-.02c.09-.19.2-.39.31-.59l2.5-4.33-4.38-2.53-1.92,3.33c-.32.56-.27,1.37.05,1.93l1.34,2.32,2.27,3.94s0,0,0,0l.1.17s-.04-.07-.06-.11c.35.58.83.95,1.6.95h2.57s-.89,1.63-.89,1.63h2.33l1.18-2.16v-.61c-.64-.14-1.11-.7-1.11-1.38s.48-1.24,1.11-1.38v-.61l-1.18-2.16h-2.33Z"/>
            <path class="cls-4" d="M867.77,31.18l-1.27-2.23,1.85-.04-1.16-2.02-2.47.06-.53.3c.2.62-.05,1.32-.64,1.66-.59.34-1.32.21-1.76-.28l-.53.3-1.28,2.11,1.16,2.02.96-1.58,2.17,3.81c-.21.02-.44.03-.67.03h-5v5.06h3.84c.64,0,1.32-.45,1.64-1.01l1.12-1.95h0l2.49-4.31s0,0,0,0l.1-.17s-.03.05-.05.08c.31-.59.38-1.17,0-1.84Z"/>
          </g>
          <circle class="cls-5" cx="857.56" cy="31.25" r="13.9"/>
          <circle class="cls-5" cx="887.28" cy="31.25" r="13.9"/>
          <circle class="cls-5" cx="946.77" cy="31.25" r="13.9"/>
          <circle class="cls-5" cx="828.16" cy="31.25" r="13.9"/>
          <path class="cls-4" d="M837.64,31.18l-2.66-4.49-4.26,2.55,3.43,6.04c-.21.02-.44.03-.15.03h-5v5.06h3.32c.64,0,1.32-.45,1.64-1.01l1.12-1.95h0l2.49-4.31h0s.1-.17.1-.17c-.02.03-.03.05-.05.08.31-.59.38-1.17,0-1.84ZM835.03,31.46l-1.41-.12-.89-1.52,1.98-1.14.89,1.52-.57,1.26Z"/>
          <path class="cls-4" d="M834.49,25.73l-1.66-2.88c-.32-.56-1.05-.92-1.7-.92h-2.25s0,0,0,0h-4.98s0,0,0,0h-.19s.06,0,.09,0c-.66.02-1.21.26-1.59.92l-2.55,4.55,4.34,2.4,3.51-6c.12.18.24.37.1.12l2.5,4.33,4.38-2.54ZM823.49,27.8l-1.97-1.14.87-1.53,1.37-.14.6,1.28-.87,1.53Z"/>
          <path class="cls-4" d="M827.83,35.39l-6.95-.09c.09-.19.2-.39.05-.14l2.52-4.31-4.37-2.56-1.68,2.87c-.32.56-.28,1.37.04,1.93l1.11,1.95,2.47,4.33s0,0,0,0l.09.17s-.03-.05-.04-.08c.35.57.82.92,1.58.93l5.21-.03-.06-4.96ZM826.31,39.11h-1.76s-.8-1.13-.8-1.13l.82-1.16h1.76s-.02,2.28-.02,2.28Z"/>
          <line class="cls-5" x1="879.22" y1="38.52" x2="895.92" y2="38.52"/>
          <polygon class="cls-5" points="893.98 36.98 880.71 36.98 878.47 25.27 896.23 25.27 893.98 36.98"/>
          <text class="cls-2" transform="translate(882.92 33.76)"><tspan x="0" y="0">60</tspan></text>
          <text class="cls-1" transform="translate(889.72 31.73)"><tspan x="0" y="0">o</tspan></text>
          <polygon class="cls-5" points="954.16 30.1 954.16 30.1 953.16 23.12 941.08 23.12 941.08 23.97 952.42 23.97 953.24 29.68 940.6 29.68 937.45 39.03 955.45 39.03 954.16 30.1"/>
          <line class="cls-5" x1="955.41" y1="21.99" x2="938.06" y2="41.03"/>
          <line class="cls-5" x1="938.06" y1="21.99" x2="955.41" y2="41.03"/>
        </g>
        <g>
          <path class="cls-6" d="M926.83,19.48h-.65v-.38h1.67v.38h-.65v1.8h-.38v-1.8Z"/>
          <path class="cls-6" d="M929.62,19.86l-.47.91h-.21l-.47-.91v1.43h-.38v-2.18h.4l.55,1.07.55-1.07h.4"/>
        </g>
      </g>
      <path class="cls-6" d="M12.82,17.19L6,0H1.31v21.72h3.11V4.53l6.81,17.19h4.7V0h-3.11v17.19ZM29.86,0h-2.61C24.05,0,21.4,2.48,21.4,5.59v10.52c0,3.07,2.64,5.62,5.85,5.62h2.61c3.24,0,5.85-2.54,5.85-5.62V5.59C35.71,2.48,33.1,0,29.86,0ZM32.63,16.11c0,1.37-1.28,2.48-2.77,2.48h-2.61c-1.49,0-2.77-1.12-2.77-2.48V5.59c0-1.37,1.21-2.48,2.77-2.48h2.61c1.56,0,2.77,1.09,2.77,2.48v10.52ZM64.27,21.72V0h-3.3l-4.48,8.72L52.01,0h-3.3v21.72h3.11V6.14l3.83,7.45h1.68l3.83-7.45v15.58h3.11ZM83.19,21.72v-7.14L77.74,0h-3.11l-5.44,14.58v7.14h3.11v-5.03h7.78v5.03h3.11ZM72.89,13.59l3.27-8.69h.06l3.27,8.69h-6.6ZM84.86,3.1h5.29v18.62h3.11V3.1h5.29V0h-13.69v3.1ZM101.66,3.1h5.29v18.62h3.11V3.1h5.29V0h-13.69v3.1ZM119.77,21.72h12.44v-3.1h-9.33v-6.73h8.12v-3.1h-8.12V3.1h9.33V0h-12.44v21.72ZM145.28,0h-8.09v21.72h3.11v-8.69h3.2l3.95,8.69h3.42l-4.08-8.91c2.36-.65,4.08-2.79,4.08-5.37v-1.86C150.88,2.48,148.39,0,145.28,0ZM147.77,7.45c0,1.4-1.09,2.48-2.49,2.48h-4.98V3.1h4.98c1.4,0,2.49,1.09,2.49,2.48v1.86ZM166.43,11.79h8.09v9.93h3.11V0h-3.11v8.69h-8.09V0h-3.11v21.72h3.11v-9.93ZM197.42,16.11V5.59C197.42,2.48,194.8,0,191.57,0h-2.61c-3.2,0-5.85,2.48-5.85,5.59v10.52c0,3.07,2.64,5.62,5.85,5.62h2.61c3.24,0,5.85-2.54,5.85-5.62ZM194.34,16.11c0,1.37-1.28,2.48-2.77,2.48h-2.61c-1.49,0-2.77-1.12-2.77-2.48V5.59c0-1.37,1.21-2.48,2.77-2.48h2.61c1.56,0,2.77,1.09,2.77,2.48v10.52ZM218.98,7.14V0h-3.08v6.21l-1.49,8.29-2.36-8.91h-2.61l-2.36,8.91-1.49-8.29V0h-3.08v7.14l2.74,14.58h2.64l2.86-9.28,2.86,9.28h2.64l2.74-14.58ZM234.93,6.14l3.83,7.45h1.68l3.83-7.45v15.58h3.11V0h-3.3l-4.48,8.72L235.12,0h-3.3v21.72h3.11V6.14ZM263.9,16.11c0,1.37-1.12,2.48-2.49,2.48h-2.8c-1.37,0-2.49-1.12-2.49-2.48V0h-3.11v16.11c0,3.07,2.49,5.62,5.6,5.62h2.8c3.08,0,5.6-2.54,5.6-5.62V0h-3.11v16.11ZM280.48,21.72c3.11,0,5.6-2.54,5.6-5.62v-1.71h-3.11v1.71c0,1.37-1.12,2.48-2.49,2.48h-2.49c-1.37,0-2.49-1.12-2.49-2.48V5.59c0-1.37,1.09-2.48,2.49-2.48h2.49c1.4,0,2.49,1.09,2.49,2.48v1.71h3.11v-1.71C286.08,2.48,283.59,0,280.48,0h-2.49c-3.08,0-5.6,2.48-5.6,5.59v10.52c0,3.07,2.52,5.62,5.6,5.62h2.49ZM302.28,21.72h3.11V0h-3.11v8.69h-8.09V0h-3.11v21.72h3.11v-9.93h8.09v9.93ZM511.49,0l-5.44,14.58v7.14h3.11v-5.03h7.78v5.03h3.11v-7.14L514.6,0h-3.11ZM509.75,13.59l3.27-8.69h.06l3.27,8.69h-6.6ZM539.58,21.72V0h-3.11v17.19L529.66,0h-4.7v21.72h3.11V4.53l6.81,17.19h4.7ZM561.05,0h-2.61c-3.2,0-5.85,2.48-5.85,5.59v10.52c0,3.07,2.64,5.62,5.85,5.62h2.61c3.24,0,5.85-2.54,5.85-5.62V5.59C566.9,2.48,564.28,0,561.05,0ZM563.82,16.11c0,1.37-1.28,2.48-2.77,2.48h-2.61c-1.49,0-2.77-1.12-2.77-2.48V5.59c0-1.37,1.21-2.48,2.77-2.48h2.61c1.56,0,2.77,1.09,2.77,2.48v10.52ZM583.17,16.11c0,1.37-1.12,2.48-2.49,2.48h-2.8c-1.37,0-2.49-1.12-2.49-2.48V0h-3.11v16.11c0,3.07,2.49,5.62,5.6,5.62h2.8c3.08,0,5.6-2.54,5.6-5.62V0h-3.11v16.11ZM590.6,3.1h5.29v18.62h3.11V3.1h5.29V0h-13.69v3.1ZM608.71,21.72h3.11v-8.91h7.56v-3.1h-7.56V3.1h8.71V0h-11.82v21.72ZM637.7,18.62h-5.29V3.1h5.29V0h-13.69v3.1h5.29v15.52h-5.29v3.1h13.69v-3.1ZM641.18,3.1h5.29v18.62h3.11V3.1h5.29V0h-13.69v3.1ZM673.94,0h-2.49c-3.08,0-5.6,2.48-5.6,5.59v10.52c0,3.07,2.52,5.62,5.6,5.62h2.49c3.11,0,5.6-2.54,5.6-5.62v-1.71h-3.11v1.71c0,1.37-1.12,2.48-2.49,2.48h-2.49c-1.37,0-2.49-1.12-2.49-2.48V5.59c0-1.37,1.09-2.48,2.49-2.48h2.49c1.4,0,2.49,1.09,2.49,2.48v1.71h3.11v-1.71C679.54,2.48,677.05,0,673.94,0ZM692.76,0h-2.61c-3.2,0-5.85,2.48-5.85,5.59v10.52c0,3.07,2.64,5.62,5.85,5.62h2.61c3.24,0,5.85-2.54,5.85-5.62V5.59C698.61,2.48,696,0,692.76,0ZM695.53,16.11c0,1.37-1.28,2.48-2.77,2.48h-2.61c-1.49,0-2.77-1.12-2.77-2.48V5.59c0-1.37,1.21-2.48,2.77-2.48h2.61c1.56,0,2.77,1.09,2.77,2.48v10.52ZM706.76,5.15c0-1.27,1-2.05,2.68-2.05h1.46c1.49,0,2.71,1.18,2.71,2.67v.93h3.11v-.93C716.72,2.58,714.1,0,710.9,0h-1.46c-3.39,0-5.79,2.11-5.79,5.15,0,5.9,10.27,6.83,10.27,11.11,0,1.37-1.12,2.36-2.71,2.36h-2.08c-1.46,0-2.68-1.21-2.68-2.67v-1.24h-3.11v1.24c0,3.2,2.58,5.77,5.79,5.77h2.08c3.3,0,5.82-2.36,5.82-5.46,0-6.55-10.27-7.82-10.27-11.11ZM720.04,3.1h5.29v18.62h3.11V3.1h5.29V0h-13.69v3.1ZM744.75,21.72c3.3,0,5.82-2.36,5.82-5.46,0-6.55-10.27-7.82-10.27-11.11,0-1.27,1-2.05,2.68-2.05h1.46c1.49,0,2.71,1.18,2.71,2.67v.93h3.11v-.93C750.25,2.58,747.64,0,744.43,0h-1.46c-3.39,0-5.79,2.11-5.79,5.15,0,5.9,10.27,6.83,10.27,11.11,0,1.37-1.12,2.36-2.71,2.36h-2.08c-1.46,0-2.68-1.21-2.68-2.67v-1.24h-3.11v1.24c0,3.2,2.58,5.77,5.79,5.77h2.08ZM758.77,18.62h-3.11l-2.24,6.52h1.37l3.24-4.25.75-2.27ZM0,40.35h5.29v18.62h3.11v-18.62h5.29v-3.1H0v3.1ZM29.3,45.93h-8.09v-8.69h-3.11v21.72h3.11v-9.93h8.09v9.93h3.11v-21.72h-3.11v8.69ZM38.14,58.96h12.44v-3.1h-9.33v-6.73h8.12v-3.1h-8.12v-5.68h9.33v-3.1h-12.44v21.72ZM63.09,58.96h12.44v-3.1h-9.33v-6.73h8.12v-3.1h-8.12v-5.68h9.33v-3.1h-12.44v21.72ZM92.02,54.43l-6.81-17.19h-4.7v21.72h3.11v-17.19l6.81,17.19h4.7v-21.72h-3.11v17.19ZM110.72,43.82l-3.7,10.24h-.06l-3.7-10.24v-6.58h-3.11v7.14l5.29,14.58h3.11l5.29-14.58v-7.14h-3.11v6.58ZM117.9,40.35h5.29v15.52h-5.29v3.1h13.69v-3.1h-5.29v-15.52h5.29v-3.1h-13.69v3.1ZM144.47,37.24h-8.09v21.72h3.11v-8.69h3.2l3.95,8.69h3.42l-4.08-8.91c2.36-.65,4.08-2.79,4.08-5.37v-1.86c0-3.1-2.49-5.59-5.6-5.59ZM146.96,44.69c0,1.4-1.09,2.48-2.49,2.48h-4.98v-6.83h4.98c1.4,0,2.49,1.09,2.49,2.48v1.86ZM163.2,37.24h-2.61c-3.2,0-5.85,2.48-5.85,5.59v10.52c0,3.07,2.64,5.62,5.85,5.62h2.61c3.24,0,5.85-2.54,5.85-5.62v-10.52c0-3.1-2.61-5.59-5.85-5.59ZM165.97,53.35c0,1.37-1.28,2.48-2.77,2.48h-2.61c-1.49,0-2.77-1.12-2.77-2.48v-10.52c0-1.37,1.21-2.48,2.77-2.48h2.61c1.56,0,2.77,1.09,2.77,2.48v10.52ZM186.03,54.43l-6.81-17.19h-4.7v21.72h3.11v-17.19l6.81,17.19h4.7v-21.72h-3.11v17.19ZM202.64,45.96l-4.48-8.72h-3.3v21.72h3.11v-15.58l3.83,7.45h1.68l3.83-7.45v15.58h3.11v-21.72h-3.3l-4.48,8.72ZM216.14,58.96h12.44v-3.1h-9.33v-6.73h8.12v-3.1h-8.12v-5.68h9.33v-3.1h-12.44v21.72ZM245.08,54.43l-6.81-17.19h-4.7v21.72h3.11v-17.19l6.81,17.19h4.7v-21.72h-3.11v17.19ZM252.6,40.35h5.29v18.62h3.11v-18.62h5.29v-3.1h-13.69v3.1ZM282.16,37.24l-5.44,14.58v7.14h3.11v-5.03h7.78v5.03h3.11v-7.14l-5.44-14.58h-3.11ZM280.41,50.83l3.27-8.69h.06l3.27,8.69h-6.6ZM298.74,37.24h-3.11v21.72h12.07v-3.1h-8.96v-18.62ZM324.22,43.45l-1.49,8.29-2.36-8.91h-2.61l-2.36,8.91-1.49-8.29v-6.21h-3.08v7.14l2.74,14.58h2.64l2.86-9.28,2.86,9.28h2.64l2.74-14.58v-7.14h-3.08v6.21ZM337,37.24l-5.44,14.58v7.14h3.11v-5.03h7.78v5.03h3.11v-7.14l-5.44-14.58h-3.11ZM335.26,50.83l3.27-8.69h.06l3.27,8.69h-6.6ZM359.06,43.57l-3.67,4.56h-.12l-3.67-4.56v-6.33h-3.11v7.45l5.29,6.55v7.73h3.11v-7.73l5.29-6.55v-7.45h-3.11v6.33ZM369.63,42.39c0-1.27,1-2.05,2.68-2.05h1.46c1.49,0,2.71,1.18,2.71,2.67v.93h3.11v-.93c0-3.2-2.61-5.77-5.82-5.77h-1.46c-3.39,0-5.79,2.11-5.79,5.15,0,5.9,10.27,6.83,10.27,11.11,0,1.37-1.12,2.36-2.71,2.36h-2.08c-1.46,0-2.68-1.21-2.68-2.67v-1.24h-3.11v1.24c0,3.2,2.58,5.77,5.79,5.77h2.08c3.3,0,5.82-2.36,5.82-5.46,0-6.55-10.27-7.82-10.27-11.11ZM400.49,37.24h-8.09v21.72h3.11v-8.69h4.98c3.11,0,5.6-2.48,5.6-5.59v-1.86c0-3.1-2.49-5.59-5.6-5.59ZM402.98,44.69c0,1.4-1.09,2.48-2.49,2.48h-4.98v-6.83h4.98c1.4,0,2.49,1.09,2.49,2.48v1.86ZM414.49,37.24l-5.44,14.58v7.14h3.11v-5.03h7.78v5.03h3.11v-7.14l-5.44-14.58h-3.11ZM412.75,50.83l3.27-8.69h.06l3.27,8.69h-6.6ZM436.55,43.57l-3.67,4.56h-.12l-3.67-4.56v-6.33h-3.11v7.45l5.29,6.55v7.73h3.11v-7.73l5.29-6.55v-7.45h-3.11v6.33ZM447.13,42.39c0-1.27,1-2.05,2.68-2.05h1.46c1.49,0,2.71,1.18,2.71,2.67v.93h3.11v-.93c0-3.2-2.61-5.77-5.82-5.77h-1.46c-3.39,0-5.79,2.11-5.79,5.15,0,5.9,10.27,6.83,10.27,11.11,0,1.37-1.12,2.36-2.71,2.36h-2.08c-1.46,0-2.68-1.21-2.68-2.67v-1.24h-3.11v1.24c0,3.2,2.58,5.77,5.79,5.77h2.08c3.3,0,5.82-2.36,5.82-5.46,0-6.55-10.27-7.82-10.27-11.11ZM467.88,40.35h5.29v18.62h3.11v-18.62h5.29v-3.1h-13.69v3.1ZM497.18,45.93h-8.09v-8.69h-3.11v21.72h3.11v-9.93h8.09v9.93h3.11v-21.72h-3.11v8.69ZM506.02,58.96h12.44v-3.1h-9.33v-6.73h8.12v-3.1h-8.12v-5.68h9.33v-3.1h-12.44v21.72ZM542.16,45.93h-8.09v-8.69h-3.11v21.72h3.11v-9.93h8.09v9.93h3.11v-21.72h-3.11v8.69ZM550.07,40.35h5.29v15.52h-5.29v3.1h13.69v-3.1h-5.29v-15.52h5.29v-3.1h-13.69v3.1ZM576.38,37.24h-2.49c-3.08,0-5.6,2.48-5.6,5.59v10.52c0,3.07,2.52,5.62,5.6,5.62h2.49c3.11,0,5.6-2.54,5.6-5.62v-6.08h-7.78v3.1h4.67v2.98c0,1.37-1.12,2.48-2.49,2.48h-2.49c-1.37,0-2.49-1.12-2.49-2.48v-10.52c0-1.37,1.09-2.48,2.49-2.48h2.49c1.4,0,2.49,1.09,2.49,2.48v1.71h3.11v-1.71c0-3.1-2.49-5.59-5.6-5.59ZM598.63,45.93h-8.09v-8.69h-3.11v21.72h3.11v-9.93h8.09v9.93h3.11v-21.72h-3.11v8.69ZM607.46,58.96h12.44v-3.1h-9.33v-6.73h8.12v-3.1h-8.12v-5.68h9.33v-3.1h-12.44v21.72ZM627.56,42.39c0-1.27,1-2.05,2.68-2.05h1.46c1.49,0,2.71,1.18,2.71,2.67v.93h3.11v-.93c0-3.2-2.61-5.77-5.82-5.77h-1.46c-3.39,0-5.79,2.11-5.79,5.15,0,5.9,10.27,6.83,10.27,11.11,0,1.37-1.12,2.36-2.71,2.36h-2.08c-1.46,0-2.68-1.21-2.68-2.67v-1.24h-3.11s2.58,7.01,5.79,7.01h2.08c3.3,0,5.82-2.36,5.82-5.46,0-6.55-10.27-7.82-10.27-11.11ZM640.84,40.35h5.29v18.62h3.11v-18.62h5.29v-3.1h-13.69v3.1ZM673.85,37.24h-8.09v21.72h3.11v-8.69h4.98c3.11,0,5.6-2.48,5.6-5.59v-1.86c0-3.1-2.49-5.59-5.6-5.59ZM676.34,44.69c0,1.4-1.09,2.48-2.49,2.48h-4.98v-6.83h4.98c1.4,0,2.49,1.09,2.49,2.48v1.86ZM692.23,37.24h-8.09v21.72h3.11v-8.69h3.2l3.95,8.69h3.42l-4.08-8.91c2.36-.65,4.08-2.79,4.08-5.37v-1.86c0-3.1-2.49-5.59-5.6-5.59ZM694.72,44.69c0,1.4-1.09,2.48-2.49,2.48h-4.98v-6.83h4.98c1.4,0,2.49,1.09,2.49,2.48v1.86ZM701.81,40.35h5.29v15.52h-5.29v3.1h13.69v-3.1h-5.29v-15.52h5.29v-3.1h-13.69v3.1ZM728.13,37.24h-2.49c-3.08,0-5.6,2.48-5.6,5.59v10.52c0,3.07,2.52,5.62,5.6,5.62h2.49c3.11,0,5.6-2.54,5.6-5.62v-1.71h-3.11v1.71c0,1.37-1.12,2.48-2.49,2.48h-2.49c-1.37,0-2.49-1.12-2.49-2.48v-10.52c0-1.37,1.09-2.48,2.49-2.48h2.49c1.4,0,2.49,1.09,2.49,2.48v1.71h3.11v-1.71c0-3.1-2.49-5.59-5.6-5.59ZM738.74,58.96h12.44v-3.1h-9.33v-6.73h8.12v-3.1h-8.12v-5.68h9.33v-3.1h-12.44v21.72ZM755.76,55.71v3.26h3.58v-3.26h-3.58Z"/>
      <line class="cls-3" x1="315.65" y1="10.85" x2="493.14" y2="10.85"/>
    </g>
  </g>
</svg>