<?xml version="1.0" encoding="UTF-8"?>
<svg id="Layer_2" data-name="Layer 2" xmlns="http://www.w3.org/2000/svg" viewBox="0 0 34.3 292.86">
  <defs>
    <style>
      .cls-1 {
        fill: #e15e23;
        stroke-width: 0px;
      }
    </style>
  </defs>
  <g id="Layer_1-2" data-name="Layer 1">
    <path class="cls-1" d="M0,289.28v.9l6.5,2.34h3.14v-.68h-2.66v-4.23h2.66v-.68h-3.14L0,289.28ZM6.33,291.73l-5.36-1.93v-.15l5.36-1.93v4.01ZM7.5,268.35h-.76v.68h.76c.8,0,1.46.66,1.46,1.46v1.1c0,.8-.66,1.45-1.46,1.45H2.14c-.81,0-1.46-.63-1.46-1.45v-1.1c0-.81.65-1.46,1.46-1.46h.76v-.68h-.76C.95,268.35,0,269.3,0,270.49v1.1c0,1.17.95,2.12,2.14,2.12h5.36c1.17,0,2.15-.95,2.15-2.12v-1.1c0-1.19-.96-2.14-2.15-2.14ZM2.96,257.74h-.83C.95,257.74,0,258.67,0,259.86v3.24h9.65v-.68h-4.56v-1.87l4.56-2.07v-.74l-4.56,2.08c-.03-1.17-.95-2.08-2.12-2.08ZM4.41,262.42H.68v-2.56c0-.81.65-1.45,1.46-1.45h.83c.81,0,1.45.63,1.45,1.45v2.56ZM3.09,247.3H0v.68h2.85l2.58,2.08v.03l-2.48,2.08H0v.68h3.2l2.91-2.43h3.54v-.68h-3.54l-3.02-2.44ZM5.17,230.12h-.68v3.43H.68v-3.95H0v4.63h9.65v-.68h-4.48v-3.43ZM7.5,219.34H2.14C.95,219.34,0,220.35,0,221.59v1.16c0,1.23.95,2.23,2.14,2.23h5.36c1.17,0,2.15-1.01,2.15-2.23v-1.16c0-1.24-.96-2.25-2.15-2.25ZM8.96,222.75c0,.85-.66,1.57-1.46,1.57H2.14c-.81,0-1.46-.7-1.46-1.57v-1.16c0-.88.65-1.57,1.46-1.57h5.36c.8,0,1.46.72,1.46,1.57v1.16ZM2.96,208.45h-.83C.95,208.45,0,209.39,0,210.58v3.24h9.65v-.68h-4.56v-1.87l4.56-2.07v-.74l-4.56,2.08c-.03-1.17-.95-2.08-2.12-2.08ZM4.41,213.14H.68v-2.56c0-.81.65-1.45,1.46-1.45h.83c.81,0,1.45.63,1.45,1.45v2.56ZM0,190.46h4.3v4.11H0v.68h9.65v-.68h-4.67v-4.11h4.67v-.68H0v.68ZM8.97,183.47h-4.13v-3.68h-.68v3.68H.68v-4.23H0v4.91h9.65v-4.91h-.68v4.23ZM8.97,173.43H0v.68h9.65v-4.93h-.68v4.26ZM5.08,161.14c0-1.18-.94-2.12-2.12-2.12h-.83C.95,159.02,0,159.95,0,161.14v3.24h9.65v-.68h-4.56v-2.56ZM4.41,163.7H.68v-2.56c0-.81.65-1.45,1.46-1.45h.83c.81,0,1.45.63,1.45,1.45v2.56ZM5.17,142.01h-.68v3.43H.68v-3.95H0v4.63h9.65v-.68h-4.48v-3.43ZM2.96,131.25h-.83C.95,131.25,0,132.19,0,133.37v3.24h9.65v-.68h-4.56v-1.87l4.56-2.07v-.74l-4.56,2.08c-.03-1.17-.95-2.08-2.12-2.08ZM4.41,135.94H.68v-2.56c0-.81.65-1.45,1.46-1.45h.83c.81,0,1.45.63,1.45,1.45v2.56ZM7.5,120.5H2.14C.95,120.5,0,121.5,0,122.74v1.16c0,1.23.95,2.23,2.14,2.23h5.36c1.17,0,2.15-1.01,2.15-2.23v-1.16c0-1.24-.96-2.25-2.15-2.25ZM8.96,123.9c0,.85-.66,1.57-1.46,1.57H2.14c-.81,0-1.46-.7-1.46-1.57v-1.16c0-.88.65-1.57,1.46-1.57h5.36c.8,0,1.46.72,1.46,1.57v1.16ZM0,109.89l4.81,2.04L0,113.95v1.02h9.65v-.68H.8l5-2.15v-.45l-5-2.15h8.85v-.68H0v1.02ZM.68,90.83H0v5.36h.68v-2.34h8.97v-.68H.68v-2.34ZM0,81.07h4.3v4.11H0v.68h9.65v-.68h-4.67v-4.11h4.67v-.68H0v.68ZM8.97,74.08h-4.13v-3.68h-.68v3.68H.68v-4.23H0v4.91h9.65v-4.91h-.68v4.23ZM5.08,53.48c0-1.19-.94-2.12-2.12-2.12h-.83C.95,51.36,0,52.3,0,53.48v3.24h9.65v-.68h-4.56v-2.56ZM4.41,56.04H.68v-2.56c0-.81.65-1.45,1.46-1.45h.83c.81,0,1.45.63,1.45,1.45v2.56ZM8.97,45.54H0v.68h9.65v-4.93h-.68v4.26ZM0,33.55v.9l6.5,2.34h3.14v-.68h-2.66v-4.23h2.66v-.68h-3.14L0,33.55ZM6.33,36l-5.36-1.93v-.15l5.36-1.93v4.01ZM0,21.05h8.97v.29L0,24.45v1.43h9.65v-.68H.68v-.29l8.97-3.11v-1.43H0v.68ZM8.97,14.07h-4.13v-3.68h-.68v3.68H.68v-4.23H0v4.91h9.65v-4.91h-.68v4.23ZM.68,0H0v5.36h.68v-2.34h8.97v-.68H.68V0ZM25.33,287.5h-.68v5.36h.68v-2.34h8.97v-.68h-8.97v-2.34ZM32.15,277.33h-5.36c-1.19,0-2.14,1.01-2.14,2.25v1.16c0,1.23.95,2.23,2.14,2.23h5.36c1.17,0,2.15-1.01,2.15-2.23v-1.16c0-1.24-.96-2.25-2.15-2.25ZM33.61,280.74c0,.85-.66,1.57-1.46,1.57h-5.36c-.81,0-1.46-.7-1.46-1.57v-1.16c0-.88.65-1.57,1.46-1.57h5.36c.8,0,1.46.72,1.46,1.57v1.16ZM25.33,229.66h-.68v5.36h.68v-2.34h8.97v-.68h-8.97v-2.34ZM24.65,219.9h4.3v4.11h-4.3v.68h9.65v-.68h-4.67v-4.11h4.67v-.68h-9.65v.68ZM33.62,212.91h-4.13v-3.68h-.68v3.68h-3.49v-4.23h-.68v4.91h9.65v-4.91h-.68v4.23ZM29.82,161.71h-.68v3.43h-3.82v-3.95h-.68v4.63h9.65v-.68h-4.48v-3.43ZM24.65,153.89v.9l6.5,2.34h3.14v-.68h-2.66v-4.23h2.66v-.68h-3.14l-6.5,2.34ZM30.98,156.34l-5.36-1.93v-.15l5.36-1.93v4.01ZM32.22,141.2c-2.71,0-3.79,4.55-5.62,4.55-.77,0-1.27-.59-1.27-1.53v-.65c0-.85.69-1.54,1.54-1.54h.41v-.69h-.41c-1.23,0-2.22,1.01-2.22,2.23v.65c0,1.31.79,2.22,1.94,2.22,2.37,0,3.39-4.55,5.62-4.55.81,0,1.41.65,1.41,1.54v.92c0,.84-.69,1.53-1.54,1.53h-.63v.69h.63c1.23,0,2.22-1.01,2.22-2.22v-.92c0-1.27-.9-2.23-2.08-2.23ZM24.65,131.15h4.3v4.11h-4.3v.68h9.65v-.68h-4.67v-4.11h4.67v-.68h-9.65v.68ZM33.62,122.35h-8.3v-2.34h-.68v5.36h.68v-2.34h8.3v2.34h.68v-5.36h-.68v2.34ZM32.15,109.48h-5.36c-1.19,0-2.14,1.01-2.14,2.25v1.16c0,1.23.95,2.23,2.14,2.23h5.36c1.17,0,2.15-1.01,2.15-2.23v-1.16c0-1.24-.96-2.25-2.15-2.25ZM33.61,112.88c0,.85-.66,1.57-1.46,1.57h-5.36c-.81,0-1.46-.7-1.46-1.57v-1.16c0-.88.65-1.57,1.46-1.57h5.36c.8,0,1.46.72,1.46,1.57v1.16ZM24.65,99.12h8.97v.29l-8.97,3.11v1.43h9.65v-.68h-8.97v-.29l8.97-3.11v-1.43h-9.65v.68ZM24.65,48.56v.68h2.98l5.55.98v.03l-5.61,1.38v.66l5.61,1.38v.03l-5.55.96h-2.98v.68h3.14l6.5-1.17v-.84l-5.39-1.36,5.39-1.36v-.85l-6.5-1.17h-3.14ZM32.15,37.64h-5.36c-1.19,0-2.14,1.01-2.14,2.25v1.16c0,1.23.95,2.23,2.14,2.23h5.36c1.17,0,2.15-1.01,2.15-2.23v-1.16c0-1.24-.96-2.25-2.15-2.25ZM33.61,41.05c0,.85-.66,1.57-1.46,1.57h-5.36c-.81,0-1.46-.7-1.46-1.57v-1.16c0-.88.65-1.57,1.46-1.57h5.36c.8,0,1.46.72,1.46,1.57v1.16ZM27.62,26.75h-.83c-1.19,0-2.14.94-2.14,2.12v3.24h9.65v-.68h-4.56v-1.87l4.56-2.07v-.74l-4.56,2.08c-.03-1.17-.95-2.08-2.12-2.08ZM29.06,31.44h-3.73v-2.56c0-.81.65-1.45,1.46-1.45h.83c.81,0,1.45.63,1.45,1.45v2.56ZM33.62,20.87h-8.97v.68h9.65v-4.93h-.68v4.26ZM32.15,6.45h-5.36c-1.19,0-2.14.95-2.14,2.12v3.24h9.65v-3.24c0-1.17-.98-2.12-2.15-2.12ZM33.61,11.14h-8.28v-2.56c0-.81.65-1.45,1.46-1.45h5.36c.8,0,1.46.65,1.46,1.45v2.56ZM33.34.41v1.01h.96V.41h-.96Z"/>
  </g>
</svg>